<svg id="Group_663" data-name="Group 663" xmlns="http://www.w3.org/2000/svg" xmlns:xlink="http://www.w3.org/1999/xlink" width="80.349" height="92.995" viewBox="0 0 80.349 92.995">
  <defs>
    <clipPath id="clip-path">
      <rect id="Rectangle_214" data-name="Rectangle 214" width="80.349" height="92.995" fill="none"/>
    </clipPath>
  </defs>
  <g id="Group_662" data-name="Group 662" transform="translate(0 0)" clip-path="url(#clip-path)">
    <path id="Path_497" data-name="Path 497" d="M39.156,92.995A66.492,66.492,0,0,0,33.98,70.1C27.392,55.113,15.959,47.516,0,47.516V45.479c15.979,0,27.42-7.615,34-22.633A66.329,66.329,0,0,0,39.156,0h2.038A66.443,66.443,0,0,0,46.37,22.9c6.588,14.983,18.02,22.58,33.98,22.58v2.037c-15.959,0-27.392,7.6-33.98,22.58a66.447,66.447,0,0,0-5.176,22.9ZM9.651,46.5C24.233,49.761,31.9,60.27,35.868,69.331a64.964,64.964,0,0,1,4.306,14.4,65.1,65.1,0,0,1,4.306-14.4C48.453,60.27,56.117,49.761,70.7,46.5,56.117,43.234,48.453,32.725,44.48,23.665a65.105,65.105,0,0,1-4.306-14.4,64.97,64.97,0,0,1-4.306,14.4C31.9,32.725,24.233,43.234,9.651,46.5" transform="translate(0 0)" fill="#fff"/>
    <path id="Path_498" data-name="Path 498" d="M28.279,37a16.841,16.841,0,0,1,.917-1.616A80.37,80.37,0,0,0,16.739,45.9a12.848,12.848,0,0,1,1.623-.141c.1,0,.187.017.281.024.136-.006.271-.022.407-.024a3.245,3.245,0,0,1,.626.059,78.327,78.327,0,0,1,8.2-6.991,4.077,4.077,0,0,1,.4-1.826" transform="translate(-2.651 -5.604)" fill="#fff"/>
    <path id="Path_499" data-name="Path 499" d="M65.373,24.63h0c-2.224-3.287-7.412-4.18-14.6-2.513-.965.224-1.956.494-2.963.8a3.937,3.937,0,0,1,.979,1.831q1.244-.367,2.444-.647a26.776,26.776,0,0,1,5.959-.768c3.138,0,5.408.827,6.5,2.438,3.29,4.861-4.251,17.552-20.72,28.7S11.913,67.888,8.623,63.026c-1.274-1.884-.953-4.866.841-8.458a3.985,3.985,0,0,1-.969-.653,2.739,2.739,0,0,1-.576-.793c-2.406,4.554-2.772,8.4-.983,11.046,1.519,2.245,4.413,3.316,8.218,3.316,7.368,0,18.149-4.021,28.953-11.331C60.491,45.067,69.832,31.221,65.373,24.63" transform="translate(-0.921 -3.372)" fill="#fff"/>
    <path id="Path_500" data-name="Path 500" d="M75.961,38.783h0c-2.224-3.287-7.412-4.18-14.6-2.514-1.479.343-3.013.791-4.584,1.326a3.849,3.849,0,0,1,1.09,1.779c1.353-.448,2.675-.823,3.954-1.12a26.782,26.782,0,0,1,5.959-.768c3.138,0,5.408.826,6.5,2.438,3.29,4.861-4.251,17.552-20.719,28.7S22.5,82.04,19.212,77.179c-1.694-2.5-.571-6.944,3.082-12.184.553-.794,1.159-1.592,1.8-2.393a3.961,3.961,0,0,1-1.308-1.618c-.781.953-1.509,1.9-2.166,2.846-4.223,6.057-5.323,11.2-3.1,14.491,1.519,2.245,4.413,3.316,8.218,3.316,7.368,0,18.149-4.021,28.953-11.331C71.079,59.22,80.42,45.374,75.961,38.783" transform="translate(-2.597 -5.614)" fill="#fff"/>
  </g>
</svg>
