<svg id="Group_508" data-name="Group 508" xmlns="http://www.w3.org/2000/svg" xmlns:xlink="http://www.w3.org/1999/xlink" width="101.229" height="50" viewBox="0 0 101.229 50">
  <g id="Group_507" data-name="Group 507" clip-path="url(#clip-path)">
    <path id="Path_275" data-name="Path 275" d="M15.185,30.061c0-6.609,8.456-12.216,20.246-14.3v3.37a.5.5,0,0,0,.721.446l18.633-9.317a.5.5,0,0,0,0-.891L36.151.053A.5.5,0,0,0,35.431.5v4.43C15.462,6.176,0,14.677,0,25,0,36.181,18.129,45.245,40.492,45.245c.854,0,1.69-.038,2.531-.064-.856-.035-1.7-.1-2.531-.165C26.133,43.81,15.185,37.583,15.185,30.061" transform="translate(0 0)" fill="#fff"/>
    <path id="Path_276" data-name="Path 276" d="M116.712,10.518c-.855,0-1.69.038-2.531.064.856.036,1.7.1,2.531.166,14.358,1.206,25.307,7.433,25.307,14.955,0,6.609-8.456,12.216-20.246,14.3v-3.37a.5.5,0,0,0-.721-.446L102.419,45.5a.5.5,0,0,0,0,.891l18.634,9.317a.5.5,0,0,0,.721-.446v-4.43c19.968-1.248,35.43-9.748,35.43-20.071,0-11.182-18.129-20.246-40.492-20.246" transform="translate(-55.975 -5.764)" fill="#fff"/>
    <path id="Path_277" data-name="Path 277" d="M80.178,40.188c-.193-.462,1.475-2.33,2.251-3.162a.578.578,0,0,0-.822-.811c-1.026.975-3.669,3.437-4.063,3.274-.486-.2-.628-5.539-.662-7.307a.574.574,0,0,0-1.147,0c-.034,1.768-.175,7.1-.662,7.307-.393.162-3.037-2.3-4.064-3.275a.578.578,0,0,0-.821.811c.775.833,2.444,2.7,2.251,3.163-.523,1.252-21.282,1.529-24.989,1.568a.571.571,0,0,0,0,1.142c3.706.039,24.465.315,24.989,1.568.193.461-1.47,2.324-2.247,3.159a.578.578,0,0,0,.822.811c1.022-.972,3.666-3.435,4.06-3.271.486.2.628,5.539.662,7.307a.574.574,0,0,0,1.147,0c.033-1.768.175-7.1.662-7.307.393-.164,3.037,2.3,4.064,3.275a.578.578,0,0,0,.821-.811c-.776-.833-2.445-2.7-2.252-3.163.523-1.252,21.282-1.529,24.989-1.568a.571.571,0,0,0,0-1.142c-3.706-.039-24.465-.315-24.989-1.568" transform="translate(-25.694 -17.327)" fill="#fff"/>
  </g>
</svg>
