<svg xmlns="http://www.w3.org/2000/svg" xmlns:xlink="http://www.w3.org/1999/xlink" width="16" height="19.635" viewBox="0 0 16 19.635">
  <defs>
    <clipPath id="clip-path">
      <rect id="Rectangle_154" data-name="Rectangle 154" width="19.635" height="16" fill="#fff"/>
    </clipPath>
  </defs>
  <g id="Group_534" data-name="Group 534" transform="translate(0 19.635) rotate(-90)">
    <g id="Group_534-2" data-name="Group 534" clip-path="url(#clip-path)">
      <path id="Path_293" data-name="Path 293" d="M0,14.2a8.236,8.236,0,0,0,5.9-1.661A4.162,4.162,0,0,1,2.144,9.721a4.61,4.61,0,0,0,1.782-.073,4.039,4.039,0,0,1-3.16-4,4.056,4.056,0,0,0,1.781.474A4.047,4.047,0,0,1,.805,3.26,3.929,3.929,0,0,1,1.325.747,11.5,11.5,0,0,0,9.612,4.959c-.014-.406-.049-.788-.038-1.17A4.023,4.023,0,0,1,12.491.152,3.978,3.978,0,0,1,16.43,1.17a.258.258,0,0,0,.272.067A8.124,8.124,0,0,0,18.921.4c.044-.025.091-.045.166-.081a3.13,3.13,0,0,1-.65,1.227c-.3.342-.646.645-.965.958a8.108,8.108,0,0,0,2.12-.583l.043.048c-.324.38-.632.776-.978,1.135-.279.289-.609.529-.906.8a.362.362,0,0,0-.109.238,11.605,11.605,0,0,1-5.029,9.94,10.408,10.408,0,0,1-4.825,1.816,11.874,11.874,0,0,1-4.873-.354,11.079,11.079,0,0,1-2.83-1.271A1.086,1.086,0,0,1,0,14.2" transform="translate(0 0)" fill="#fff"/>
    </g>
  </g>
</svg>
