<svg id="Group_489" data-name="Group 489" xmlns="http://www.w3.org/2000/svg" xmlns:xlink="http://www.w3.org/1999/xlink" width="171.442" height="171.425" viewBox="0 0 171.442 171.425">
  <defs>
    <clipPath id="clip-path">
      <rect id="Rectangle_78" data-name="Rectangle 78" width="171.442" height="171.425" fill="#ee941a"/>
    </clipPath>
  </defs>
  <g id="Group_488" data-name="Group 488" clip-path="url(#clip-path)">
    <path id="Path_269" data-name="Path 269" d="M77.381,151.191l1.023-.6c4.709-2.786,9.366-5.833,13.84-9.057a39.325,39.325,0,0,1,23.11-7.521,38.387,38.387,0,0,1,27.315,11.32l26.088,26.091,2.685-2.671-26.1-26.1a38.879,38.879,0,0,1-3.8-50.423c3.225-4.476,6.3-9.171,9.13-13.956l.544-.937c16.476-28.318,19.171-52.367,7.209-64.331-11.981-11.985-36.072-9.266-64.443,7.271l-.938.548c-4.713,2.789-9.372,5.838-13.843,9.06a38.867,38.867,0,0,1-50.425-3.8L2.687,0,0,2.671l26.1,26.1a38.876,38.876,0,0,1,3.8,50.425c-3.214,4.46-6.282,9.151-9.122,13.944l-.461.794c-16.557,28.39-19.285,52.5-7.3,64.485,11.968,11.966,36.03,9.265,64.361-7.224M76.011,52A38.468,38.468,0,0,1,94.5,23.712c16.173-9.571,31.621-14.841,43.5-14.841,7.792,0,13.9,2.155,18.152,6.406,10.869,10.871,7.642,34.489-8.422,61.637a38.476,38.476,0,0,1-28.306,18.511,39.822,39.822,0,0,1-5.006.318A38.814,38.814,0,0,1,76.011,52M23.71,94.512A38.477,38.477,0,0,1,52.014,76a39.705,39.705,0,0,1,5.007-.32,38.787,38.787,0,0,1,19.932,72.028l0,0c-16.143,9.554-31.6,14.816-43.529,14.816-7.8,0-13.9-2.146-18.134-6.377-10.869-10.871-7.641-34.49,8.422-61.637" fill="#ee941a"/>
  </g>
</svg>
