<svg id="Group_495" data-name="Group 495" xmlns="http://www.w3.org/2000/svg" xmlns:xlink="http://www.w3.org/1999/xlink" width="188.94" height="188.94" viewBox="0 0 188.94 188.94">
  <defs>
    <clipPath id="clip-path">
      <rect id="Rectangle_88" data-name="Rectangle 88" width="188.94" height="188.94" fill="#ee941a"/>
    </clipPath>
  </defs>
  <g id="Group_499" data-name="Group 499" clip-path="url(#clip-path)">
    <path id="Path_274" data-name="Path 274" d="M154.017,87.231,188.94,48.973,150.681,83.9q-.221.2-.444.4c-30.2,26.885-72.479-15.391-45.592-45.594q.2-.223.4-.444L139.967,0,101.709,34.923a47.057,47.057,0,0,1-63.45,0L0,0,34.923,38.259a47.058,47.058,0,0,1,0,63.45L0,139.968l38.258-34.923q.7-.642,1.424-1.249c29.866-25.162,70.624,15.6,45.462,45.462q-.608.721-1.249,1.424L48.972,188.94l38.258-34.923a47.058,47.058,0,0,1,63.45,0L188.94,188.94l-34.922-38.258a47.058,47.058,0,0,1,0-63.45" fill="#ee941a"/>
  </g>
</svg>
