<svg id="Group_485" data-name="Group 485" xmlns="http://www.w3.org/2000/svg" xmlns:xlink="http://www.w3.org/1999/xlink" width="178.749" height="178.749" viewBox="0 0 178.749 178.749">
  <defs>
    <clipPath id="clip-path">
      <rect id="Rectangle_76" data-name="Rectangle 76" width="178.749" height="178.749" fill="#ee941a"/>
    </clipPath>
  </defs>
  <g id="Group_484" data-name="Group 484" clip-path="url(#clip-path)">
    <path id="Path_267" data-name="Path 267" d="M83.175,158.153a177.13,177.13,0,0,1-81.482,20.6l-.017-1.212c29.179-.442,53.938-17.079,64.616-43.422,11.053-27.263,4.566-57.553-16.932-79.051L0,.856.854,0,55.043,49.341c21.521,21.519,51.809,28.005,79.073,16.953C160.458,55.615,177.1,30.856,177.536,1.677l1.212.016a177.077,177.077,0,0,1-20.6,81.48c-15.282,28.942-10.473,61.224,12.551,84.249.125.124.255.24.385.357l-3.308,3.308c-.116-.129-.232-.259-.357-.384-23.024-23.027-55.309-27.833-84.246-12.55" fill="#ee941a"/>
  </g>
</svg>
