<svg id="Group_493" data-name="Group 493" xmlns="http://www.w3.org/2000/svg" xmlns:xlink="http://www.w3.org/1999/xlink" width="184.633" height="184.633" viewBox="0 0 184.633 184.633">
  <defs>
    <clipPath id="clip-path">
      <rect id="Rectangle_86" data-name="Rectangle 86" width="184.633" height="184.633" fill="#ee941a"/>
    </clipPath>
  </defs>
  <g id="Group_495" data-name="Group 495" clip-path="url(#clip-path)">
    <path id="Path_272" data-name="Path 272" d="M184.6,1.29h0l.03-.029L183.374,0l-.029.029h0A128.918,128.918,0,0,1,1.259,0L.629.63,0,1.26A128.917,128.917,0,0,1,.031,183.345h0l-.03.03L.63,184l.629.629.029-.03h0a128.917,128.917,0,0,1,182.085.03l1.259-1.259A128.917,128.917,0,0,1,184.6,1.29M102.095,48.68c2.369-1,4.7-1.948,6.929-2.813,18.006-6.994,41.614-16.166,63.5-33.753C154.933,34,145.76,57.6,138.767,75.611c-.873,2.245-1.841,4.605-2.866,7.012a25.2,25.2,0,0,1-41.039,7.852l-.351-.352-.411-.411a25.2,25.2,0,0,1,8-41.031M84.727,133.754c-2.369,1-4.7,1.948-6.929,2.813-18.006,6.994-41.614,16.166-63.5,33.753,17.587-21.883,26.759-45.491,33.752-63.5.872-2.246,1.841-4.605,2.866-7.012A25.2,25.2,0,0,1,91.96,91.96l.351.351.412.412a25.2,25.2,0,0,1-8,41.031" transform="translate(0 0)" fill="#ee941a"/>
  </g>
</svg>
