<svg xmlns="http://www.w3.org/2000/svg" xmlns:xlink="http://www.w3.org/1999/xlink" width="81.52" height="81.52" viewBox="0 0 81.52 81.52">
  <defs>
    <clipPath id="clip-path">
      <rect id="Rectangle_77" data-name="Rectangle 77" width="81.52" height="81.52" transform="translate(0 0)" fill="#fff"/>
    </clipPath>
  </defs>
  <g id="Group_487" data-name="Group 487" transform="translate(0 0.001)">
    <g id="Group_486" data-name="Group 486" transform="translate(0 -0.001)" clip-path="url(#clip-path)">
      <path id="Path_268" data-name="Path 268" d="M75.934,38.569c-3.376-.117-7.917.243-6.319.244-4.973.385-8.665.7-9.739.838-14.087.19-13.736-2.644,1.29-19.3-16.653,15.026-19.487,15.378-19.3,1.291.143-1.074.453-4.765.838-9.739,0,1.6.361-2.944.244-6.32S42.241,0,40.76,0s-2.074,2.21-2.19,5.586.243,7.917.244,6.32c.385,4.973.695,8.664.838,9.738.19,14.087-2.644,13.736-19.3-1.29,15.026,16.654,15.377,19.488,1.29,19.3-1.074-.143-4.765-.453-9.739-.838,1.6,0-2.944-.36-6.319-.244S0,39.278,0,40.759s2.21,2.074,5.586,2.19,7.917-.243,6.319-.244c4.974-.385,8.665-.7,9.739-.838,14.087-.19,13.735,2.644-1.291,19.3,16.654-15.026,19.488-15.377,19.3-1.29-.143,1.074-.453,4.766-.838,9.738,0-1.6-.36,2.944-.244,6.32s.709,5.586,2.19,5.586,2.073-2.21,2.19-5.586-.243-7.917-.244-6.32c-.385-4.974-.695-8.665-.838-9.739-.19-14.087,2.644-13.735,19.3,1.291-15.025-16.654-15.377-19.488-1.29-19.3,1.074.143,4.765.453,9.739.838-1.6,0,2.944.36,6.319.244s5.586-.709,5.586-2.19-2.21-2.074-5.586-2.19" transform="translate(0 0.001)" fill="#fff"/>
    </g>
  </g>
</svg>
