<svg id="Group_492" data-name="Group 492" xmlns="http://www.w3.org/2000/svg" xmlns:xlink="http://www.w3.org/1999/xlink" width="175.6" height="175.6" viewBox="0 0 175.6 175.6">
  <defs>
    <clipPath id="clip-path">
      <rect id="Rectangle_85" data-name="Rectangle 85" width="175.6" height="175.6" fill="#ee941a"/>
    </clipPath>
  </defs>
  <g id="Group_493" data-name="Group 493" clip-path="url(#clip-path)">
    <path id="Path_271" data-name="Path 271" d="M175.6,44.931h0A45.584,45.584,0,0,1,130.654.006V0l-.005.006A37.923,37.923,0,0,1,73.507,0l0,0A48.489,48.489,0,0,1,9.268,7.914L4.791,4.8,7.917,9.286A48.489,48.489,0,0,1,.006,73.519l-.006,0H0a37.923,37.923,0,0,1,0,57.144,45.583,45.583,0,0,1,44.947,44.925v.007l0-.006a37.923,37.923,0,0,1,57.142,0l0,0a48.488,48.488,0,0,1,64.235-7.914l4.476,3.116-2.361-3.188a48.489,48.489,0,0,1,5.339-63.792l1.814-1.746h0a37.923,37.923,0,0,1,0-57.144M87.8,151.641A63.841,63.841,0,1,1,151.642,87.8,63.841,63.841,0,0,1,87.8,151.641" fill="#ee941a"/>
  </g>
</svg>
