<svg id="Group_494" data-name="Group 494" xmlns="http://www.w3.org/2000/svg" xmlns:xlink="http://www.w3.org/1999/xlink" width="210.919" height="218.3" viewBox="0 0 210.919 218.3">
  <defs>
    <clipPath id="clip-path">
      <rect id="Rectangle_87" data-name="Rectangle 87" width="210.919" height="218.3" fill="#ee941a"/>
    </clipPath>
  </defs>
  <g id="Group_497" data-name="Group 497" clip-path="url(#clip-path)">
    <path id="Path_273" data-name="Path 273" d="M52.124,164.045C49.791,178.231,43.73,218.3,43.73,218.3s19.488-35.531,26.238-48.224c6.862-13.124,13.479-26.836,21.417.954,1.316-12.435,5.165-32.545,5.165-32.545L112.34,169.3c-.927-7.866-1.86-15.076-2.578-21.594a18.475,18.475,0,0,1,22.7-19.965c6.372,1.545,13.4,3.393,21.087,5.317L125,113.46s20.438-1.245,32.939-.961c-26.546-11.425-12.1-16.236,1.793-21.363,13.452-5.072,51.183-19.858,51.183-19.858s-40.515.889-54.882,1.39c-14.8.619-29.98,1.744-9.883-19.025-11.427,5.077-30.768,11.8-30.768,11.8l18.8-29.086c-6.349,4.736-12.127,9.149-17.412,13.03a18.476,18.476,0,0,1-28.643-9.68c-1.848-6.29-3.764-13.3-5.938-20.92l-2.7,34.524s-11.3-17.076-17.3-28.045c3.379,28.7-8.01,18.6-19.4,9.13C31.67,25.282,0,0,0,0S21.026,34.642,28.644,46.834C36.579,59.339,45.145,71.925,17.11,64.9c10.111,7.357,25.6,20.746,25.6,20.746L8.126,83.916c7.276,3.129,13.987,5.927,19.989,8.564a18.475,18.475,0,0,1,5.939,29.646c-4.524,4.745-9.64,9.912-15.148,15.6l31.25-14.923s-9.141,18.322-15.637,29.006c23.168-17.277,20.111-2.363,17.6,12.234m.187-60.995a33.118,33.118,0,1,1,38.977,25.968,33.118,33.118,0,0,1-38.977-25.968" transform="translate(0 0)" fill="#ee941a"/>
  </g>
</svg>
