<?xml version="1.0" encoding="utf-8"?>
<!-- Generator: Adobe Illustrator 26.5.0, SVG Export Plug-In . SVG Version: 6.00 Build 0)  -->
<svg version="1.1" id="Layer_1" xmlns="http://www.w3.org/2000/svg" xmlns:xlink="http://www.w3.org/1999/xlink" x="0px" y="0px"
	 viewBox="0 0 23 991.3" style="enable-background:new 0 0 23 991.3;" xml:space="preserve">
<style type="text/css">
	.st0{enable-background:new    ;}
	.st1{fill:#FFFFFF;}
</style>
<g id="Group_176" transform="translate(-11 -35)">
	<g class="st0">
		<path class="st1" d="M17.6,315.3H28v-2.1h-8.2v-6H34v8.1c0,3.3-2.7,6-6,6H17.6c-3.3,0-6-2.7-6-6v-8.1h6V315.3z"/>
		<path class="st1" d="M17.6,284.7H28c3.3,0,6,2.7,6,6v2.1c0,3.3-2.7,6-6,6H17.6c-3.3,0-6-2.7-6-6v-2.1
			C11.6,287.4,14.3,284.7,17.6,284.7z M17.6,290.7v2.1H28v-2.1H17.6z"/>
		<path class="st1" d="M17.6,243H34v6H17.6v2.1H34v6H17.6v2.1H34v6H11.6V249C11.6,245.7,14.3,243,17.6,243z"/>
		<path class="st1" d="M11.6,220.6H34v6h-8.2v2.1H34v6H17.6c-3.3,0-6-2.7-6-6V220.6z M17.6,226.6v2.1h2.2v-2.1H17.6z"/>
		<path class="st1" d="M19,198.2c1.5,0,2.8,0.5,3.8,1.4c1.1-0.9,2.4-1.4,3.9-1.4H34v6h-8.2v2.1H34v6H11.6v-8.1c0-3.3,2.7-6,6-6H19z
			 M17.6,204.2v2.1h2.2v-2.1H17.6z"/>
		<path class="st1" d="M25.8,176.6H28c3.3,0,6,2.7,6,6v6.7h-6v-6.7h-2.2v1.4h0c-0.1,3.2-2.7,5.8-6,5.8h-2.2c-3.3,0-6-2.7-6-6v-6.7h6
			v6.7h2.2v-1.4C19.9,179.2,22.5,176.6,25.8,176.6z"/>
		<path class="st1" d="M19,143c1.5,0,2.8,0.5,3.8,1.4c1.1-0.9,2.4-1.4,3.9-1.4H34v6h-8.2v2.1H34v6H11.6V149c0-3.3,2.7-6,6-6H19z
			 M17.6,149v2.1h2.2V149H17.6z"/>
		<path class="st1" d="M17.6,120.6H28c3.3,0,6,2.7,6,6v2.1c0,3.3-2.7,6-6,6H17.6c-3.3,0-6-2.7-6-6v-2.1
			C11.6,123.2,14.3,120.6,17.6,120.6z M17.6,126.6v2.1H28v-2.1H17.6z"/>
		<path class="st1" d="M11.6,98.1H27c3.9,0,7,3.1,7,7v7.1H11.6v-6H28v-1.1c0-0.6-0.5-1.1-1.1-1.1H11.6V98.1z"/>
		<path class="st1" d="M17.6,83.5h2.2v-4.3h6v4.3H28v-4.3h6v10.3H11.6V79.3h6V83.5z"/>
		<path class="st1" d="M19,56.6c1.5,0,2.8,0.5,3.8,1.4c1.1-0.9,2.4-1.4,3.9-1.4H34v6h-8.2v2.1H34v6H11.6v-8.1c0-3.3,2.7-6,6-6H19z
			 M17.6,62.6v2.1h2.2v-2.1H17.6z"/>
		<path class="st1" d="M25.8,35H28c3.3,0,6,2.7,6,6v6.7h-6V41h-2.2v1.4h0c-0.1,3.2-2.7,5.8-6,5.8h-2.2c-3.3,0-6-2.7-6-6v-6.7h6v6.7
			h2.2v-1.4C19.9,37.6,22.5,35,25.8,35z"/>
	</g>
	<g class="st0">
		<path class="st1" d="M17.6,1004.1H34v6H17.6v2.1H34v6H17.6v2.1H34v6H11.6V1010C11.6,1006.8,14.3,1004.1,17.6,1004.1z"/>
		<path class="st1" d="M11.6,981.6H34v6h-8.2v2.1H34v6H17.6c-3.3,0-6-2.7-6-6V981.6z M17.6,987.6v2.1h2.2v-2.1H17.6z"/>
		<path class="st1" d="M19,959.2c1.5,0,2.8,0.5,3.8,1.4c1.1-0.9,2.4-1.4,3.9-1.4H34v6h-8.2v2.1H34v6H11.6v-8.1c0-3.3,2.7-6,6-6H19z
			 M17.6,965.2v2.1h2.2v-2.1H17.6z"/>
		<path class="st1" d="M25.8,937.7H28c3.3,0,6,2.7,6,6v6.7h-6v-6.7h-2.2v1.4h0c-0.1,3.2-2.7,5.8-6,5.8h-2.2c-3.3,0-6-2.7-6-6v-6.7h6
			v6.7h2.2v-1.4C19.9,940.3,22.5,937.7,25.8,937.7z"/>
		<path class="st1" d="M19,904.1c1.5,0,2.8,0.5,3.8,1.4c1.1-0.9,2.4-1.4,3.9-1.4H34v6h-8.2v2.1H34v6H11.6V910c0-3.3,2.7-6,6-6H19z
			 M17.6,910v2.1h2.2V910H17.6z"/>
		<path class="st1" d="M17.6,881.6H28c3.3,0,6,2.7,6,6v2.1c0,3.3-2.7,6-6,6H17.6c-3.3,0-6-2.7-6-6v-2.1
			C11.6,884.3,14.3,881.6,17.6,881.6z M17.6,887.6v2.1H28v-2.1H17.6z"/>
		<path class="st1" d="M11.6,859.2H27c3.9,0,7,3.1,7,7v7.1H11.6v-6H28v-1.1c0-0.6-0.5-1.1-1.1-1.1H11.6V859.2z"/>
		<path class="st1" d="M17.6,844.6h2.2v-4.3h6v4.3H28v-4.3h6v10.3H11.6v-10.3h6V844.6z"/>
		<path class="st1" d="M19,817.6c1.5,0,2.8,0.5,3.8,1.4c1.1-0.9,2.4-1.4,3.9-1.4H34v6h-8.2v2.1H34v6H11.6v-8.1c0-3.3,2.7-6,6-6H19z
			 M17.6,823.6v2.1h2.2v-2.1H17.6z"/>
		<path class="st1" d="M25.8,796.1H28c3.3,0,6,2.7,6,6v6.7h-6V802h-2.2v1.4h0c-0.1,3.2-2.7,5.8-6,5.8h-2.2c-3.3,0-6-2.7-6-6v-6.7h6
			v6.7h2.2v-1.4C19.9,798.7,22.5,796.1,25.8,796.1z"/>
	</g>
	<g class="st0">
		<path class="st1" d="M17.6,696.3H28v-2.1h-8.2v-6H34v8.1c0,3.3-2.7,6-6,6H17.6c-3.3,0-6-2.7-6-6v-8.1h6V696.3z"/>
		<path class="st1" d="M17.6,665.7H28c3.3,0,6,2.7,6,6v2.1c0,3.3-2.7,6-6,6H17.6c-3.3,0-6-2.7-6-6v-2.1
			C11.6,668.4,14.3,665.7,17.6,665.7z M17.6,671.7v2.1H28v-2.1H17.6z"/>
		<path class="st1" d="M17.6,624H34v6H17.6v2.1H34v6H17.6v2.1H34v6H11.6V630C11.6,626.7,14.3,624,17.6,624z"/>
		<path class="st1" d="M11.6,601.6H34v6h-8.2v2.1H34v6H17.6c-3.3,0-6-2.7-6-6V601.6z M17.6,607.6v2.1h2.2v-2.1H17.6z"/>
		<path class="st1" d="M19,579.2c1.5,0,2.8,0.5,3.8,1.4c1.1-0.9,2.4-1.4,3.9-1.4H34v6h-8.2v2.1H34v6H11.6v-8.1c0-3.3,2.7-6,6-6H19z
			 M17.6,585.2v2.1h2.2v-2.1H17.6z"/>
		<path class="st1" d="M25.8,557.6H28c3.3,0,6,2.7,6,6v6.7h-6v-6.7h-2.2v1.4h0c-0.1,3.2-2.7,5.8-6,5.8h-2.2c-3.3,0-6-2.7-6-6v-6.7h6
			v6.7h2.2v-1.4C19.9,560.2,22.5,557.6,25.8,557.6z"/>
		<path class="st1" d="M19,524c1.5,0,2.8,0.5,3.8,1.4c1.1-0.9,2.4-1.4,3.9-1.4H34v6h-8.2v2.1H34v6H11.6V530c0-3.3,2.7-6,6-6H19z
			 M17.6,530v2.1h2.2V530H17.6z"/>
		<path class="st1" d="M17.6,501.6H28c3.3,0,6,2.7,6,6v2.1c0,3.3-2.7,6-6,6H17.6c-3.3,0-6-2.7-6-6v-2.1
			C11.6,504.2,14.3,501.6,17.6,501.6z M17.6,507.6v2.1H28v-2.1H17.6z"/>
		<path class="st1" d="M11.6,479.1H27c3.9,0,7,3.1,7,7v7.1H11.6v-6H28v-1.1c0-0.6-0.5-1.1-1.1-1.1H11.6V479.1z"/>
		<path class="st1" d="M17.6,464.5h2.2v-4.3h6v4.3H28v-4.3h6v10.3H11.6v-10.3h6V464.5z"/>
		<path class="st1" d="M19,437.6c1.5,0,2.8,0.5,3.8,1.4c1.1-0.9,2.4-1.4,3.9-1.4H34v6h-8.2v2.1H34v6H11.6v-8.1c0-3.3,2.7-6,6-6H19z
			 M17.6,443.6v2.1h2.2v-2.1H17.6z"/>
		<path class="st1" d="M25.8,416H28c3.3,0,6,2.7,6,6v6.7h-6V422h-2.2v1.4h0c-0.1,3.2-2.7,5.8-6,5.8h-2.2c-3.3,0-6-2.7-6-6v-6.7h6
			v6.7h2.2v-1.4C19.9,418.6,22.5,416,25.8,416z"/>
	</g>
	<path id="svgviewer-output" class="st1" d="M11,749.2c0-0.4,0.3-0.7,0.7-0.7c0,0,0,0,0,0c4.7,0,8.5-3.8,8.5-8.5
		c0-0.4,0.3-0.7,0.7-0.7s0.7,0.3,0.7,0.7c0,4.7,3.8,8.5,8.5,8.5c0.4,0,0.7,0.3,0.7,0.7s-0.3,0.7-0.7,0.7l0,0c-4.7,0-8.5,3.8-8.5,8.5
		c0,0.4-0.3,0.7-0.7,0.7c-0.4,0-0.7-0.3-0.7-0.7c0,0,0,0,0,0c0-4.7-3.8-8.5-8.5-8.5C11.3,750,11,749.7,11,749.2
		C11,749.2,11,749.2,11,749.2"/>
	<path id="svgviewer-output-2" class="st1" d="M11,368.2c0-0.4,0.3-0.7,0.7-0.7c0,0,0,0,0,0c4.7,0,8.5-3.8,8.5-8.5
		c0-0.4,0.3-0.7,0.7-0.7s0.7,0.3,0.7,0.7c0,4.7,3.8,8.5,8.5,8.5c0.4,0,0.7,0.3,0.7,0.7c0,0.4-0.3,0.7-0.7,0.7l0,0
		c-4.7,0-8.5,3.8-8.5,8.5c0,0.4-0.3,0.7-0.7,0.7s-0.7-0.3-0.7-0.7c0,0,0,0,0,0c0-4.7-3.8-8.5-8.5-8.5C11.3,369,11,368.7,11,368.2
		C11,368.2,11,368.2,11,368.2"/>
</g>
</svg>
