<?xml version="1.0" encoding="utf-8"?>
<!-- Generator: Adobe Illustrator 26.5.0, SVG Export Plug-In . SVG Version: 6.00 Build 0)  -->
<svg version="1.1" id="Layer_1" xmlns="http://www.w3.org/2000/svg" xmlns:xlink="http://www.w3.org/1999/xlink" x="0px" y="0px"
	 viewBox="0 0 23 1040.7" style="enable-background:new 0 0 23 1040.7;" xml:space="preserve">
<style type="text/css">
	.st0{enable-background:new    ;}
	.st1{fill:#FFFFFF;}
</style>
<g id="Group_405" transform="translate(-11 959)">
	<g class="st0">
		<path class="st1" d="M11.6-713.3H34v6h-8.2v2.1H34v6H17.6c-3.3,0-6-2.7-6-6V-713.3z M17.6-707.4v2.1h2.2v-2.1H17.6z"/>
		<path class="st1" d="M19-735.8c1.5,0,2.8,0.5,3.8,1.4c1.1-0.9,2.4-1.4,3.9-1.4H28c3.3,0,6,2.7,6,6v8.1H11.6v-8.1c0-3.3,2.7-6,6-6
			H19z M17.6-729.8v2.1h2.2v-2.1H17.6z M25.8-729.8v2.1H28v-2.1H25.8z"/>
		<path class="st1" d="M17.6-758.2H28c3.3,0,6,2.7,6,6v2.1c0,3.3-2.7,6-6,6H17.6c-3.3,0-6-2.7-6-6v-2.1
			C11.6-755.5,14.3-758.2,17.6-758.2z M17.6-752.2v2.1H28v-2.1H17.6z"/>
		<path class="st1" d="M11.6-780.6H28c3.3,0,6,2.7,6,6v2.1c0,3.3-2.7,6-6,6H11.6v-6H28v-2.1H11.6V-780.6z"/>
		<path class="st1" d="M19-803c1.5,0,2.8,0.5,3.8,1.4c1.1-0.9,2.4-1.4,3.9-1.4H34v6h-8.2v2.1H34v6H11.6v-8.1c0-3.3,2.7-6,6-6H19z
			 M17.6-797v2.1h2.2v-2.1H17.6z"/>
		<path class="st1" d="M17.6-836.7h2.2c3.3,0,6,2.7,6,6v2.1H34v6H11.6v-6v-2.1C11.6-834,14.3-836.7,17.6-836.7z M17.6-830.7v2.1h2.2
			v-2.1H17.6z"/>
		<path class="st1" d="M19-859.1c1.5,0,2.8,0.5,3.8,1.4c1.1-0.9,2.4-1.4,3.9-1.4H34v6h-8.2v2.1H34v6H11.6v-8.1c0-3.3,2.7-6,6-6H19z
			 M17.6-853.1v2.1h2.2v-2.1H17.6z"/>
		<path class="st1" d="M17.6-881.5H28c3.3,0,6,2.7,6,6v2.1c0,3.3-2.7,6-6,6H17.6c-3.3,0-6-2.7-6-6v-2.1
			C11.6-878.8,14.3-881.5,17.6-881.5z M17.6-875.5v2.1H28v-2.1H17.6z"/>
		<path class="st1" d="M28-900.1c3.3,0,6,2.7,6,6v4.3h-6v-4.3H11.6v-6H28z"/>
		<path class="st1" d="M17.6-914.7h2.2v-4.3h6v4.3H28v-4.3h6v10.3H11.6V-919h6V-914.7z"/>
		<path class="st1" d="M28-933.6v-4.3h6v4.3c0,3.3-2.7,6-6,6H17.6c-3.3,0-6-2.7-6-6v-4.3h6v4.3H28z"/>
		<path class="st1" d="M11.6-959h6v3.4H34v6H17.6v3.4h-6V-959z"/>
	</g>
	<g class="st0">
		<path class="st1" d="M11.6,6.7H34v6h-8.2v2.1H34v6H17.6c-3.3,0-6-2.7-6-6V6.7z M17.6,12.6v2.1h2.2v-2.1H17.6z"/>
		<path class="st1" d="M19-15.8c1.5,0,2.8,0.5,3.8,1.4c1.1-0.9,2.4-1.4,3.9-1.4H28c3.3,0,6,2.7,6,6v8.1H11.6v-8.1c0-3.3,2.7-6,6-6
			H19z M17.6-9.8v2.1h2.2v-2.1H17.6z M25.8-9.8v2.1H28v-2.1H25.8z"/>
		<path class="st1" d="M17.6-38.2H28c3.3,0,6,2.7,6,6v2.1c0,3.3-2.7,6-6,6H17.6c-3.3,0-6-2.7-6-6v-2.1
			C11.6-35.5,14.3-38.2,17.6-38.2z M17.6-32.2v2.1H28v-2.1H17.6z"/>
		<path class="st1" d="M11.6-60.6H28c3.3,0,6,2.7,6,6v2.1c0,3.3-2.7,6-6,6H11.6v-6H28v-2.1H11.6V-60.6z"/>
		<path class="st1" d="M11.6-81.8h6v3.4H34v6H17.6v3.4h-6V-81.8z"/>
		<path class="st1" d="M17.6-115.4h2.2c3.3,0,6,2.7,6,6v2.1H34v6H11.6v-6v-2.1C11.6-112.8,14.3-115.4,17.6-115.4z M17.6-109.4v2.1
			h2.2v-2.1H17.6z"/>
		<path class="st1" d="M19-137.8c1.5,0,2.8,0.5,3.8,1.4c1.1-0.9,2.4-1.4,3.9-1.4H34v6h-8.2v2.1H34v6H11.6v-8.1c0-3.3,2.7-6,6-6H19z
			 M17.6-131.8v2.1h2.2v-2.1H17.6z"/>
		<path class="st1" d="M17.6-160.2H28c3.3,0,6,2.7,6,6v2.1c0,3.3-2.7,6-6,6H17.6c-3.3,0-6-2.7-6-6v-2.1
			C11.6-157.6,14.3-160.2,17.6-160.2z M17.6-154.3v2.1H28v-2.1H17.6z"/>
		<path class="st1" d="M28-178.8c3.3,0,6,2.7,6,6v4.3h-6v-4.3H11.6v-6H28z"/>
		<path class="st1" d="M17.6-193.4h2.2v-4.3h6v4.3H28v-4.3h6v10.3H11.6v-10.3h6V-193.4z"/>
		<path class="st1" d="M28-212.3v-4.3h6v4.3c0,3.3-2.7,6-6,6H17.6c-3.3,0-6-2.7-6-6v-4.3h6v4.3H28z"/>
		<path class="st1" d="M11.6-237.8h6v3.4H34v6H17.6v3.4h-6V-237.8z"/>
	</g>
	<g class="st0">
		<path class="st1" d="M11.6-352.3H34v6h-8.2v2.1H34v6H17.6c-3.3,0-6-2.7-6-6V-352.3z M17.6-346.4v2.1h2.2v-2.1H17.6z"/>
		<path class="st1" d="M19-374.8c1.5,0,2.8,0.5,3.8,1.4c1.1-0.9,2.4-1.4,3.9-1.4H28c3.3,0,6,2.7,6,6v8.1H11.6v-8.1c0-3.3,2.7-6,6-6
			H19z M17.6-368.8v2.1h2.2v-2.1H17.6z M25.8-368.8v2.1H28v-2.1H25.8z"/>
		<path class="st1" d="M17.6-397.2H28c3.3,0,6,2.7,6,6v2.1c0,3.3-2.7,6-6,6H17.6c-3.3,0-6-2.7-6-6v-2.1
			C11.6-394.5,14.3-397.2,17.6-397.2z M17.6-391.2v2.1H28v-2.1H17.6z"/>
		<path class="st1" d="M11.6-419.6H28c3.3,0,6,2.7,6,6v2.1c0,3.3-2.7,6-6,6H11.6v-6H28v-2.1H11.6V-419.6z"/>
		<path class="st1" d="M19-442c1.5,0,2.8,0.5,3.8,1.4c1.1-0.9,2.4-1.4,3.9-1.4H34v6h-8.2v2.1H34v6H11.6v-8.1c0-3.3,2.7-6,6-6H19z
			 M17.6-436v2.1h2.2v-2.1H17.6z"/>
		<path class="st1" d="M17.6-475.7h2.2c3.3,0,6,2.7,6,6v2.1H34v6H11.6v-6v-2.1C11.6-473,14.3-475.7,17.6-475.7z M17.6-469.7v2.1h2.2
			v-2.1H17.6z"/>
		<path class="st1" d="M19-498.1c1.5,0,2.8,0.5,3.8,1.4c1.1-0.9,2.4-1.4,3.9-1.4H34v6h-8.2v2.1H34v6H11.6v-8.1c0-3.3,2.7-6,6-6H19z
			 M17.6-492.1v2.1h2.2v-2.1H17.6z"/>
		<path class="st1" d="M17.6-520.5H28c3.3,0,6,2.7,6,6v2.1c0,3.3-2.7,6-6,6H17.6c-3.3,0-6-2.7-6-6v-2.1
			C11.6-517.8,14.3-520.5,17.6-520.5z M17.6-514.5v2.1H28v-2.1H17.6z"/>
		<path class="st1" d="M28-539.1c3.3,0,6,2.7,6,6v4.3h-6v-4.3H11.6v-6H28z"/>
		<path class="st1" d="M17.6-553.7h2.2v-4.3h6v4.3H28v-4.3h6v10.3H11.6V-558h6V-553.7z"/>
		<path class="st1" d="M28-572.6v-4.3h6v4.3c0,3.3-2.7,6-6,6H17.6c-3.3,0-6-2.7-6-6v-4.3h6v4.3H28z"/>
		<path class="st1" d="M11.6-598h6v3.4H34v6H17.6v3.4h-6V-598z"/>
	</g>
	<path id="svgviewer-output-3" class="st1" d="M11-287.3c0-0.4,0.3-0.7,0.7-0.7c0,0,0,0,0,0c4.7,0,8.5-3.8,8.5-8.5
		c0-0.4,0.3-0.7,0.7-0.7s0.7,0.3,0.7,0.7c0,4.7,3.8,8.5,8.5,8.5c0.4,0,0.7,0.3,0.7,0.7c0,0.4-0.3,0.7-0.7,0.7l0,0
		c-4.7,0-8.5,3.8-8.5,8.5c0,0.4-0.3,0.7-0.7,0.7s-0.7-0.3-0.7-0.7c0,0,0,0,0,0c0-4.7-3.8-8.5-8.5-8.5C11.3-286.5,11-286.8,11-287.3
		C11-287.2,11-287.3,11-287.3"/>
	<path id="svgviewer-output-4" class="st1" d="M11,71.7c0-0.4,0.3-0.7,0.7-0.7c0,0,0,0,0,0c4.7,0,8.5-3.8,8.5-8.5
		c0-0.4,0.3-0.7,0.7-0.7s0.7,0.3,0.7,0.7c0,4.7,3.8,8.5,8.5,8.5c0.4,0,0.7,0.3,0.7,0.7s-0.3,0.7-0.7,0.7l0,0c-4.7,0-8.5,3.8-8.5,8.5
		c0,0.4-0.3,0.7-0.7,0.7s-0.7-0.3-0.7-0.7c0,0,0,0,0,0c0-4.7-3.8-8.5-8.5-8.5C11.3,72.5,11,72.2,11,71.7C11,71.8,11,71.7,11,71.7"/>
	<path id="svgviewer-output-5" class="st1" d="M11-648.3c0-0.4,0.3-0.7,0.7-0.7c0,0,0,0,0,0c4.7,0,8.5-3.8,8.5-8.5
		c0-0.4,0.3-0.7,0.7-0.7s0.7,0.3,0.7,0.7c0,4.7,3.8,8.5,8.5,8.5c0.4,0,0.7,0.3,0.7,0.7s-0.3,0.7-0.7,0.7l0,0c-4.7,0-8.5,3.8-8.5,8.5
		c0,0.4-0.3,0.7-0.7,0.7c-0.4,0-0.7-0.3-0.7-0.7c0,0,0,0,0,0c0-4.7-3.8-8.5-8.5-8.5C11.3-647.5,11-647.8,11-648.3
		C11-648.2,11-648.3,11-648.3"/>
</g>
</svg>
