<?xml version="1.0" encoding="utf-8"?>
<!-- Generator: Adobe Illustrator 26.5.0, SVG Export Plug-In . SVG Version: 6.00 Build 0)  -->
<svg version="1.1" id="Layer_1" xmlns="http://www.w3.org/2000/svg" xmlns:xlink="http://www.w3.org/1999/xlink" x="0px" y="0px"
	 viewBox="0 0 23 1040.7" style="enable-background:new 0 0 23 1040.7;" xml:space="preserve">
<style type="text/css">
	.st0{enable-background:new    ;}
	.st1{fill:#FFFFFF;}
</style>
<g id="Group_406" transform="translate(-11 2039)">
	<g class="st0">
		<path class="st1" d="M11.6-1793.3H34v6h-8.2v2.1H34v6H17.6c-3.3,0-6-2.7-6-6V-1793.3z M17.6-1787.4v2.1h2.2v-2.1H17.6z"/>
		<path class="st1" d="M19-1815.8c1.5,0,2.8,0.5,3.8,1.4c1.1-0.9,2.4-1.4,3.9-1.4H28c3.3,0,6,2.7,6,6v8.1H11.6v-8.1c0-3.3,2.7-6,6-6
			H19z M17.6-1809.8v2.1h2.2v-2.1H17.6z M25.8-1809.8v2.1H28v-2.1H25.8z"/>
		<path class="st1" d="M17.6-1838.2H28c3.3,0,6,2.7,6,6v2.1c0,3.3-2.7,6-6,6H17.6c-3.3,0-6-2.7-6-6v-2.1
			C11.6-1835.5,14.3-1838.2,17.6-1838.2z M17.6-1832.2v2.1H28v-2.1H17.6z"/>
		<path class="st1" d="M11.6-1860.6H28c3.3,0,6,2.7,6,6v2.1c0,3.3-2.7,6-6,6H11.6v-6H28v-2.1H11.6V-1860.6z"/>
		<path class="st1" d="M19-1883c1.5,0,2.8,0.5,3.8,1.4c1.1-0.9,2.4-1.4,3.9-1.4H34v6h-8.2v2.1H34v6H11.6v-8.1c0-3.3,2.7-6,6-6H19z
			 M17.6-1877v2.1h2.2v-2.1H17.6z"/>
		<path class="st1" d="M17.6-1916.7h2.2c3.3,0,6,2.7,6,6v2.1H34v6H11.6v-6v-2.1C11.6-1914,14.3-1916.7,17.6-1916.7z M17.6-1910.7
			v2.1h2.2v-2.1H17.6z"/>
		<path class="st1" d="M19-1939.1c1.5,0,2.8,0.5,3.8,1.4c1.1-0.9,2.4-1.4,3.9-1.4H34v6h-8.2v2.1H34v6H11.6v-8.1c0-3.3,2.7-6,6-6H19z
			 M17.6-1933.1v2.1h2.2v-2.1H17.6z"/>
		<path class="st1" d="M17.6-1961.5H28c3.3,0,6,2.7,6,6v2.1c0,3.3-2.7,6-6,6H17.6c-3.3,0-6-2.7-6-6v-2.1
			C11.6-1958.8,14.3-1961.5,17.6-1961.5z M17.6-1955.5v2.1H28v-2.1H17.6z"/>
		<path class="st1" d="M28-1980.1c3.3,0,6,2.7,6,6v4.3h-6v-4.3H11.6v-6H28z"/>
		<path class="st1" d="M17.6-1994.7h2.2v-4.3h6v4.3H28v-4.3h6v10.3H11.6v-10.3h6V-1994.7z"/>
		<path class="st1" d="M28-2013.6v-4.3h6v4.3c0,3.3-2.7,6-6,6H17.6c-3.3,0-6-2.7-6-6v-4.3h6v4.3H28z"/>
		<path class="st1" d="M11.6-2039h6v3.4H34v6H17.6v3.4h-6V-2039z"/>
	</g>
	<g class="st0">
		<path class="st1" d="M11.6-1073.3H34v6h-8.2v2.1H34v6H17.6c-3.3,0-6-2.7-6-6V-1073.3z M17.6-1067.4v2.1h2.2v-2.1H17.6z"/>
		<path class="st1" d="M19-1095.8c1.5,0,2.8,0.5,3.8,1.4c1.1-0.9,2.4-1.4,3.9-1.4H28c3.3,0,6,2.7,6,6v8.1H11.6v-8.1c0-3.3,2.7-6,6-6
			H19z M17.6-1089.8v2.1h2.2v-2.1H17.6z M25.8-1089.8v2.1H28v-2.1H25.8z"/>
		<path class="st1" d="M17.6-1118.2H28c3.3,0,6,2.7,6,6v2.1c0,3.3-2.7,6-6,6H17.6c-3.3,0-6-2.7-6-6v-2.1
			C11.6-1115.5,14.3-1118.2,17.6-1118.2z M17.6-1112.2v2.1H28v-2.1H17.6z"/>
		<path class="st1" d="M11.6-1140.6H28c3.3,0,6,2.7,6,6v2.1c0,3.3-2.7,6-6,6H11.6v-6H28v-2.1H11.6V-1140.6z"/>
		<path class="st1" d="M11.6-1161.8h6v3.4H34v6H17.6v3.4h-6V-1161.8z"/>
		<path class="st1" d="M17.6-1195.4h2.2c3.3,0,6,2.7,6,6v2.1H34v6H11.6v-6v-2.1C11.6-1192.8,14.3-1195.4,17.6-1195.4z M17.6-1189.4
			v2.1h2.2v-2.1H17.6z"/>
		<path class="st1" d="M19-1217.8c1.5,0,2.8,0.5,3.8,1.4c1.1-0.9,2.4-1.4,3.9-1.4H34v6h-8.2v2.1H34v6H11.6v-8.1c0-3.3,2.7-6,6-6H19z
			 M17.6-1211.8v2.1h2.2v-2.1H17.6z"/>
		<path class="st1" d="M17.6-1240.2H28c3.3,0,6,2.7,6,6v2.1c0,3.3-2.7,6-6,6H17.6c-3.3,0-6-2.7-6-6v-2.1
			C11.6-1237.6,14.3-1240.2,17.6-1240.2z M17.6-1234.3v2.1H28v-2.1H17.6z"/>
		<path class="st1" d="M28-1258.8c3.3,0,6,2.7,6,6v4.3h-6v-4.3H11.6v-6H28z"/>
		<path class="st1" d="M17.6-1273.4h2.2v-4.3h6v4.3H28v-4.3h6v10.3H11.6v-10.3h6V-1273.4z"/>
		<path class="st1" d="M28-1292.3v-4.3h6v4.3c0,3.3-2.7,6-6,6H17.6c-3.3,0-6-2.7-6-6v-4.3h6v4.3H28z"/>
		<path class="st1" d="M11.6-1317.8h6v3.4H34v6H17.6v3.4h-6V-1317.8z"/>
	</g>
	<g class="st0">
		<path class="st1" d="M11.6-1432.3H34v6h-8.2v2.1H34v6H17.6c-3.3,0-6-2.7-6-6V-1432.3z M17.6-1426.4v2.1h2.2v-2.1H17.6z"/>
		<path class="st1" d="M19-1454.8c1.5,0,2.8,0.5,3.8,1.4c1.1-0.9,2.4-1.4,3.9-1.4H28c3.3,0,6,2.7,6,6v8.1H11.6v-8.1c0-3.3,2.7-6,6-6
			H19z M17.6-1448.8v2.1h2.2v-2.1H17.6z M25.8-1448.8v2.1H28v-2.1H25.8z"/>
		<path class="st1" d="M17.6-1477.2H28c3.3,0,6,2.7,6,6v2.1c0,3.3-2.7,6-6,6H17.6c-3.3,0-6-2.7-6-6v-2.1
			C11.6-1474.5,14.3-1477.2,17.6-1477.2z M17.6-1471.2v2.1H28v-2.1H17.6z"/>
		<path class="st1" d="M11.6-1499.6H28c3.3,0,6,2.7,6,6v2.1c0,3.3-2.7,6-6,6H11.6v-6H28v-2.1H11.6V-1499.6z"/>
		<path class="st1" d="M19-1522c1.5,0,2.8,0.5,3.8,1.4c1.1-0.9,2.4-1.4,3.9-1.4H34v6h-8.2v2.1H34v6H11.6v-8.1c0-3.3,2.7-6,6-6H19z
			 M17.6-1516v2.1h2.2v-2.1H17.6z"/>
		<path class="st1" d="M17.6-1555.7h2.2c3.3,0,6,2.7,6,6v2.1H34v6H11.6v-6v-2.1C11.6-1553,14.3-1555.7,17.6-1555.7z M17.6-1549.7
			v2.1h2.2v-2.1H17.6z"/>
		<path class="st1" d="M19-1578.1c1.5,0,2.8,0.5,3.8,1.4c1.1-0.9,2.4-1.4,3.9-1.4H34v6h-8.2v2.1H34v6H11.6v-8.1c0-3.3,2.7-6,6-6H19z
			 M17.6-1572.1v2.1h2.2v-2.1H17.6z"/>
		<path class="st1" d="M17.6-1600.5H28c3.3,0,6,2.7,6,6v2.1c0,3.3-2.7,6-6,6H17.6c-3.3,0-6-2.7-6-6v-2.1
			C11.6-1597.8,14.3-1600.5,17.6-1600.5z M17.6-1594.5v2.1H28v-2.1H17.6z"/>
		<path class="st1" d="M28-1619.1c3.3,0,6,2.7,6,6v4.3h-6v-4.3H11.6v-6H28z"/>
		<path class="st1" d="M17.6-1633.7h2.2v-4.3h6v4.3H28v-4.3h6v10.3H11.6v-10.3h6V-1633.7z"/>
		<path class="st1" d="M28-1652.6v-4.3h6v4.3c0,3.3-2.7,6-6,6H17.6c-3.3,0-6-2.7-6-6v-4.3h6v4.3H28z"/>
		<path class="st1" d="M11.6-1678h6v3.4H34v6H17.6v3.4h-6V-1678z"/>
	</g>
	<path id="svgviewer-output-6" class="st1" d="M11-1367.3c0-0.4,0.3-0.7,0.7-0.7c0,0,0,0,0,0c4.7,0,8.5-3.8,8.5-8.5
		c0-0.4,0.3-0.7,0.7-0.7s0.7,0.3,0.7,0.7c0,4.7,3.8,8.5,8.5,8.5c0.4,0,0.7,0.3,0.7,0.7s-0.3,0.7-0.7,0.7l0,0c-4.7,0-8.5,3.8-8.5,8.5
		c0,0.4-0.3,0.7-0.7,0.7c-0.4,0-0.7-0.3-0.7-0.7c0,0,0,0,0,0c0-4.7-3.8-8.5-8.5-8.5C11.3-1366.5,11-1366.8,11-1367.3
		C11-1367.2,11-1367.3,11-1367.3"/>
	<path id="svgviewer-output-7" class="st1" d="M11-1008.3c0-0.4,0.3-0.7,0.7-0.7c0,0,0,0,0,0c4.7,0,8.5-3.8,8.5-8.5
		c0-0.4,0.3-0.7,0.7-0.7s0.7,0.3,0.7,0.7c0,4.7,3.8,8.5,8.5,8.5c0.4,0,0.7,0.3,0.7,0.7s-0.3,0.7-0.7,0.7l0,0c-4.7,0-8.5,3.8-8.5,8.5
		c0,0.4-0.3,0.7-0.7,0.7c-0.4,0-0.7-0.3-0.7-0.7c0,0,0,0,0,0c0-4.7-3.8-8.5-8.5-8.5C11.3-1007.5,11-1007.8,11-1008.3
		C11-1008.2,11-1008.3,11-1008.3"/>
	<path id="svgviewer-output-8" class="st1" d="M11-1728.3c0-0.4,0.3-0.7,0.7-0.7c0,0,0,0,0,0c4.7,0,8.5-3.8,8.5-8.5
		c0-0.4,0.3-0.7,0.7-0.7s0.7,0.3,0.7,0.7c0,4.7,3.8,8.5,8.5,8.5c0.4,0,0.7,0.3,0.7,0.7s-0.3,0.7-0.7,0.7l0,0c-4.7,0-8.5,3.8-8.5,8.5
		c0,0.4-0.3,0.7-0.7,0.7c-0.4,0-0.7-0.3-0.7-0.7c0,0,0,0,0,0c0-4.7-3.8-8.5-8.5-8.5C11.3-1727.5,11-1727.8,11-1728.3
		C11-1728.2,11-1728.3,11-1728.3"/>
</g>
<g id="Group_413" transform="translate(-11 3098.521)">
	<g class="st0">
		<path d="M19-2178.8c1.5,0,2.8,0.5,3.8,1.4c1.1-0.9,2.4-1.4,3.9-1.4H34v6h-8.2v2.1H34v6H11.6v-8.1c0-3.3,2.7-6,6-6H19z
			 M17.6-2172.8v2.1h2.2v-2.1H17.6z"/>
		<path d="M17.6-2201.2H28c3.3,0,6,2.7,6,6v2.1c0,3.3-2.7,6-6,6H17.6c-3.3,0-6-2.7-6-6v-2.1C11.6-2198.5,14.3-2201.2,17.6-2201.2z
			 M17.6-2195.2v2.1H28v-2.1H17.6z"/>
		<path d="M11.6-2223.6H34v6h-8.2v2.1H34v6H17.6c-3.3,0-6-2.7-6-6V-2223.6z M17.6-2217.6v2.1h2.2v-2.1H17.6z"/>
		<path d="M17.6-2246.1H28c3.3,0,6,2.7,6,6v8.1H11.6v-6v-2.1C11.6-2243.4,14.3-2246.1,17.6-2246.1z M17.6-2240.1v2.1H28v-2.1H17.6z"
			/>
		<path d="M17.6-2276.6H34v6H17.6v2.1H34v6H17.6v2.1H34v6H11.6v-16.2C11.6-2273.9,14.3-2276.6,17.6-2276.6z"/>
		<path d="M11.6-2299H34v6h-8.2v2.1H34v6H17.6c-3.3,0-6-2.7-6-6V-2299z M17.6-2293v2.1h2.2v-2.1H17.6z"/>
		<path d="M17.6-2321.5h2.2c3.3,0,6,2.7,6,6v2.1H34v6H11.6v-6v-2.1C11.6-2318.8,14.3-2321.5,17.6-2321.5z M17.6-2315.5v2.1h2.2v-2.1
			H17.6z"/>
	</g>
	<g class="st0">
		<path d="M19-2437.8c1.5,0,2.8,0.5,3.8,1.4c1.1-0.9,2.4-1.4,3.9-1.4H34v6h-8.2v2.1H34v6H11.6v-8.1c0-3.3,2.7-6,6-6H19z
			 M17.6-2431.8v2.1h2.2v-2.1H17.6z"/>
		<path d="M17.6-2460.2H28c3.3,0,6,2.7,6,6v2.1c0,3.3-2.7,6-6,6H17.6c-3.3,0-6-2.7-6-6v-2.1C11.6-2457.6,14.3-2460.2,17.6-2460.2z
			 M17.6-2454.2v2.1H28v-2.1H17.6z"/>
		<path d="M11.6-2482.7H34v6h-8.2v2.1H34v6H17.6c-3.3,0-6-2.7-6-6V-2482.7z M17.6-2476.7v2.1h2.2v-2.1H17.6z"/>
		<path d="M17.6-2505.1H28c3.3,0,6,2.7,6,6v8.1H11.6v-6v-2.1C11.6-2502.4,14.3-2505.1,17.6-2505.1z M17.6-2499.1v2.1H28v-2.1H17.6z"
			/>
		<path d="M17.6-2535.6H34v6H17.6v2.1H34v6H17.6v2.1H34v6H11.6v-16.2C11.6-2532.9,14.3-2535.6,17.6-2535.6z"/>
		<path d="M11.6-2558H34v6h-8.2v2.1H34v6H17.6c-3.3,0-6-2.7-6-6V-2558z M17.6-2552.1v2.1h2.2v-2.1H17.6z"/>
		<path d="M17.6-2580.5h2.2c3.3,0,6,2.7,6,6v2.1H34v6H11.6v-6v-2.1C11.6-2577.8,14.3-2580.5,17.6-2580.5z M17.6-2574.5v2.1h2.2v-2.1
			H17.6z"/>
	</g>
	<g class="st0">
		<path d="M19-2696.8c1.5,0,2.8,0.5,3.8,1.4c1.1-0.9,2.4-1.4,3.9-1.4H34v6h-8.2v2.1H34v6H11.6v-8.1c0-3.3,2.7-6,6-6H19z
			 M17.6-2690.8v2.1h2.2v-2.1H17.6z"/>
		<path d="M17.6-2719.2H28c3.3,0,6,2.7,6,6v2.1c0,3.3-2.7,6-6,6H17.6c-3.3,0-6-2.7-6-6v-2.1C11.6-2716.6,14.3-2719.2,17.6-2719.2z
			 M17.6-2713.3v2.1H28v-2.1H17.6z"/>
		<path d="M11.6-2741.7H34v6h-8.2v2.1H34v6H17.6c-3.3,0-6-2.7-6-6V-2741.7z M17.6-2735.7v2.1h2.2v-2.1H17.6z"/>
		<path d="M17.6-2764.1H28c3.3,0,6,2.7,6,6v8.1H11.6v-6v-2.1C11.6-2761.4,14.3-2764.1,17.6-2764.1z M17.6-2758.1v2.1H28v-2.1H17.6z"
			/>
		<path d="M17.6-2794.6H34v6H17.6v2.1H34v6H17.6v2.1H34v6H11.6v-16.2C11.6-2791.9,14.3-2794.6,17.6-2794.6z"/>
		<path d="M11.6-2817.1H34v6h-8.2v2.1H34v6H17.6c-3.3,0-6-2.7-6-6V-2817.1z M17.6-2811.1v2.1h2.2v-2.1H17.6z"/>
		<path d="M17.6-2839.5h2.2c3.3,0,6,2.7,6,6v2.1H34v6H11.6v-6v-2.1C11.6-2836.8,14.3-2839.5,17.6-2839.5z M17.6-2833.5v2.1h2.2v-2.1
			H17.6z"/>
	</g>
	<g class="st0">
		<path d="M19-2955.8c1.5,0,2.8,0.5,3.8,1.4c1.1-0.9,2.4-1.4,3.9-1.4H34v6h-8.2v2.1H34v6H11.6v-8.1c0-3.3,2.7-6,6-6H19z
			 M17.6-2949.9v2.1h2.2v-2.1H17.6z"/>
		<path d="M17.6-2978.3H28c3.3,0,6,2.7,6,6v2.1c0,3.3-2.7,6-6,6H17.6c-3.3,0-6-2.7-6-6v-2.1C11.6-2975.6,14.3-2978.3,17.6-2978.3z
			 M17.6-2972.3v2.1H28v-2.1H17.6z"/>
		<path d="M11.6-3000.7H34v6h-8.2v2.1H34v6H17.6c-3.3,0-6-2.7-6-6V-3000.7z M17.6-2994.7v2.1h2.2v-2.1H17.6z"/>
		<path d="M17.6-3023.1H28c3.3,0,6,2.7,6,6v8.1H11.6v-6v-2.1C11.6-3020.4,14.3-3023.1,17.6-3023.1z M17.6-3017.1v2.1H28v-2.1H17.6z"
			/>
		<path d="M17.6-3053.7H34v6H17.6v2.1H34v6H17.6v2.1H34v6H11.6v-16.2C11.6-3051,14.3-3053.7,17.6-3053.7z"/>
		<path d="M11.6-3076.1H34v6h-8.2v2.1H34v6H17.6c-3.3,0-6-2.7-6-6V-3076.1z M17.6-3070.1v2.1h2.2v-2.1H17.6z"/>
		<path d="M17.6-3098.5h2.2c3.3,0,6,2.7,6,6v2.1H34v6H11.6v-6v-2.1C11.6-3095.9,14.3-3098.5,17.6-3098.5z M17.6-3092.5v2.1h2.2v-2.1
			H17.6z"/>
	</g>
	<path id="svgviewer-output-9" d="M11-2113.7c0-0.4,0.3-0.7,0.7-0.7c0,0,0,0,0,0c4.7,0,8.5-3.8,8.5-8.5c0-0.4,0.3-0.7,0.7-0.7
		s0.7,0.3,0.7,0.7c0,4.7,3.8,8.5,8.5,8.5c0.4,0,0.7,0.3,0.7,0.7s-0.3,0.7-0.7,0.7l0,0c-4.7,0-8.5,3.8-8.5,8.5c0,0.4-0.3,0.7-0.7,0.7
		s-0.7-0.3-0.7-0.7c0,0,0,0,0,0c0-4.7-3.8-8.5-8.5-8.5C11.3-2113,11-2113.3,11-2113.7C11-2113.7,11-2113.7,11-2113.7"/>
	<path id="svgviewer-output-10" d="M11-2372.7c0-0.4,0.3-0.7,0.7-0.7c0,0,0,0,0,0c4.7,0,8.5-3.8,8.5-8.5c0-0.4,0.3-0.7,0.7-0.7
		s0.7,0.3,0.7,0.7c0,4.7,3.8,8.5,8.5,8.5c0.4,0,0.7,0.3,0.7,0.7s-0.3,0.7-0.7,0.7l0,0c-4.7,0-8.5,3.8-8.5,8.5c0,0.4-0.3,0.7-0.7,0.7
		c-0.4,0-0.7-0.3-0.7-0.7c0,0,0,0,0,0c0-4.7-3.8-8.5-8.5-8.5C11.3-2372,11-2372.3,11-2372.7C11-2372.7,11-2372.7,11-2372.7"/>
	<path id="svgviewer-output-11" d="M11-2631.8c0-0.4,0.3-0.7,0.7-0.7c0,0,0,0,0,0c4.7,0,8.5-3.8,8.5-8.5c0-0.4,0.3-0.7,0.7-0.7
		s0.7,0.3,0.7,0.7c0,4.7,3.8,8.5,8.5,8.5c0.4,0,0.7,0.3,0.7,0.7s-0.3,0.7-0.7,0.7l0,0c-4.7,0-8.5,3.8-8.5,8.5c0,0.4-0.3,0.7-0.7,0.7
		c-0.4,0-0.7-0.3-0.7-0.7c0,0,0,0,0,0c0-4.7-3.8-8.5-8.5-8.5C11.3-2631,11-2631.3,11-2631.8C11-2631.8,11-2631.8,11-2631.8"/>
	<path id="svgviewer-output-12" d="M11-2890.8c0-0.4,0.3-0.7,0.7-0.7c0,0,0,0,0,0c4.7,0,8.5-3.8,8.5-8.5c0-0.4,0.3-0.7,0.7-0.7
		s0.7,0.3,0.7,0.7c0,4.7,3.8,8.5,8.5,8.5c0.4,0,0.7,0.3,0.7,0.7s-0.3,0.7-0.7,0.7l0,0c-4.7,0-8.5,3.8-8.5,8.5c0,0.4-0.3,0.7-0.7,0.7
		c-0.4,0-0.7-0.3-0.7-0.7c0,0,0,0,0,0c0-4.7-3.8-8.5-8.5-8.5C11.3-2890,11-2890.4,11-2890.8C11-2890.8,11-2890.8,11-2890.8"/>
</g>
</svg>
