<?xml version="1.0" encoding="UTF-8"?><svg id="Layer_1" xmlns="http://www.w3.org/2000/svg" viewBox="0 0 23 1018.48"><defs><style>.cls-1{fill:#fff;}</style></defs><g id="Group_476"><g id="Group_472"><path id="svgviewer-output" class="cls-1" d="M0,1008.48c0-.4,.32-.73,.73-.74,0,0,0,0,.01,0,4.7,0,8.5-3.81,8.51-8.51,0-.41,.33-.74,.74-.74s.74,.33,.74,.74c0,4.7,3.81,8.51,8.51,8.51,.41,0,.74,.33,.74,.74s-.33,.74-.74,.74h0c-4.7,0-8.5,3.81-8.51,8.51,0,.41-.33,.74-.74,.74-.41,0-.74-.33-.74-.74h0c0-4.7-3.81-8.51-8.51-8.51-.4,0-.74-.32-.74-.72,0,0,0-.01,0-.02"/></g><g id="Group_473"><path id="svgviewer-output-2" class="cls-1" d="M0,735.47c0-.4,.32-.73,.73-.74,0,0,0,0,.01,0,4.7,0,8.5-3.81,8.51-8.51,0-.41,.33-.74,.74-.74s.74,.33,.74,.74c0,4.7,3.81,8.51,8.51,8.51,.41,0,.74,.33,.74,.74s-.33,.74-.74,.74h0c-4.7,0-8.5,3.81-8.51,8.51,0,.41-.33,.74-.74,.74-.41,0-.74-.33-.74-.74h0c0-4.7-3.81-8.51-8.51-8.51-.4,0-.74-.32-.74-.72,0,0,0-.01,0-.02"/></g><g id="Group_474"><path id="svgviewer-output-3" class="cls-1" d="M0,462.46c0-.4,.32-.73,.73-.74,0,0,0,0,.01,0,4.7,0,8.5-3.81,8.51-8.51,0-.41,.33-.74,.74-.74s.74,.33,.74,.74c0,4.7,3.81,8.51,8.51,8.51,.41,0,.74,.33,.74,.74s-.33,.74-.74,.74h0c-4.7,0-8.5,3.81-8.51,8.51,0,.41-.33,.74-.74,.74-.41,0-.74-.33-.74-.74h0c0-4.7-3.81-8.51-8.51-8.51-.4,0-.74-.32-.74-.72,0,0,0-.01,0-.02"/></g><g id="Group_475"><path id="svgviewer-output-4" class="cls-1" d="M0,201.46c0-.4,.32-.73,.73-.74,0,0,0,0,.01,0,4.7,0,8.5-3.81,8.51-8.51,0-.41,.33-.74,.74-.74s.74,.33,.74,.74c0,4.7,3.81,8.51,8.51,8.51,.41,0,.74,.33,.74,.74s-.33,.74-.74,.74h0c-4.7,0-8.5,3.81-8.51,8.51,0,.41-.33,.74-.74,.74-.41,0-.74-.33-.74-.74h0c0-4.7-3.81-8.51-8.51-8.51-.4,0-.74-.32-.74-.72,0,0,0-.01,0-.02"/></g></g></svg>