<?xml version="1.0" encoding="UTF-8"?><svg id="Layer_1" xmlns="http://www.w3.org/2000/svg" viewBox="0 0 25.33 1016.06"><g id="Group_500"><g id="Group_472"><path id="svgviewer-output" d="M0,856.07c0-.4,.32-.73,.73-.74,0,0,0,0,.01,0,4.7,0,8.5-3.81,8.51-8.51,0-.41,.33-.74,.74-.74s.74,.33,.74,.74c0,4.7,3.81,8.51,8.51,8.51,.41,0,.74,.33,.74,.74s-.33,.74-.74,.74h0c-4.7,0-8.5,3.81-8.51,8.51,0,.41-.33,.74-.74,.74-.41,0-.74-.33-.74-.74h0c0-4.7-3.81-8.51-8.51-8.51-.4,0-.74-.32-.74-.72,0,0,0-.01,0-.02"/></g><g id="Group_506"><path id="svgviewer-output-2" d="M0,1006.07c0-.4,.32-.73,.73-.74,0,0,0,0,.01,0,4.7,0,8.5-3.81,8.51-8.51,0-.41,.33-.74,.74-.74s.74,.33,.74,.74c0,4.7,3.81,8.51,8.51,8.51,.41,0,.74,.33,.74,.74s-.33,.74-.74,.74h0c-4.7,0-8.5,3.81-8.51,8.51,0,.41-.33,.74-.74,.74-.41,0-.74-.33-.74-.74h0c0-4.7-3.81-8.51-8.51-8.51-.4,0-.74-.32-.74-.72,0,0,0-.01,0-.02"/></g><g id="Group_501"><path id="svgviewer-output-3" d="M0,706.07c0-.4,.32-.73,.73-.74,0,0,0,0,.01,0,4.7,0,8.5-3.81,8.51-8.51,0-.41,.33-.74,.74-.74s.74,.33,.74,.74c0,4.7,3.81,8.51,8.51,8.51,.41,0,.74,.33,.74,.74s-.33,.74-.74,.74h0c-4.7,0-8.5,3.81-8.51,8.51,0,.41-.33,.74-.74,.74-.41,0-.74-.33-.74-.74h0c0-4.7-3.81-8.51-8.51-8.51-.4,0-.74-.32-.74-.72,0,0,0-.01,0-.02"/></g><g id="Group_502"><path id="svgviewer-output-4" d="M0,556.07c0-.4,.32-.73,.73-.74,0,0,0,0,.01,0,4.7,0,8.5-3.81,8.51-8.51,0-.41,.33-.74,.74-.74s.74,.33,.74,.74c0,4.7,3.81,8.51,8.51,8.51,.41,0,.74,.33,.74,.74s-.33,.74-.74,.74h0c-4.7,0-8.5,3.81-8.51,8.51,0,.41-.33,.74-.74,.74-.41,0-.74-.33-.74-.74h0c0-4.7-3.81-8.51-8.51-8.51-.4,0-.74-.32-.74-.72,0,0,0-.01,0-.02"/></g><g id="Group_503"><path id="svgviewer-output-5" d="M0,406.07c0-.4,.32-.73,.73-.74,0,0,0,0,.01,0,4.7,0,8.5-3.81,8.51-8.51,0-.41,.33-.74,.74-.74s.74,.33,.74,.74c0,4.7,3.81,8.51,8.51,8.51,.41,0,.74,.33,.74,.74s-.33,.74-.74,.74h0c-4.7,0-8.5,3.81-8.51,8.51,0,.41-.33,.74-.74,.74-.41,0-.74-.33-.74-.74h0c0-4.7-3.81-8.51-8.51-8.51-.4,0-.74-.32-.74-.72,0,0,0-.01,0-.02"/></g><g id="Group_504"><path id="svgviewer-output-6" d="M0,256.07c0-.4,.32-.73,.73-.74,0,0,0,0,.01,0,4.7,0,8.5-3.81,8.51-8.51,0-.41,.33-.74,.74-.74s.74,.33,.74,.74c0,4.7,3.81,8.51,8.51,8.51,.41,0,.74,.33,.74,.74s-.33,.74-.74,.74h0c-4.7,0-8.5,3.81-8.51,8.51,0,.41-.33,.74-.74,.74-.41,0-.74-.33-.74-.74h0c0-4.7-3.81-8.51-8.51-8.51-.4,0-.74-.32-.74-.72,0,0,0-.01,0-.02"/></g><g id="Group_505"><path id="svgviewer-output-7" d="M0,106.07c0-.4,.32-.73,.73-.74,0,0,0,0,.01,0,4.7,0,8.5-3.81,8.51-8.51,0-.41,.33-.74,.74-.74s.74,.33,.74,.74c0,4.7,3.81,8.51,8.51,8.51,.41,0,.74,.33,.74,.74s-.33,.74-.74,.74h0c-4.7,0-8.5,3.81-8.51,8.51,0,.41-.33,.74-.74,.74-.41,0-.74-.33-.74-.74h0c0-4.7-3.81-8.51-8.51-8.51-.4,0-.74-.32-.74-.72,0,0,0-.01,0-.02"/></g></g></svg>