<svg xmlns="http://www.w3.org/2000/svg" width="38" height="1042.021" viewBox="0 0 38 1042.021">
  <g id="Group_405" data-name="Group 405" transform="translate(-11 -62)">
    <text id="abour_project" data-name="abour project" transform="translate(43 324) rotate(-90)" fill="#fff" font-size="32" font-family="Ranger-Regular, Ranger" letter-spacing="0.2em"><tspan x="0" y="0">abour project</tspan></text>
    <text id="about_project" data-name="about project" transform="translate(43 1044) rotate(-90)" fill="#fff" font-size="32" font-family="Ranger-Regular, Ranger" letter-spacing="0.2em"><tspan x="0" y="0">about project</tspan></text>
    <text id="abour_project-2" data-name="abour project" transform="translate(43 685) rotate(-90)" fill="#fff" font-size="32" font-family="Ranger-Regular, Ranger" letter-spacing="0.2em"><tspan x="0" y="0">abour project</tspan></text>
    <path id="svgviewer-output" d="M0,9.632a.732.732,0,0,1,.74-.738A8.524,8.524,0,0,0,9.251.382a.74.74,0,1,1,1.48,0,8.52,8.52,0,0,0,8.508,8.512.74.74,0,1,1,0,1.48,8.521,8.521,0,0,0-8.51,8.51.74.74,0,1,1-1.48,0,8.521,8.521,0,0,0-8.51-8.51A.732.732,0,0,1,0,9.632" transform="translate(20.001 725.377)" fill="#fff"/>
    <path id="svgviewer-output-2" data-name="svgviewer-output" d="M0,9.632a.732.732,0,0,1,.74-.738A8.524,8.524,0,0,0,9.251.382a.74.74,0,1,1,1.48,0,8.52,8.52,0,0,0,8.508,8.512.74.74,0,1,1,0,1.48,8.521,8.521,0,0,0-8.51,8.51.74.74,0,1,1-1.48,0,8.521,8.521,0,0,0-8.51-8.51A.732.732,0,0,1,0,9.632" transform="translate(20.001 1084.378)" fill="#fff"/>
    <path id="svgviewer-output-3" data-name="svgviewer-output" d="M0,9.632a.732.732,0,0,1,.74-.738A8.524,8.524,0,0,0,9.251.382a.74.74,0,1,1,1.48,0,8.52,8.52,0,0,0,8.508,8.512.74.74,0,1,1,0,1.48,8.521,8.521,0,0,0-8.51,8.51.74.74,0,1,1-1.48,0,8.521,8.521,0,0,0-8.51-8.51A.732.732,0,0,1,0,9.632" transform="translate(20.001 364.377)" fill="#fff"/>
  </g>
</svg>
