<svg id="Layer_1" data-name="Layer 1" xmlns="http://www.w3.org/2000/svg" viewBox="0 0 23 1018.48"><defs><style>.cls-1{isolation:isolate;}.cls-2{fill:#fff;}</style></defs><g id="Group_476" data-name="Group 476"><g id="Group_472" data-name="Group 472"><g id="benefits" class="cls-1"><g class="cls-1"><path class="cls-2" d="M8,943.4a5.81,5.81,0,0,1,3.84,1.41,6,6,0,0,1,3.87-1.41H17a6,6,0,0,1,6,6v8.12H.6v-8.12a6,6,0,0,1,6-6Zm-1.38,6v2.11H8.79v-2.11Zm8.23,0v2.11H17v-2.11Z"/><path class="cls-2" d="M6.58,928.81H8.79v-4.29h6v4.29H17v-4.29h6v10.27H.6V924.52h6Z"/><path class="cls-2" d="M6.62,901.8H23v6H6.58v2.11H23v6H.6v-8.13A6,6,0,0,1,6.62,901.8Z"/><path class="cls-2" d="M6.58,887.21H8.79v-4.29h6v4.29H17v-4.29h6V893.2H.6V882.92h6Z"/><path class="cls-2" d="M6.58,868.33H8.79V864h6v4.29H23v6H.6V864h6Z"/><path class="cls-2" d="M23,849.74v6H.6v-6Z"/><path class="cls-2" d="M.6,828.59h6V832H23v6H6.58v3.42H.6Z"/><path class="cls-2" d="M14.81,807H17a6,6,0,0,1,6,6v6.72H17V813H14.81v1.44h0a6,6,0,0,1-6,5.83H6.58a6,6,0,0,1-6-6V807.6h6v6.69H8.82v-1.41A6,6,0,0,1,14.81,807Z"/></g></g><path id="svgviewer-output" class="cls-2" d="M0,1008.48a.73.73,0,0,1,.73-.73h0a8.53,8.53,0,0,0,8.51-8.52.74.74,0,0,1,1.48,0,8.53,8.53,0,0,0,8.51,8.52.74.74,0,0,1,0,1.48h0a8.52,8.52,0,0,0-8.51,8.51.74.74,0,0,1-1.48,0h0a8.52,8.52,0,0,0-8.51-8.51.73.73,0,0,1-.74-.73v0"/></g><g id="Group_473" data-name="Group 473"><g id="benefits-2" class="cls-1"><g class="cls-1"><path class="cls-2" d="M8,670.39a5.76,5.76,0,0,1,3.84,1.41,5.92,5.92,0,0,1,3.87-1.41H17a6,6,0,0,1,6,6v8.12H.6v-8.12a6,6,0,0,1,6-6Zm-1.38,6v2.11H8.79v-2.11Zm8.23,0v2.11H17v-2.11Z"/><path class="cls-2" d="M6.58,655.8H8.79v-4.29h6v4.29H17v-4.29h6v10.27H.6V651.51h6Z"/><path class="cls-2" d="M6.62,628.79H23v6H6.58v2.11H23v6H.6v-8.12A6,6,0,0,1,6.62,628.79Z"/><path class="cls-2" d="M6.58,614.2H8.79v-4.29h6v4.29H17v-4.29h6v10.27H.6V609.91h6Z"/><path class="cls-2" d="M6.58,595.32H8.79V591h6v4.29H23v6H.6V591h6Z"/><path class="cls-2" d="M23,576.73v6H.6v-6Z"/><path class="cls-2" d="M.6,555.58h6V559H23v6H6.58v3.42H.6Z"/><path class="cls-2" d="M14.81,534H17a6,6,0,0,1,6,6v6.72H17V540H14.81v1.44h0a6,6,0,0,1-6,5.83H6.58a6,6,0,0,1-6-6v-6.68h6v6.68H8.82v-1.4A6,6,0,0,1,14.81,534Z"/></g></g><path id="svgviewer-output-2" class="cls-2" d="M0,735.47a.74.74,0,0,1,.73-.74h0a8.52,8.52,0,0,0,8.51-8.51.74.74,0,0,1,1.48,0,8.52,8.52,0,0,0,8.51,8.51.74.74,0,0,1,0,1.48h0a8.53,8.53,0,0,0-8.51,8.51.74.74,0,1,1-1.48,0h0a8.53,8.53,0,0,0-8.51-8.51.72.72,0,0,1-.74-.72v0"/></g><g id="Group_474" data-name="Group 474"><g id="benefits-3" class="cls-1"><g class="cls-1"><path class="cls-2" d="M8,397.38a5.76,5.76,0,0,1,3.84,1.41,5.92,5.92,0,0,1,3.87-1.41H17a6,6,0,0,1,6,6v8.12H.6v-8.12a6,6,0,0,1,6-6Zm-1.38,6v2.11H8.79v-2.11Zm8.23,0v2.11H17v-2.11Z"/><path class="cls-2" d="M6.58,382.79H8.79V378.5h6v4.29H17V378.5h6v10.27H.6V378.5h6Z"/><path class="cls-2" d="M6.62,355.78H23v6H6.58v2.11H23v6H.6v-8.12A6,6,0,0,1,6.62,355.78Z"/><path class="cls-2" d="M6.58,341.19H8.79V336.9h6v4.29H17V336.9h6v10.27H.6V336.9h6Z"/><path class="cls-2" d="M6.58,322.31H8.79V318h6v4.29H23v6H.6V318h6Z"/><path class="cls-2" d="M23,303.72v6H.6v-6Z"/><path class="cls-2" d="M.6,282.57h6V286H23v6H6.58v3.42H.6Z"/><path class="cls-2" d="M14.81,261H17a6,6,0,0,1,6,6v6.72H17V267H14.81v1.44h0a6,6,0,0,1-6,5.83H6.58a6,6,0,0,1-6-6v-6.68h6v6.68H8.82v-1.4A6,6,0,0,1,14.81,261Z"/></g></g><path id="svgviewer-output-3" class="cls-2" d="M0,462.46a.74.74,0,0,1,.73-.74h0a8.52,8.52,0,0,0,8.51-8.51.74.74,0,0,1,1.48,0,8.52,8.52,0,0,0,8.51,8.51.74.74,0,1,1,0,1.48h0a8.53,8.53,0,0,0-8.51,8.51.74.74,0,1,1-1.48,0h0A8.53,8.53,0,0,0,.74,463.2a.72.72,0,0,1-.74-.72v0"/></g><g id="Group_475" data-name="Group 475"><g id="benefits-4" class="cls-1"><g class="cls-1"><path class="cls-2" d="M8,136.38a5.76,5.76,0,0,1,3.84,1.41,5.92,5.92,0,0,1,3.87-1.41H17a6,6,0,0,1,6,6v8.12H.6v-8.12a6,6,0,0,1,6-6Zm-1.38,6v2.11H8.79v-2.11Zm8.23,0v2.11H17v-2.11Z"/><path class="cls-2" d="M6.58,121.79H8.79V117.5h6v4.29H17V117.5h6v10.27H.6V117.5h6Z"/><path class="cls-2" d="M6.62,94.78H23v6H6.58v2.11H23v6H.6v-8.12A6,6,0,0,1,6.62,94.78Z"/><path class="cls-2" d="M6.58,80.19H8.79V75.9h6v4.29H17V75.9h6V86.17H.6V75.9h6Z"/><path class="cls-2" d="M6.58,61.31H8.79V57h6v4.29H23v6H.6V57h6Z"/><path class="cls-2" d="M23,42.72v6H.6v-6Z"/><path class="cls-2" d="M.6,21.57h6V25H23v6H6.58V34.4H.6Z"/><path class="cls-2" d="M14.81,0H17a6,6,0,0,1,6,6V12.7H17V6H14.81V7.42h0a6,6,0,0,1-6,5.83H6.58a6,6,0,0,1-6-6V.58h6V7.26H8.82V5.86A6,6,0,0,1,14.81,0Z"/></g></g><path id="svgviewer-output-4" class="cls-2" d="M0,201.46a.74.74,0,0,1,.73-.74h0a8.52,8.52,0,0,0,8.51-8.51.74.74,0,1,1,1.48,0,8.52,8.52,0,0,0,8.51,8.51.74.74,0,0,1,0,1.48h0a8.53,8.53,0,0,0-8.51,8.51.74.74,0,1,1-1.48,0h0A8.53,8.53,0,0,0,.74,202.2a.72.72,0,0,1-.74-.72v0"/></g></g></svg>