<svg id="Layer_1" data-name="Layer 1" xmlns="http://www.w3.org/2000/svg" viewBox="0 0 25.33 1016.06"><defs><style>.cls-1{isolation:isolate;}</style></defs><g id="Group_500" data-name="Group 500"><g id="Group_472" data-name="Group 472"><g id="FAQ" class="cls-1"><g class="cls-1"><path d="M6.58,799.12H8.79v-4.29h6v4.29H23v6H.6V794.83h6Z"/><path d="M.6,772.4H23v6H14.81v2.15H23v6H6.58a6,6,0,0,1-6-6Zm6,6v2.15H8.79v-2.15Z"/><path d="M6.58,750H25.33v6H23v2.12a6,6,0,0,1-6,6H6.58a6,6,0,0,1-6-6V756A6,6,0,0,1,6.58,750Zm0,6v2.12H17V756Z"/></g></g><path id="svgviewer-output" d="M0,856.07a.74.74,0,0,1,.73-.74h0a8.52,8.52,0,0,0,8.51-8.51.74.74,0,0,1,1.48,0,8.52,8.52,0,0,0,8.51,8.51.74.74,0,1,1,0,1.48h0a8.53,8.53,0,0,0-8.51,8.51.74.74,0,0,1-.74.74.73.73,0,0,1-.74-.73h0a8.53,8.53,0,0,0-8.51-8.51.72.72,0,0,1-.74-.72v0"/></g><g id="Group_506" data-name="Group 506"><g id="FAQ-2" class="cls-1"><g class="cls-1"><path d="M6.58,949.12H8.79v-4.29h6v4.29H23v6H.6V944.83h6Z"/><path d="M.6,922.4H23v6H14.81v2.15H23v6H6.58a6,6,0,0,1-6-6Zm6,6v2.15H8.79v-2.15Z"/><path d="M6.58,900H25.33v6H23v2.12a6,6,0,0,1-6,6H6.58a6,6,0,0,1-6-6V906A6,6,0,0,1,6.58,900Zm0,6v2.12H17V906Z"/></g></g><path id="svgviewer-output-2" d="M0,1006.07a.74.74,0,0,1,.73-.74h0a8.52,8.52,0,0,0,8.51-8.51.74.74,0,0,1,1.48,0,8.52,8.52,0,0,0,8.51,8.51.74.74,0,1,1,0,1.48h0a8.53,8.53,0,0,0-8.51,8.51.74.74,0,0,1-.74.74.73.73,0,0,1-.74-.73h0a8.53,8.53,0,0,0-8.51-8.51.72.72,0,0,1-.74-.72v0"/></g><g id="Group_501" data-name="Group 501"><g id="FAQ-3" class="cls-1"><g class="cls-1"><path d="M6.58,649.12H8.79v-4.29h6v4.29H23v6H.6V644.83h6Z"/><path d="M.6,622.4H23v6H14.81v2.15H23v6H6.58a6,6,0,0,1-6-6Zm6,6v2.15H8.79v-2.15Z"/><path d="M6.58,600H25.33v6H23v2.12a6,6,0,0,1-6,6H6.58a6,6,0,0,1-6-6V606A6,6,0,0,1,6.58,600Zm0,6v2.12H17V606Z"/></g></g><path id="svgviewer-output-3" d="M0,706.07a.74.74,0,0,1,.73-.74h0a8.52,8.52,0,0,0,8.51-8.51.74.74,0,0,1,1.48,0,8.52,8.52,0,0,0,8.51,8.51.74.74,0,1,1,0,1.48h0a8.53,8.53,0,0,0-8.51,8.51.74.74,0,0,1-.74.74.73.73,0,0,1-.74-.73h0a8.53,8.53,0,0,0-8.51-8.51.72.72,0,0,1-.74-.72v0"/></g><g id="Group_502" data-name="Group 502"><g id="FAQ-4" class="cls-1"><g class="cls-1"><path d="M6.58,499.12H8.79v-4.29h6v4.29H23v6H.6V494.83h6Z"/><path d="M.6,472.4H23v6H14.81v2.15H23v6H6.58a6,6,0,0,1-6-6Zm6,6v2.15H8.79v-2.15Z"/><path d="M6.58,450H25.33v6H23v2.12a6,6,0,0,1-6,6H6.58a6,6,0,0,1-6-6V456A6,6,0,0,1,6.58,450Zm0,6v2.12H17V456Z"/></g></g><path id="svgviewer-output-4" d="M0,556.07a.74.74,0,0,1,.73-.74h0a8.52,8.52,0,0,0,8.51-8.51.74.74,0,0,1,1.48,0,8.52,8.52,0,0,0,8.51,8.51.74.74,0,1,1,0,1.48h0a8.53,8.53,0,0,0-8.51,8.51.74.74,0,0,1-.74.74.73.73,0,0,1-.74-.73h0a8.53,8.53,0,0,0-8.51-8.51.72.72,0,0,1-.74-.72v0"/></g><g id="Group_503" data-name="Group 503"><g id="FAQ-5" class="cls-1"><g class="cls-1"><path d="M6.58,349.12H8.79v-4.29h6v4.29H23v6H.6V344.83h6Z"/><path d="M.6,322.4H23v6H14.81v2.15H23v6H6.58a6,6,0,0,1-6-6Zm6,6v2.15H8.79v-2.15Z"/><path d="M6.58,300H25.33v6H23v2.12a6,6,0,0,1-6,6H6.58a6,6,0,0,1-6-6V306A6,6,0,0,1,6.58,300Zm0,6v2.12H17V306Z"/></g></g><path id="svgviewer-output-5" d="M0,406.07a.74.74,0,0,1,.73-.74h0a8.52,8.52,0,0,0,8.51-8.51.74.74,0,0,1,1.48,0,8.52,8.52,0,0,0,8.51,8.51.74.74,0,0,1,0,1.48h0a8.53,8.53,0,0,0-8.51,8.51.74.74,0,0,1-.74.74.73.73,0,0,1-.74-.73h0a8.53,8.53,0,0,0-8.51-8.51.72.72,0,0,1-.74-.72v0"/></g><g id="Group_504" data-name="Group 504"><g id="FAQ-6" class="cls-1"><g class="cls-1"><path d="M6.58,199.12H8.79v-4.29h6v4.29H23v6H.6V194.83h6Z"/><path d="M.6,172.4H23v6H14.81v2.15H23v6H6.58a6,6,0,0,1-6-6Zm6,6v2.15H8.79v-2.15Z"/><path d="M6.58,150H25.33v6H23v2.12a6,6,0,0,1-6,6H6.58a6,6,0,0,1-6-6V156A6,6,0,0,1,6.58,150Zm0,6v2.12H17V156Z"/></g></g><path id="svgviewer-output-6" d="M0,256.07a.74.74,0,0,1,.73-.74h0a8.52,8.52,0,0,0,8.51-8.51.74.74,0,0,1,1.48,0,8.52,8.52,0,0,0,8.51,8.51.74.74,0,0,1,0,1.48h0a8.53,8.53,0,0,0-8.51,8.51.74.74,0,0,1-.74.74.73.73,0,0,1-.74-.73h0a8.53,8.53,0,0,0-8.51-8.51.72.72,0,0,1-.74-.72v0"/></g><g id="Group_505" data-name="Group 505"><g id="FAQ-7" class="cls-1"><g class="cls-1"><path d="M6.58,49.12H8.79V44.83h6v4.29H23v6H.6V44.83h6Z"/><path d="M.6,22.4H23v6H14.81v2.15H23v6H6.58a6,6,0,0,1-6-6Zm6,6v2.15H8.79V28.38Z"/><path d="M6.58,0H25.33V6H23V8.1a6,6,0,0,1-6,6H6.58a6,6,0,0,1-6-6V6A6,6,0,0,1,6.58,0Zm0,6V8.1H17V6Z"/></g></g><path id="svgviewer-output-7" d="M0,106.07a.74.74,0,0,1,.73-.74h0a8.52,8.52,0,0,0,8.51-8.51.74.74,0,0,1,1.48,0,8.52,8.52,0,0,0,8.51,8.51.74.74,0,0,1,0,1.48h0a8.53,8.53,0,0,0-8.51,8.51.74.74,0,0,1-.74.74.73.73,0,0,1-.74-.73h0a8.53,8.53,0,0,0-8.51-8.51.72.72,0,0,1-.74-.72v0"/></g></g></svg>