<svg xmlns="http://www.w3.org/2000/svg" width="38" height="994" viewBox="0 0 38 994">
  <g id="Group_176" data-name="Group 176" transform="translate(-11 -35)">
    <text id="go_mars_rovers" data-name="go mars rovers" transform="translate(43 324) rotate(-90)" fill="#fff" font-size="32" font-family="Ranger-Regular, Ranger" letter-spacing="0.2em"><tspan x="0" y="0">go mars rovers</tspan></text>
    <text id="mars_rovers" data-name="mars rovers" transform="translate(43 1029) rotate(-90)" fill="#fff" font-size="32" font-family="Ranger-Regular, Ranger" letter-spacing="0.2em"><tspan x="0" y="0">mars rovers</tspan></text>
    <text id="go_mars_rovers-2" data-name="go mars rovers" transform="translate(43 705) rotate(-90)" fill="#fff" font-size="32" font-family="Ranger-Regular, Ranger" letter-spacing="0.2em"><tspan x="0" y="0">go mars rovers</tspan></text>
    <path id="svgviewer-output" d="M0,9.632a.732.732,0,0,1,.74-.738A8.524,8.524,0,0,0,9.251.382a.74.74,0,1,1,1.48,0,8.52,8.52,0,0,0,8.508,8.512.74.74,0,1,1,0,1.48,8.521,8.521,0,0,0-8.51,8.51.74.74,0,1,1-1.48,0,8.521,8.521,0,0,0-8.51-8.51A.732.732,0,0,1,0,9.632" transform="translate(20.001 741.378)" fill="#fff"/>
    <path id="svgviewer-output-2" data-name="svgviewer-output" d="M0,9.632a.732.732,0,0,1,.74-.738A8.524,8.524,0,0,0,9.251.382a.74.74,0,1,1,1.48,0,8.52,8.52,0,0,0,8.508,8.512.74.74,0,1,1,0,1.48,8.521,8.521,0,0,0-8.51,8.51.74.74,0,1,1-1.48,0,8.521,8.521,0,0,0-8.51-8.51A.732.732,0,0,1,0,9.632" transform="translate(20.001 360.378)" fill="#fff"/>
  </g>
</svg>
