<svg xmlns="http://www.w3.org/2000/svg" width="38" height="996.086" viewBox="0 0 38 996.086">
  <g id="Group_413" data-name="Group 413" transform="translate(-11 -107.936)">
    <text id="roadmap" transform="translate(43 1044) rotate(-90)" font-size="32" font-family="Ranger-Regular, Ranger" letter-spacing="0.2em"><tspan x="0" y="0">roadmap</tspan></text>
    <text id="roadmap-2" data-name="roadmap" transform="translate(43 784.979) rotate(-90)" font-size="32" font-family="Ranger-Regular, Ranger" letter-spacing="0.2em"><tspan x="0" y="0">roadmap</tspan></text>
    <text id="roadmap-3" data-name="roadmap" transform="translate(43 525.957) rotate(-90)" font-size="32" font-family="Ranger-Regular, Ranger" letter-spacing="0.2em"><tspan x="0" y="0">roadmap</tspan></text>
    <text id="roadmap-4" data-name="roadmap" transform="translate(43 266.936) rotate(-90)" font-size="32" font-family="Ranger-Regular, Ranger" letter-spacing="0.2em"><tspan x="0" y="0">roadmap</tspan></text>
    <path id="svgviewer-output" d="M0,9.632a.732.732,0,0,1,.74-.738A8.524,8.524,0,0,0,9.251.382a.74.74,0,1,1,1.48,0,8.52,8.52,0,0,0,8.508,8.512.74.74,0,1,1,0,1.48,8.521,8.521,0,0,0-8.51,8.51.74.74,0,1,1-1.48,0,8.521,8.521,0,0,0-8.51-8.51A.732.732,0,0,1,0,9.632" transform="translate(20.001 1084.378)"/>
    <path id="svgviewer-output-2" data-name="svgviewer-output" d="M0,9.632a.732.732,0,0,1,.74-.738A8.524,8.524,0,0,0,9.251.382a.74.74,0,1,1,1.48,0,8.52,8.52,0,0,0,8.508,8.512.74.74,0,1,1,0,1.48,8.521,8.521,0,0,0-8.51,8.51.74.74,0,1,1-1.48,0,8.521,8.521,0,0,0-8.51-8.51A.732.732,0,0,1,0,9.632" transform="translate(20.001 825.356)"/>
    <path id="svgviewer-output-3" data-name="svgviewer-output" d="M0,9.632a.732.732,0,0,1,.74-.738A8.524,8.524,0,0,0,9.251.382a.74.74,0,1,1,1.48,0,8.52,8.52,0,0,0,8.508,8.512.74.74,0,1,1,0,1.48,8.521,8.521,0,0,0-8.51,8.51.74.74,0,1,1-1.48,0,8.521,8.521,0,0,0-8.51-8.51A.732.732,0,0,1,0,9.632" transform="translate(20.001 566.335)"/>
    <path id="svgviewer-output-4" data-name="svgviewer-output" d="M0,9.632a.732.732,0,0,1,.74-.738A8.524,8.524,0,0,0,9.251.382a.74.74,0,1,1,1.48,0,8.52,8.52,0,0,0,8.508,8.512.74.74,0,1,1,0,1.48,8.521,8.521,0,0,0-8.51,8.51.74.74,0,1,1-1.48,0,8.521,8.521,0,0,0-8.51-8.51A.732.732,0,0,1,0,9.632" transform="translate(20.001 307.313)"/>
  </g>
</svg>
