<?xml version="1.0" encoding="utf-8"?>
<!-- Generator: Adobe Illustrator 27.0.1, SVG Export Plug-In . SVG Version: 6.00 Build 0)  -->
<svg version="1.1" id="Layer_1" xmlns="http://www.w3.org/2000/svg" xmlns:xlink="http://www.w3.org/1999/xlink" x="0px" y="0px"
	 viewBox="0 0 23.4 1023" style="enable-background:new 0 0 23.4 1023;" xml:space="preserve">
<style type="text/css">
	.st0{fill:#FFFFFF;}
</style>
<g id="Group_640" transform="translate(-18 -5434)">
	<g id="Group_634" transform="translate(-1566 3388)">
		<path id="Path_491" class="st0" d="M1584,2958h22.4v6h-8.2v2.1h8.2v6H1590c-3.3,0-6-2.7-6-6V2958z M1590,2963.9v2.1h2.2v-2.1H1590
			z"/>
		<path id="Path_489" class="st0" d="M1585,3002h6v3.4h16.4v6H1591v3.4h-6V3002z"/>
		<path id="Path_490" class="st0" d="M1591,2986.3h2.2v-4.3h6v4.3h2.2v-4.3h6v10.3H1585V2982h6V2986.3z"/>
		<path id="Path_492" class="st0" d="M1591,2926h16.4v6H1591v2.1h16.4v6H1591v2.1h16.4v6H1585V2932
			C1585,2928.7,1587.7,2926,1591,2926z"/>
	</g>
	<g id="Group_635" transform="translate(-1566 3212)">
		<path id="Path_491-2" class="st0" d="M1584,2958h22.4v6h-8.2v2.1h8.2v6H1590c-3.3,0-6-2.7-6-6V2958z M1590,2963.9v2.1h2.2v-2.1
			H1590z"/>
		<path id="Path_489-2" class="st0" d="M1585,3002h6v3.4h16.4v6H1591v3.4h-6V3002z"/>
		<path id="Path_490-2" class="st0" d="M1591,2986.3h2.2v-4.3h6v4.3h2.2v-4.3h6v10.3H1585V2982h6V2986.3z"/>
		<path id="Path_492-2" class="st0" d="M1591,2926h16.4v6H1591v2.1h16.4v6H1591v2.1h16.4v6H1585V2932
			C1585,2928.7,1587.7,2926,1591,2926z"/>
	</g>
	<g id="Group_636" transform="translate(-1566 3036)">
		<path id="Path_491-3" class="st0" d="M1584,2958h22.4v6h-8.2v2.1h8.2v6H1590c-3.3,0-6-2.7-6-6V2958z M1590,2963.9v2.1h2.2v-2.1
			H1590z"/>
		<path id="Path_489-3" class="st0" d="M1585,3002h6v3.4h16.4v6H1591v3.4h-6V3002z"/>
		<path id="Path_490-3" class="st0" d="M1591,2986.3h2.2v-4.3h6v4.3h2.2v-4.3h6v10.3H1585V2982h6V2986.3z"/>
		<path id="Path_492-3" class="st0" d="M1591,2926h16.4v6H1591v2.1h16.4v6H1591v2.1h16.4v6H1585V2932
			C1585,2928.7,1587.7,2926,1591,2926z"/>
	</g>
	<g id="Group_637" transform="translate(-1566 2860)">
		<path id="Path_491-4" class="st0" d="M1584,2958h22.4v6h-8.2v2.1h8.2v6H1590c-3.3,0-6-2.7-6-6V2958z M1590,2963.9v2.1h2.2v-2.1
			H1590z"/>
		<path id="Path_489-4" class="st0" d="M1585,3002h6v3.4h16.4v6H1591v3.4h-6V3002z"/>
		<path id="Path_490-4" class="st0" d="M1591,2986.3h2.2v-4.3h6v4.3h2.2v-4.3h6v10.3H1585V2982h6V2986.3z"/>
		<path id="Path_492-4" class="st0" d="M1591,2926h16.4v6H1591v2.1h16.4v6H1591v2.1h16.4v6H1585V2932
			C1585,2928.7,1587.7,2926,1591,2926z"/>
	</g>
	<g id="Group_638" transform="translate(-1566 2684)">
		<path id="Path_491-5" class="st0" d="M1584,2958h22.4v6h-8.2v2.1h8.2v6H1590c-3.3,0-6-2.7-6-6V2958z M1590,2963.9v2.1h2.2v-2.1
			H1590z"/>
		<path id="Path_489-5" class="st0" d="M1585,3002h6v3.4h16.4v6H1591v3.4h-6V3002z"/>
		<path id="Path_490-5" class="st0" d="M1591,2986.3h2.2v-4.3h6v4.3h2.2v-4.3h6v10.3H1585V2982h6V2986.3z"/>
		<path id="Path_492-5" class="st0" d="M1591,2926h16.4v6H1591v2.1h16.4v6H1591v2.1h16.4v6H1585V2932
			C1585,2928.7,1587.7,2926,1591,2926z"/>
	</g>
	<g id="Group_639" transform="translate(-1566 2508)">
		<path id="Path_491-6" class="st0" d="M1584,2958h22.4v6h-8.2v2.1h8.2v6H1590c-3.3,0-6-2.7-6-6V2958z M1590,2963.9v2.1h2.2v-2.1
			H1590z"/>
		<path id="Path_489-6" class="st0" d="M1585,3002h6v3.4h16.4v6H1591v3.4h-6V3002z"/>
		<path id="Path_490-6" class="st0" d="M1591,2986.3h2.2v-4.3h6v4.3h2.2v-4.3h6v10.3H1585V2982h6V2986.3z"/>
		<path id="Path_492-6" class="st0" d="M1591,2926h16.4v6H1591v2.1h16.4v6H1591v2.1h16.4v6H1585V2932
			C1585,2928.7,1587.7,2926,1591,2926z"/>
	</g>
	<path id="svgviewer-output" class="st0" d="M20,6447c0-0.4,0.3-0.7,0.7-0.7l0,0c4.7,0,8.5-3.8,8.5-8.5c0-0.4,0.3-0.7,0.7-0.7
		c0.4,0,0.7,0.3,0.7,0.7c0,4.7,3.8,8.5,8.5,8.5c0.4,0,0.7,0.3,0.7,0.7c0,0.4-0.3,0.7-0.7,0.7c0,0,0,0,0,0l0,0
		c-4.7,0-8.5,3.8-8.5,8.5c0,0.4-0.3,0.7-0.7,0.7c-0.4,0-0.7-0.3-0.7-0.7c0,0,0,0,0,0l0,0c0-4.7-3.8-8.5-8.5-8.5
		C20.3,6447.7,20,6447.4,20,6447C20,6447,20,6447,20,6447L20,6447"/>
	<path id="svgviewer-output-2" class="st0" d="M20,6270c0-0.4,0.3-0.7,0.7-0.7l0,0c4.7,0,8.5-3.8,8.5-8.5c0-0.4,0.3-0.7,0.7-0.7
		c0.4,0,0.7,0.3,0.7,0.7c0,4.7,3.8,8.5,8.5,8.5c0.4,0,0.7,0.3,0.7,0.7c0,0.4-0.3,0.7-0.7,0.7c0,0,0,0,0,0l0,0
		c-4.7,0-8.5,3.8-8.5,8.5c0,0.4-0.3,0.7-0.7,0.7c-0.4,0-0.7-0.3-0.7-0.7c0,0,0,0,0,0l0,0c0-4.7-3.8-8.5-8.5-8.5
		C20.3,6270.7,20,6270.4,20,6270C20,6270,20,6270,20,6270L20,6270"/>
	<path id="svgviewer-output-3" class="st0" d="M20,6094c0-0.4,0.3-0.7,0.7-0.7l0,0c4.7,0,8.5-3.8,8.5-8.5c0-0.4,0.3-0.7,0.7-0.7
		c0.4,0,0.7,0.3,0.7,0.7c0,4.7,3.8,8.5,8.5,8.5c0.4,0,0.7,0.3,0.7,0.7c0,0.4-0.3,0.7-0.7,0.7c0,0,0,0,0,0l0,0
		c-4.7,0-8.5,3.8-8.5,8.5c0,0.4-0.3,0.7-0.7,0.7c-0.4,0-0.7-0.3-0.7-0.7c0,0,0,0,0,0l0,0c0-4.7-3.8-8.5-8.5-8.5
		C20.3,6094.7,20,6094.4,20,6094C20,6094,20,6094,20,6094L20,6094"/>
	<path id="svgviewer-output-4" class="st0" d="M20,5918c0-0.4,0.3-0.7,0.7-0.7l0,0c4.7,0,8.5-3.8,8.5-8.5c0-0.4,0.3-0.7,0.7-0.7
		c0.4,0,0.7,0.3,0.7,0.7c0,4.7,3.8,8.5,8.5,8.5c0.4,0,0.7,0.3,0.7,0.7c0,0.4-0.3,0.7-0.7,0.7c0,0,0,0,0,0l0,0
		c-4.7,0-8.5,3.8-8.5,8.5c0,0.4-0.3,0.7-0.7,0.7c-0.4,0-0.7-0.3-0.7-0.7c0,0,0,0,0,0l0,0c0-4.7-3.8-8.5-8.5-8.5
		C20.3,5918.7,20,5918.4,20,5918C20,5918,20,5918,20,5918L20,5918"/>
	<path id="svgviewer-output-5" class="st0" d="M20,5742c0-0.4,0.3-0.7,0.7-0.7l0,0c4.7,0,8.5-3.8,8.5-8.5c0-0.4,0.3-0.7,0.7-0.7
		c0.4,0,0.7,0.3,0.7,0.7c0,4.7,3.8,8.5,8.5,8.5c0.4,0,0.7,0.3,0.7,0.7c0,0.4-0.3,0.7-0.7,0.7c0,0,0,0,0,0l0,0
		c-4.7,0-8.5,3.8-8.5,8.5c0,0.4-0.3,0.7-0.7,0.7c-0.4,0-0.7-0.3-0.7-0.7c0,0,0,0,0,0l0,0c0-4.7-3.8-8.5-8.5-8.5
		C20.3,5742.7,20,5742.4,20,5742C20,5742,20,5742,20,5742L20,5742"/>
	<path id="svgviewer-output-6" class="st0" d="M20,5566c0-0.4,0.3-0.7,0.7-0.7l0,0c4.7,0,8.5-3.8,8.5-8.5c0-0.4,0.3-0.7,0.7-0.7
		c0.4,0,0.7,0.3,0.7,0.7c0,4.7,3.8,8.5,8.5,8.5c0.4,0,0.7,0.3,0.7,0.7c0,0.4-0.3,0.7-0.7,0.7c0,0,0,0,0,0l0,0
		c-4.7,0-8.5,3.8-8.5,8.5c0,0.4-0.3,0.7-0.7,0.7c-0.4,0-0.7-0.3-0.7-0.7c0,0,0,0,0,0l0,0c0-4.7-3.8-8.5-8.5-8.5
		C20.3,5566.7,20,5566.4,20,5566C20,5566,20,5566,20,5566L20,5566"/>
</g>
</svg>
