<svg xmlns="http://www.w3.org/2000/svg" width="39.405" height="39.405" viewBox="0 0 39.405 39.405">
  <g id="vuesax_bold_wallet" data-name="vuesax/bold/wallet" transform="translate(-236 -444)">
    <g id="wallet" transform="translate(236 444)">
      <path id="Vector" d="M0,0H39.405V39.405H0Z" fill="none" opacity="0"/>
      <path id="Vector-2" data-name="Vector" d="M4.933.821V2.463a.82.82,0,0,1-.8.821h-2.4A1.7,1.7,0,0,1,.008,1.79,1.639,1.639,0,0,1,.484.476,1.561,1.561,0,0,1,1.633,0H4.112A.823.823,0,0,1,4.933.821Z" transform="translate(30.285 21.574)" fill="#fff"/>
      <path id="Vector-3" data-name="Vector" d="M25.515,9.523a3.316,3.316,0,0,0-.887,3.251,3.579,3.579,0,0,0,3.5,2.5h1.428A1.647,1.647,0,0,1,31.2,16.911v.312A6.187,6.187,0,0,1,25.022,23.4H6.173A6.187,6.187,0,0,1,0,17.223V6.173A6.134,6.134,0,0,1,2.463,1.248,6.086,6.086,0,0,1,6.173,0H25.022A6.187,6.187,0,0,1,31.2,6.173V6.9a1.647,1.647,0,0,1-1.642,1.642H27.879A3.272,3.272,0,0,0,25.515,9.523Z" transform="translate(4.023 11.313)" fill="#fff"/>
      <path id="Vector-4" data-name="Vector" d="M13.988,4.63a.677.677,0,0,1-.558,1.133L.82,5.747a.816.816,0,0,1-.575-1.4l2.66-2.676a5.787,5.787,0,0,1,8.144,0l2.873,2.906C13.939,4.6,13.971,4.614,13.988,4.63Z" transform="translate(12.611 3.284)" fill="#fff"/>
    </g>
  </g>
</svg>
