<svg xmlns="http://www.w3.org/2000/svg" viewBox="0 0 72.987 139.338">
  <g id="Group_424" data-name="Group 424" transform="translate(-4857.751 -3036.383)">
    <g id="Group_414" data-name="Group 414" transform="translate(4877.526 3162.333)">
      <rect id="Rectangle_35" data-name="Rectangle 35" width="6.635" height="6.635" transform="translate(20.036 6.753)" fill="#e43b44"/>
      <rect id="Rectangle_36" data-name="Rectangle 36" width="6.635" height="6.635" transform="translate(6.766 6.753)" fill="#e43b44"/>
      <rect id="Rectangle_37" data-name="Rectangle 37" width="6.822" height="6.822" transform="translate(26.606 0)" fill="#e43b44"/>
      <rect id="Rectangle_38" data-name="Rectangle 38" width="6.822" height="6.822" transform="translate(0 0)" fill="#e43b44"/>
    </g>
    <rect id="Rectangle_39" data-name="Rectangle 39" width="6.14" height="19.784" transform="translate(4891.17 3135.727)" fill="#fee761"/>
    <path id="Path_252" data-name="Path 252" d="M5371.033,4911.393V4931.3H5364.4v-19.905h-6.635v26.54h6.635v6.636h6.635v-6.636h6.635v-26.54Z" transform="translate(-473.471 -1775.482)" fill="#feae34"/>
    <g id="Group_415" data-name="Group 415" transform="translate(4877.526 3135.727)">
      <rect id="Rectangle_40" data-name="Rectangle 40" width="6.635" height="6.635" transform="translate(13.4 33.359)" fill="#f77622"/>
      <rect id="Rectangle_41" data-name="Rectangle 41" width="6.822" height="6.822" transform="translate(19.784 26.606)" fill="#f77622"/>
      <rect id="Rectangle_42" data-name="Rectangle 42" width="6.635" height="6.636" transform="translate(6.766 26.724)" fill="#f77622"/>
      <rect id="Rectangle_43" data-name="Rectangle 43" width="6.822" height="26.606" transform="translate(0 0)" fill="#f77622"/>
      <rect id="Rectangle_44" data-name="Rectangle 44" width="6.822" height="26.606" transform="translate(26.606 0)" fill="#f77622"/>
    </g>
    <g id="Group_416" data-name="Group 416" transform="translate(4917.468 3102.734)">
      <rect id="Rectangle_45" data-name="Rectangle 45" width="6.635" height="26.54" transform="translate(6.635 6.636)" fill="#8b9bb4"/>
      <rect id="Rectangle_46" data-name="Rectangle 46" width="6.635" height="6.636" transform="translate(0 0)" fill="#8b9bb4"/>
    </g>
    <g id="Group_417" data-name="Group 417" transform="translate(4857.751 3102.734)">
      <rect id="Rectangle_47" data-name="Rectangle 47" width="12.962" height="6.14" transform="translate(33.419 26.852)" fill="#3a4466"/>
      <path id="Path_253" data-name="Path 253" d="M4864.387,4293.024h-6.636v26.541h13.27v-33.176h-6.634Z" transform="translate(-4857.751 -4286.389)" fill="#3a4466"/>
    </g>
    <rect id="Rectangle_48" data-name="Rectangle 48" width="6.822" height="6.822" transform="translate(4897.31 3082.515)" fill="#0099db"/>
    <g id="Group_418" data-name="Group 418" transform="translate(4890.927 3049.653)">
      <path id="Path_254" data-name="Path 254" d="M5864.395,4174.652v-13.271h-6.636v33.176h6.636v6.636h6.635v-26.541Z" transform="translate(-5837.854 -4114.936)" fill="#5a6988"/>
      <path id="Path_255" data-name="Path 255" d="M5489.39,3286.38h-6.636v26.541h13.27v-19.906h-6.634Z" transform="translate(-5482.754 -3286.38)" fill="#5a6988"/>
    </g>
    <g id="Group_419" data-name="Group 419" transform="translate(4877.526 3049.653)">
      <rect id="Rectangle_49" data-name="Rectangle 49" width="6.822" height="6.14" transform="translate(26.606 79.934)" fill="#262b44"/>
      <rect id="Rectangle_50" data-name="Rectangle 50" width="13.644" height="6.14" transform="translate(0 79.934)" fill="#262b44"/>
      <path id="Path_256" data-name="Path 256" d="M5239.392,3293.016h-6.636v19.906h13.271V3286.38h-6.635Z" transform="translate(-5232.625 -3286.38)" fill="#262b44"/>
    </g>
    <path id="Path_257" data-name="Path 257" d="M5502.659,3049.653v-6.635h-6.635v-6.635h-13.27v13.27h6.636v6.635h6.634v19.906h-13.27v53.081h19.905V3096.1h6.636v-46.446Zm-13.27,33.176h6.634v6.635h-6.634Z" transform="translate(-591.827 0)" fill="#e9e5e1"/>
    <path id="Path_258" data-name="Path 258" d="M5121.02,3036.383v6.635h-6.636v6.635h-6.635v79.622h19.906v-53.081h-13.271v-19.906h6.636v-6.636h6.635v-13.27Z" transform="translate(-236.728)" fill="#c0cbdc"/>
  </g>
</svg>
