<svg xmlns="http://www.w3.org/2000/svg" xmlns:xlink="http://www.w3.org/1999/xlink" width="452" height="544" viewBox="0 0 452 544">
  <defs>
    <clipPath id="clip-path">
      <rect id="Rectangle_27" data-name="Rectangle 27" width="452" height="544" transform="translate(1468 1620)" fill="#fff" stroke="#707070" stroke-width="1"/>
    </clipPath>
  </defs>
  <g id="Mask_Group_3" data-name="Mask Group 3" transform="translate(-1468 -1620)" clip-path="url(#clip-path)">
    <g id="Group_393" data-name="Group 393" transform="translate(1334.591 971.833)">
      <path id="Path_247" data-name="Path 247" d="M278.431,934.663a6.422,6.422,0,1,0,6.422,6.422A6.421,6.421,0,0,0,278.431,934.663Z" transform="translate(158.245 160.074)" fill="#e6e6e6"/>
      <path id="Path_248" data-name="Path 248" d="M285.757,928.225a20.184,20.184,0,1,0,20.183,20.186A20.209,20.209,0,0,0,285.757,928.225Zm0,39.189a19,19,0,1,1,19-19A19.026,19.026,0,0,1,285.757,967.414Z" transform="translate(150.92 152.748)" fill="#e6e6e6"/>
      <path id="Path_249" data-name="Path 249" d="M719.445,1146.706c-14.294-7.919-35.276-16.81-62.367-26.424-31.439-11.155-69.121-22.589-110.55-33.614a362.266,362.266,0,0,0,28.551-31.159c24.542-30.475,33.107-54.38,24.117-67.314s-34.381-13.236-71.5-.853a348.118,348.118,0,0,0-32.794,12.966c-2.982-43.191-7.9-82.773-14.518-116.055-11.581-58.213-27.106-90.272-43.71-90.272s-32.13,32.059-43.712,90.272c-9,45.243-14.845,102.123-16.974,163.887-54.966-10.33-105.86-17.778-147.614-21.509-28.632-2.559-51.411-3.23-67.7-1.993-17.126,1.3-26.413,4.729-27.608,10.193s5.819,12.455,20.842,20.78c14.294,7.919,35.277,16.808,62.367,26.422,31.439,11.158,69.123,22.591,110.55,33.613a362.3,362.3,0,0,0-28.551,31.161c-24.542,30.473-33.107,54.378-24.117,67.312,4.6,6.614,13.483,9.926,26.037,9.926,11.991,0,27.328-3.023,45.459-9.071a348.777,348.777,0,0,0,32.794-12.966c2.982,43.189,7.9,82.771,14.518,116.053,11.583,58.213,27.106,90.273,43.712,90.273s32.13-32.059,43.71-90.273c9-45.243,14.845-102.123,16.974-163.885,54.966,10.33,105.86,17.776,147.614,21.509,19.332,1.727,35.995,2.593,49.8,2.593q9.957,0,17.907-.6c17.126-1.3,26.415-4.729,27.608-10.193S734.467,1155.029,719.445,1146.706ZM528.071,988.461c17.857-5.956,33.01-8.983,45.044-8.994h.064c12.284,0,20.711,3.164,25.047,9.4s4.366,15.273.062,26.815c-4.2,11.275-12.323,24.425-24.128,39.086a362.478,362.478,0,0,1-28.957,31.548c-15.262-4.051-31.024-8.045-47.167-11.948-.428-25.032-1.456-49.44-3.046-72.806A348.8,348.8,0,0,1,528.071,988.461ZM470.14,1147.689q-20.607-4.13-41.72-8.74c-17.633-3.852-34.994-7.844-51.941-11.935q-.212-12.827-.214-25.855,0-13.565.231-26.928,12.875-9.954,26.715-19.6,20.607,4.13,41.72,8.739c17.633,3.853,34.994,7.844,51.941,11.936q.211,12.83.214,25.857,0,13.561-.231,26.926Q483.979,1138.039,470.14,1147.689Zm26.687-18.1q-.212,11.686-.6,23.172-12.122-2.287-24.487-4.757Q484.677,1138.962,496.827,1129.592ZM468.8,1148.624c-30.3,21.015-61,38.708-89.293,51.605-1.565-23.114-2.578-47.249-3.008-72,16.861,4.068,34.131,8.038,51.67,11.869Q448.688,1144.585,468.8,1148.624Zm-93.5-21.9c-15.79-3.82-31.215-7.726-46.16-11.688a558.682,558.682,0,0,1,46.167-39.877q-.215,12.9-.216,26Q375.085,1114.031,375.295,1126.728Zm1.229-54q.212-11.686.6-23.17,12.121,2.283,24.487,4.755Q388.673,1063.358,376.524,1072.724Zm28.027-19.029c30.3-21.017,61-38.708,89.293-51.608,1.565,23.114,2.58,47.251,3.008,72-16.861-4.068-34.131-8.036-51.669-11.869Q424.663,1057.731,404.551,1053.695Zm93.5,21.894c15.79,3.82,31.217,7.726,46.162,11.687a558.708,558.708,0,0,1-46.169,39.88q.215-12.9.216-26Q498.266,1088.284,498.056,1075.589Zm-103.935-191.1c5.593-28.11,12.1-50.171,19.345-65.57,7.414-15.76,15.224-23.753,23.211-23.753s15.794,7.993,23.208,23.753c7.245,15.4,13.753,37.459,19.345,65.57,6.636,33.348,11.553,73.035,14.529,116.346-28.658,13.028-59.774,30.966-90.467,52.3-.116.079-.229.16-.346.242q-13.016-2.608-25.785-5.011C379.284,986.592,385.122,929.711,394.121,884.484ZM216.669,1080.922c-54.536-19.354-84.588-36.061-82.452-45.837,1.422-6.5,17.06-9.853,44.335-9.853,13.733,0,30.417.849,49.72,2.574,41.763,3.733,92.682,11.187,147.678,21.526q-.4,12.045-.622,24.316a560.255,560.255,0,0,0-47.524,41.04C286.14,1103.615,248.249,1092.129,216.669,1080.922Zm128.61,132.933c-17.855,5.958-33.01,8.983-45.044,8.994h-.064c-12.284,0-20.711-3.164-25.047-9.4s-4.365-15.273-.062-26.815c4.205-11.275,12.323-24.425,24.128-39.084A362.8,362.8,0,0,1,328.147,1116c15.262,4.049,31.024,8.042,47.167,11.946.428,25.032,1.456,49.442,3.046,72.806A348.265,348.265,0,0,1,345.279,1213.856ZM479.23,1317.834c-5.593,28.108-12.1,50.169-19.345,65.568-7.414,15.762-15.224,23.754-23.208,23.754s-15.8-7.991-23.211-23.754c-7.243-15.4-13.753-37.459-19.345-65.568-6.636-33.351-11.553-73.037-14.529-116.348,28.658-13.028,59.774-30.966,90.467-52.3.115-.079.229-.16.344-.242q13.019,2.607,25.787,5.013C494.069,1215.724,488.228,1272.606,479.23,1317.834Zm259.9-150.6c-2.136,9.778-36.418,12.43-94.054,7.279-41.763-3.733-92.682-11.185-147.678-21.526q.407-12.045.622-24.316a559.868,559.868,0,0,0,47.526-41.04c41.66,11.072,79.551,22.559,111.131,33.765C711.218,1140.748,741.27,1157.455,739.134,1167.231Z" transform="translate(0 0)" fill="#e6e6e6"/>
    </g>
  </g>
</svg>
