<svg xmlns="http://www.w3.org/2000/svg" width="33.627" height="13.838" viewBox="0 0 33.627 13.838">
  <g id="Group_514" data-name="Group 514" opacity="0.3">
    <path id="Path_280" data-name="Path 280" d="M18.794,7.575V8.705H17.137v2.481h3.424l.927-1.116v-2.5ZM12.675,0l-.929,1.114V3.546H14.44V2.479h1.922V0Zm4.461,0V2.479h1.657V3.951l-6.413.634-.634,1.007v4.463l.929,1.131h3.67V8.705H14.44V7l6.182-.588.866-1.07V1.131L20.561,0Z" transform="translate(12.139)" fill="#fff"/>
    <path id="Path_281" data-name="Path 281" d="M5.834,0,9.818,6.8l1.332-2.369L8.687,0Zm8.553,0L10.171,7.467v3.719h2.694V7.359L17.235,0Z" transform="translate(6.029)" fill="#fff"/>
    <path id="Path_282" data-name="Path 282" d="M7.785,7.575V8.705H6.128v2.481H9.552l.931-1.116v-2.5ZM1.666,0,.737,1.114V3.546h2.7V2.479h1.92V0ZM6.128,0V2.479H7.785V3.951l-6.413.634L.737,5.592v4.463l.929,1.131h3.67V8.705h-1.9V7l6.18-.588.87-1.07V1.131L9.552,0Z" transform="translate(0.762)" fill="#fff"/>
    <rect id="Rectangle_141" data-name="Rectangle 141" width="9.34" height="0.62" transform="translate(1.806 12.53)" fill="#fff"/>
    <rect id="Rectangle_142" data-name="Rectangle 142" width="6.816" height="0.35" transform="translate(1.806 13.488)" fill="#fff"/>
    <path id="Path_283" data-name="Path 283" d="M0,6.817l.653.653.655-.653L.653,6.162Z" transform="translate(0 6.368)" fill="#fff"/>
  </g>
</svg>
