<svg xmlns="http://www.w3.org/2000/svg" xmlns:xlink="http://www.w3.org/1999/xlink" width="244.857" height="319.475" viewBox="0 0 244.857 319.475">
  <defs>
    <clipPath id="clip-path">
      <path id="Rectangle_9" data-name="Rectangle 9" d="M0,0H226.773a0,0,0,0,1,0,0V153.911A113.387,113.387,0,0,1,113.387,267.3h0A113.387,113.387,0,0,1,0,153.911V0A0,0,0,0,1,0,0Z" fill="none"/>
    </clipPath>
  </defs>
  <g id="Group_362" data-name="Group 362" transform="translate(121.283 860.792)">
    <path id="Path_113" data-name="Path 113" d="M123.574-783.817v162.953a121.738,121.738,0,0,1-9.624,47.657A122.1,122.1,0,0,1,87.717-534.3a122.064,122.064,0,0,1-38.912,26.233,121.667,121.667,0,0,1-47.656,9.624,121.938,121.938,0,0,1-35.1-5.1,122.551,122.551,0,0,1-12.559-4.52A121.933,121.933,0,0,1-85.42-534.3a121.914,121.914,0,0,1-26.233-38.912,121.633,121.633,0,0,1-9.63-47.657V-783.817Z" transform="translate(0 -42.878)"/>
    <path id="Rectangle_7" data-name="Rectangle 7" d="M0,0H226.773a0,0,0,0,1,0,0V153.911A113.387,113.387,0,0,1,113.387,267.3h0A113.387,113.387,0,0,1,0,153.911V0A0,0,0,0,1,0,0Z" transform="translate(-112.24 -817.653)" fill="none"/>
    <rect id="Rectangle_8" data-name="Rectangle 8" width="216.517" height="55.67" transform="translate(-107.113 -812.332)" fill="#fff"/>
    <g id="Group_180" data-name="Group 180" transform="translate(-99.74 -803.454)">
      <path id="Path_114" data-name="Path 114" d="M-35.491-731.349h6.717v37.915h-8.5v-17.441l-9.858,17.441h-7.1l-9.912-17.441v17.441h-8.5v-37.915h6.771l15.166,26.866Z" transform="translate(72.648 731.349)"/>
      <path id="Path_115" data-name="Path 115" d="M75.67-731.349h8.883l.217.487,16.087,37.427H91.594L88.669-700.2H71.553l-2.871,6.771H59.42l16.087-37.427Zm4.442,11.266-4.875,11.374h9.8Z" transform="translate(-0.919 731.349)"/>
      <path id="Path_116" data-name="Path 116" d="M213.12-705.3l7.529,11.862H210.575l-6.933-10.833h-9.154v10.833h-8.5v-37.915h22.045a13.547,13.547,0,0,1,13.541,13.541A13.431,13.431,0,0,1,213.12-705.3Zm-.054-12.512a5.063,5.063,0,0,0-5.037-5.037H194.488v10.021h13.541A5.016,5.016,0,0,0,213.067-717.808Z" transform="translate(-71.42 731.349)"/>
      <path id="Path_117" data-name="Path 117" d="M337.018-705.025a11.6,11.6,0,0,1-11.591,11.591H302.245v-8.5h23.182a3.122,3.122,0,0,0,3.088-3.087,3.086,3.086,0,0,0-3.088-3.087h-13.27a11.616,11.616,0,0,1-11.591-11.645,11.6,11.6,0,0,1,11.591-11.591H335.34v8.5H312.157a3.121,3.121,0,0,0-3.087,3.087,3.086,3.086,0,0,0,3.087,3.087h13.27A11.616,11.616,0,0,1,337.018-705.025Z" transform="translate(-135.247 731.349)"/>
    </g>
    <g id="Group_359" data-name="Group 359" transform="translate(-112.24 -817.653)">
      <g id="Group_358" data-name="Group 358" transform="translate(0 0)" clip-path="url(#clip-path)">
        <g id="Mars" transform="translate(-6.739 117.423)">
          <g id="Group_185" data-name="Group 185" transform="translate(0 0)">
            <g id="Group_182" data-name="Group 182" transform="translate(20.345 30.176)" opacity="0.1">
              <g id="Group_181" data-name="Group 181">
                <path id="Path_118" data-name="Path 118" d="M107.926-430.192a118.624,118.624,0,0,1,20.345,66.619A119.176,119.176,0,0,1,9.1-244.4a118.72,118.72,0,0,1-79.248-30.176,119.056,119.056,0,0,0,98.831,52.557A119.176,119.176,0,0,0,147.854-341.193,118.873,118.873,0,0,0,107.926-430.192Z" transform="translate(70.153 430.192)"/>
              </g>
            </g>
            <g id="Group_184" data-name="Group 184" opacity="0.05">
              <g id="Group_183" data-name="Group 183">
                <path id="Path_119" data-name="Path 119" d="M44.5-472.579A119.993,119.993,0,0,0,43-491.46a118.948,118.948,0,0,0-39.909-6.856A119.176,119.176,0,0,0-116.082-379.14a120,120,0,0,0,1.495,18.882A118.96,118.96,0,0,0-74.678-353.4,119.176,119.176,0,0,0,44.5-472.579Z" transform="translate(116.082 498.316)" fill="#fff"/>
              </g>
            </g>
          </g>
          <g id="Mars-2" data-name="Mars">
            <g id="Mars-3" data-name="Mars">
              <g id="Group_186" data-name="Group 186">
                <circle id="Ellipse_2" data-name="Ellipse 2" cx="119.176" cy="119.176" r="119.176" fill="#b3191a"/>
              </g>
              <g id="Group_187" data-name="Group 187" transform="translate(178.037 138.536)">
                <path id="Path_120" data-name="Path 120" d="M288.959-125.485c-2.55,2.414-4.157,6.447-2.334,9.448a6.749,6.749,0,0,0,5.807,2.931,13.322,13.322,0,0,0,6.419-2.006c6.333-3.6,10.88-9.59,15.245-15.419l12.65-16.895c4.6-6.137,9.313-12.538,10.887-20.041,1.126-5.367.227-11.649-4.036-15.1-5.906-4.778-15.2-2.962-21.647-.638-7.19,2.59-13.657,4.541-17.087,12.168-2.878,6.4-1.8,13.5,1.741,19.358,3.009,4.974,8.317,11.838,3.677,17.541C297.253-130.414,292.4-128.746,288.959-125.485Z" transform="translate(-285.843 185.565)" fill="#c92526"/>
              </g>
              <g id="Group_188" data-name="Group 188" transform="translate(63.967 111.969)">
                <path id="Path_121" data-name="Path 121" d="M43.036-244.433a28.382,28.382,0,0,0-9.381,7.362,21.756,21.756,0,0,0-4.735,7.4,9.7,9.7,0,0,0,.833,8.488c2.559,3.7,7.843,4.319,12.254,3.449s8.609-2.862,13.1-3.1c4.1-.221,8.509.989,12.153-.907,3.427-1.782,5.1-6.083,4.409-9.883a13.772,13.772,0,0,0-6.735-9C59.081-244.109,49.526-247.3,43.036-244.433Z" transform="translate(-28.326 245.543)" fill="#830c20"/>
              </g>
              <g id="Group_189" data-name="Group 189" transform="translate(63.968 110.29)">
                <path id="Path_122" data-name="Path 122" d="M33.656-239.182a28.381,28.381,0,0,1,9.381-7.362c6.49-2.863,16.045.324,21.9,3.8a13.772,13.772,0,0,1,6.735,9c.053.291.087.584.113.879a9.784,9.784,0,0,0-.113-2.557,13.77,13.77,0,0,0-6.735-9c-5.851-3.481-15.407-6.668-21.9-3.805a28.383,28.383,0,0,0-9.381,7.363,21.752,21.752,0,0,0-4.735,7.4,11.207,11.207,0,0,0-.559,4.416,11.566,11.566,0,0,1,.559-2.737A21.757,21.757,0,0,1,33.656-239.182Z" transform="translate(-28.328 249.332)" fill="#c92526"/>
              </g>
              <g id="Group_190" data-name="Group 190" transform="translate(96.47 36.977)">
                <path id="Path_123" data-name="Path 123" d="M109.129-410.876c-3.613,1.712-7.457,4.564-7.426,8.562.025,3.275,2.87,6.009,6.024,6.893s6.523.3,9.7-.514,6.337-1.862,9.611-1.9c1.96-.022,4.017.306,5.809-.487,3.379-1.495,3.978-6.382,2.146-9.591C129.071-418.273,117.9-415.032,109.129-410.876Z" transform="translate(-101.703 414.838)" fill="#830c20"/>
              </g>
              <g id="Group_191" data-name="Group 191" transform="translate(96.47 34.739)">
                <path id="Path_124" data-name="Path 124" d="M109.129-413.691c8.769-4.155,19.942-7.4,25.86,2.965a7.867,7.867,0,0,1,.934,2.827,8.155,8.155,0,0,0-.934-5.066c-5.917-10.362-17.091-7.12-25.86-2.965-3.613,1.712-7.457,4.564-7.426,8.562a5.714,5.714,0,0,0,.114,1.066C102.454-409.687,105.88-412.151,109.129-413.691Z" transform="translate(-101.703 419.891)" fill="#c92526"/>
              </g>
              <g id="Group_192" data-name="Group 192" transform="translate(190.208 145.074)">
                <path id="Path_125" data-name="Path 125" d="M314.672-163.547a8.871,8.871,0,0,0-1.138,6.807,26.337,26.337,0,0,0,2.586,6.583,31.188,31.188,0,0,0,3.931,6.474,10.485,10.485,0,0,0,6.379,3.8c3.009.394,6.015-1.017,8.3-3.012a17.7,17.7,0,0,0,5.849-15.1c-.568-4.937-4.6-13.345-10.463-12.786C326.473-170.431,316.838-166.6,314.672-163.547Z" transform="translate(-313.32 170.805)" fill="#830c20"/>
              </g>
              <g id="Group_193" data-name="Group 193" transform="translate(205.48 145.074)">
                <path id="Path_126" data-name="Path 126" d="M362.026-157.992c-.568-4.937-4.6-13.345-10.463-12.786-.182.017-.382.046-.592.08,4.965.955,8.3,8.246,8.817,12.706a17.7,17.7,0,0,1-5.85,15.1,12.118,12.118,0,0,1-6.141,3c.026,0,.05.012.077.015,3.009.394,6.015-1.017,8.3-3.012A17.7,17.7,0,0,0,362.026-157.992Z" transform="translate(-347.798 170.805)" fill="#e23606"/>
              </g>
              <g id="Group_194" data-name="Group 194" transform="translate(147.008 72.09)">
                <path id="Path_127" data-name="Path 127" d="M220.486-321.2a7.835,7.835,0,0,0,8.5-.709,9.7,9.7,0,0,0,3.561-7.955,6.2,6.2,0,0,0-2.2-4.9c-3.5-2.524-13.267,1.263-14.438,5.432C215.15-326.618,218.321-322.463,220.486-321.2Z" transform="translate(-215.795 335.571)" fill="#830c20"/>
              </g>
              <g id="Group_195" data-name="Group 195" transform="translate(147.011 69.852)">
                <path id="Path_128" data-name="Path 128" d="M230.352-337.573a5.837,5.837,0,0,1,2.139,4.131,10.1,10.1,0,0,0,.062-1.472,6.2,6.2,0,0,0-2.2-4.9c-3.5-2.523-13.267,1.263-14.438,5.432a4.039,4.039,0,0,0,.054,2.081C217.336-336.4,226.9-340.065,230.352-337.573Z" transform="translate(-215.801 340.623)" fill="#c92526"/>
              </g>
              <g id="Group_196" data-name="Group 196" transform="translate(5.958 81.737)">
                <path id="Path_129" data-name="Path 129" d="M-102.6-282.843c.448,9.672,6.211,19.9,15.66,22.015,3,.671,6.14.486,9.167,1.046s6.165,2.135,7.282,5c1.4,3.6-.975,7.653-4.008,10.053s-6.755,3.853-9.638,6.431-4.767,7.024-2.739,10.317c2.325,3.775,8.171,3.456,11.85.983s6.123-6.4,9.506-9.261c13.934-11.8,31.8,2.94,44.912,9.747,11.31,5.872,24.3,10.6,36.614,7.326,5.685-1.51,11.216-5.086,13.253-10.6s-.815-12.863-6.561-14.121c-4.031-.883-8.03,1.218-12.024,2.26-8.36,2.181-16.884-.4-24.479-3.922-3.249-1.506-6.229-3.779-9.846-4-3.544-.221-6.953,1.03-10.683.447a26.1,26.1,0,0,1-15.006-8.144c-3.408-3.71-3.685-8.394-6.726-12.028-5.682-6.789-16.481-6.338-22-13.475-3.956-5.111-3.19-11.827-2.986-17.868.139-4.1,1.4-14.44-5.4-13.019-4.928,1.029-10.093,9.348-12.194,13.4A34.606,34.606,0,0,0-102.6-282.843Z" transform="translate(102.632 313.793)" fill="#c92526"/>
              </g>
              <g id="Group_197" data-name="Group 197" transform="translate(130.123 10.009)">
                <path id="Path_130" data-name="Path 130" d="M191.04-430.11c-4.772-3.056-9.158-7.786-9.188-13.452-.022-4.15,2.313-8.231,1.413-12.281-1.006-4.529-5.86-7.9-5.576-12.528a7.61,7.61,0,0,1,4.2-5.962A14.514,14.514,0,0,1,189.3-475.7a27.447,27.447,0,0,1,20.5,10.751c3.647,4.843,5.878,11.113,11.107,14.182,4.934,2.9,11.12,2.083,16.724,3.23,8.235,1.686,15.069,7.688,19.626,14.751s7.154,15.179,9.7,23.189l9.7,30.5c1.3,4.075,2.6,8.218,2.714,12.493s-1.135,8.778-4.261,11.7-8.356,3.733-11.738,1.115c-4.253-3.293-3.851-9.685-3.39-15.044a122.915,122.915,0,0,0-6.161-50.189c-2.531-7.39-6.592-15.306-14.044-17.647-4.9-1.539-10.336-.237-14.78,2.335-4.71,2.726-8.969,9.934-14.463,10.4C204.078-423.387,196.334-426.72,191.04-430.11Z" transform="translate(-177.677 475.72)" fill="#c92526"/>
              </g>
              <g id="Group_198" data-name="Group 198" transform="translate(24.761 191.896)">
                <path id="Path_131" data-name="Path 131" d="M34.233-18.647a118.638,118.638,0,0,0,70.961-23.425,89.232,89.232,0,0,0-9.423,3c-7.632,2.462-15.754,2.205-23.324,4.679-6.826,2.23-12.469,6.724-18.913,9.755C41.215-18.848,26-19.819,14.305-26.7c-6.323-3.72-9.514-6.753-16.675-9.1a86.984,86.984,0,0,1-20.249-9.657C-31.107-50.956-38.7-57.975-47.934-62.1A34.674,34.674,0,0,0-60.182-65.1,118.971,118.971,0,0,0,34.233-18.647Z" transform="translate(60.182 65.102)" fill="#c92526"/>
              </g>
              <g id="Group_199" data-name="Group 199" transform="translate(121.057 207.529)">
                <path id="Path_132" data-name="Path 132" d="M182.146-24.317,197.4-28.784a16.618,16.618,0,0,1,6.217-.986,5.653,5.653,0,0,1,4.92,3.417c1.082,3.221-2.154,6.436-5.467,7.191s-6.795.031-10.159.5c-5.226.731-9.58,4.21-14.328,6.512-3.016,1.462-23.453,7.375-21.205-1.1C158.937-19.114,177.191-22.867,182.146-24.317Z" transform="translate(-157.209 29.812)" fill="#830c20"/>
              </g>
              <g id="Group_200" data-name="Group 200" transform="translate(121.058 205.291)">
                <path id="Path_133" data-name="Path 133" d="M182.147-27.131,197.406-31.6a16.618,16.618,0,0,1,6.217-.986,5.653,5.653,0,0,1,4.92,3.417c.022.065.031.13.049.194a4.08,4.08,0,0,0-.049-2.432,5.653,5.653,0,0,0-4.92-3.417,16.618,16.618,0,0,0-6.217.986L182.147-29.37c-4.955,1.451-23.209,5.2-24.765,11.071a3.64,3.64,0,0,0,0,2.228C158.961-21.932,177.2-25.682,182.147-27.131Z" transform="translate(-157.212 34.864)" fill="#c92526"/>
              </g>
              <g id="Group_201" data-name="Group 201" transform="translate(11.774 91.897)">
                <path id="Path_134" data-name="Path 134" d="M-89.5-275.99c.153,5.1,3.208,10.5,8.186,11.631,2.628.6,5.99-.6,6.434-3.258.448-2.684-2.145-4.749-3.882-6.844a13.073,13.073,0,0,1-2.924-8.937c.121-2.425,2.617-5.642.035-7.015C-87.6-293.576-89.582-278.8-89.5-275.99Z" transform="translate(89.501 290.854)" fill="#830c20"/>
              </g>
              <g id="Group_202" data-name="Group 202" transform="translate(17.311 90.78)">
                <path id="Path_135" data-name="Path 135" d="M-70.12-276.984a13.075,13.075,0,0,1-2.924-8.937c.121-2.425,2.617-5.642.035-7.015a3.022,3.022,0,0,0-3.993.785,3.047,3.047,0,0,1,2.314.334c2.582,1.373.086,4.59-.035,7.015a13.073,13.073,0,0,0,2.924,8.937c1.737,2.095,4.33,4.159,3.882,6.844a3.442,3.442,0,0,1-.918,1.81,3.957,3.957,0,0,0,2.6-2.929C-65.79-272.825-68.383-274.89-70.12-276.984Z" transform="translate(77.002 293.376)" fill="#e23606"/>
              </g>
              <g id="Group_204" data-name="Group 204" transform="translate(100.19 144.367)">
                <g id="Group_203" data-name="Group 203" transform="translate(0)">
                  <path id="Path_136" data-name="Path 136" d="M120.327-166.462a23.52,23.52,0,0,1-4.4-1.571,20.426,20.426,0,0,1-3.264-1.974,13.8,13.8,0,0,1-1.14-.919,8.121,8.121,0,0,1-.8-.756c-.421-.436-.639-.689-.612-.716.073-.075,1.018.87,2.784,2.068a23.249,23.249,0,0,0,3.256,1.831,25.523,25.523,0,0,0,4.314,1.493,25.577,25.577,0,0,0,4.523.619,23.33,23.33,0,0,0,3.731-.161c2.116-.27,3.387-.686,3.418-.586a3.058,3.058,0,0,1-.869.362,8.123,8.123,0,0,1-1.059.311,13.664,13.664,0,0,1-1.432.3,20.413,20.413,0,0,1-3.8.285A23.528,23.528,0,0,1,120.327-166.462Z" transform="translate(-110.101 172.401)" fill="#c92526"/>
                </g>
              </g>
              <g id="Group_206" data-name="Group 206" transform="translate(133.97 147.305)">
                <g id="Group_205" data-name="Group 205" transform="translate(0 0)">
                  <path id="Path_137" data-name="Path 137" d="M193.394-157.38a13.5,13.5,0,0,0-4.3-6.5c-1.571-1.3-2.776-1.785-2.729-1.88a2.518,2.518,0,0,1,.858.294,11.074,11.074,0,0,1,2.117,1.276,13.008,13.008,0,0,1,4.6,6.658,13.007,13.007,0,0,1-.333,8.083,11.1,11.1,0,0,1-1.11,2.209c-.325.485-.541.726-.568.706-.091-.054.672-1.105,1.3-3.046A13.5,13.5,0,0,0,193.394-157.38Z" transform="translate(-186.36 165.77)" fill="#c92526"/>
                </g>
              </g>
              <g id="Group_208" data-name="Group 208" transform="translate(34.901 166.932)">
                <g id="Group_207" data-name="Group 207" transform="translate(0 0)">
                  <path id="Path_138" data-name="Path 138" d="M-36.456-110.512A19.187,19.187,0,0,1-30.9-119.1a16.608,16.608,0,0,1,2.509-1.852,3.919,3.919,0,0,1,1.024-.508c.058.091-1.385.864-3.265,2.651a20.055,20.055,0,0,0-5.285,8.459,20.051,20.051,0,0,0-.42,9.965c.542,2.537,1.3,3.99,1.2,4.032a3.95,3.95,0,0,1-.558-1,16.635,16.635,0,0,1-1.023-2.946A19.189,19.189,0,0,1-36.456-110.512Z" transform="translate(37.291 121.46)" fill="#c92526"/>
                </g>
              </g>
              <g id="Group_210" data-name="Group 210" transform="translate(8.582 137.114)">
                <g id="Group_209" data-name="Group 209">
                  <path id="Path_139" data-name="Path 139" d="M-95.1-175.3a37.626,37.626,0,0,1-1.589-9.492,26.385,26.385,0,0,1,.039-2.918,3.959,3.959,0,0,1,.136-1.063c.1,0,.044,1.523.22,3.96a43.817,43.817,0,0,0,1.729,9.351,43.807,43.807,0,0,0,3.758,8.736c1.207,2.123,2.095,3.357,2.017,3.414a3.937,3.937,0,0,1-.7-.808,26.49,26.49,0,0,1-1.654-2.4A37.648,37.648,0,0,1-95.1-175.3Z" transform="translate(96.709 188.776)" fill="#c92526"/>
                </g>
              </g>
              <g id="Group_212" data-name="Group 212" transform="translate(24.988 138.458)">
                <g id="Group_211" data-name="Group 211">
                  <path id="Path_140" data-name="Path 140" d="M-52.925-183.823a5.661,5.661,0,0,0-4.647-1.411c-1.307.155-2.056.559-2.1.469a3.883,3.883,0,0,1,2.038-.86,6.248,6.248,0,0,1,2.438.009,5.21,5.21,0,0,1,2.666,1.4,4.514,4.514,0,0,1,1.231,2.762,4.569,4.569,0,0,1-.441,2.42,3.211,3.211,0,0,1-1.076,1.254c-.329.212-.54.269-.552.242A5.409,5.409,0,0,0-52.1-179.2a4.463,4.463,0,0,0,.287-2.2A4.165,4.165,0,0,0-52.925-183.823Z" transform="translate(59.671 185.74)" fill="#c92526"/>
                </g>
              </g>
              <g id="Group_214" data-name="Group 214" transform="translate(29.431 80.011)">
                <g id="Group_213" data-name="Group 213" transform="translate(0)">
                  <path id="Path_141" data-name="Path 141" d="M-46.076-310.882a9.951,9.951,0,0,1-1.2,5.41,4.92,4.92,0,0,1-1.419,1.8c-.074-.059.483-.734,1.067-1.983a10.762,10.762,0,0,0,1-5.194,10.764,10.764,0,0,0-1.679-5.015c-.744-1.161-1.386-1.756-1.32-1.824a4.919,4.919,0,0,1,1.646,1.6A9.953,9.953,0,0,1-46.076-310.882Z" transform="translate(49.639 317.687)" fill="#c92526"/>
                </g>
              </g>
              <g id="Group_216" data-name="Group 216" transform="translate(5.723 80.65)">
                <g id="Group_215" data-name="Group 215">
                  <path id="Path_142" data-name="Path 142" d="M-98.972-310.832c-2.88,3.444-4.009,6.99-4.178,6.915a7.326,7.326,0,0,1,.712-2.3,20.514,20.514,0,0,1,3.035-4.969,20.5,20.5,0,0,1,4.307-3.918,7.309,7.309,0,0,1,2.127-1.134C-92.864-316.087-96.133-314.309-98.972-310.832Z" transform="translate(103.161 316.245)" fill="#c92526"/>
                </g>
              </g>
              <g id="Group_218" data-name="Group 218" transform="translate(58.384 131.361)">
                <g id="Group_217" data-name="Group 217">
                  <path id="Path_143" data-name="Path 143" d="M21.533-194.256a19.91,19.91,0,0,1-4.57-4.992,8.678,8.678,0,0,1-1.236-2.514c.085-.043.575.9,1.564,2.292a23.211,23.211,0,0,0,4.585,4.771,23.213,23.213,0,0,0,5.767,3.244c1.591.61,2.631.847,2.611.94a8.688,8.688,0,0,1-2.743-.567A19.905,19.905,0,0,1,21.533-194.256Z" transform="translate(-15.721 201.763)" fill="#c92526"/>
                </g>
              </g>
              <g id="Group_220" data-name="Group 220" transform="translate(107.771 228.529)">
                <g id="Group_219" data-name="Group 219" transform="translate(0 0)">
                  <path id="Path_144" data-name="Path 144" d="M139.229,21.474a33.031,33.031,0,0,1-8.7-2.188,23.117,23.117,0,0,1-2.465-1.151,3.432,3.432,0,0,1-.847-.531c.043-.086,1.313.542,3.453,1.312a38.46,38.46,0,0,0,8.62,2,38.439,38.439,0,0,0,8.849-.075c2.256-.285,3.632-.621,3.656-.528a3.448,3.448,0,0,1-.942.333,23.1,23.1,0,0,1-2.656.586A33.028,33.028,0,0,1,139.229,21.474Z" transform="translate(-127.216 -17.597)" fill="#c92526"/>
                </g>
              </g>
              <g id="Group_222" data-name="Group 222" transform="translate(143.626 203.292)">
                <g id="Group_221" data-name="Group 221" transform="translate(0 0)">
                  <path id="Path_145" data-name="Path 145" d="M217.4-37.711a37.131,37.131,0,0,0-6.6,2.608,27.472,27.472,0,0,1-2.636,1.357,11.014,11.014,0,0,1,2.447-1.7,29.633,29.633,0,0,1,6.637-2.8,29.671,29.671,0,0,1,7.117-1.116,10.981,10.981,0,0,1,2.978.161,27.441,27.441,0,0,1-2.955.234A37.12,37.12,0,0,0,217.4-37.711Z" transform="translate(-208.16 39.375)" fill="#c92526"/>
                </g>
              </g>
              <g id="Group_224" data-name="Group 224" transform="translate(211.063 177.937)">
                <g id="Group_223" data-name="Group 223" transform="translate(0)">
                  <path id="Path_146" data-name="Path 146" d="M365.871-88.61a37.055,37.055,0,0,1-3.641,5.019,9.511,9.511,0,0,1-1.822,1.811c-.132-.116,2.512-3.008,4.985-7.12,2.5-4.1,3.837-7.779,4-7.716a9.534,9.534,0,0,1-.761,2.454A37.069,37.069,0,0,1,365.871-88.61Z" transform="translate(-360.402 96.617)" fill="#c92526"/>
                </g>
              </g>
              <g id="Group_226" data-name="Group 226" transform="translate(231.283 120.4)">
                <g id="Group_225" data-name="Group 225" transform="translate(0)">
                  <path id="Path_147" data-name="Path 147" d="M410.107-215.894a47,47,0,0,1-2.562,7.152,13.647,13.647,0,0,1-1.489,2.772,24.273,24.273,0,0,1,1.125-2.927,66.922,66.922,0,0,0,2.385-7.142,67.092,67.092,0,0,0,1.53-7.374,24.138,24.138,0,0,1,.5-3.1,13.69,13.69,0,0,1-.107,3.145A47.015,47.015,0,0,1,410.107-215.894Z" transform="translate(-406.048 226.509)" fill="#c92526"/>
                </g>
              </g>
              <g id="Group_228" data-name="Group 228" transform="translate(208.514 123.97)">
                <g id="Group_227" data-name="Group 227" transform="translate(0)">
                  <path id="Path_148" data-name="Path 148" d="M357.885-209.837a12.555,12.555,0,0,0,5.388,3.618c1.6.549,2.673.611,2.663.709a1.821,1.821,0,0,1-.756.03,9.811,9.811,0,0,1-2.026-.361,11.837,11.837,0,0,1-5.694-3.631,11.835,11.835,0,0,1-2.73-6.177,9.806,9.806,0,0,1-.051-2.057,1.834,1.834,0,0,1,.144-.743c.1,0,0,1.074.3,2.74A12.551,12.551,0,0,0,357.885-209.837Z" transform="translate(-354.647 218.449)" fill="#c92526"/>
                </g>
              </g>
              <g id="Group_230" data-name="Group 230" transform="translate(225.482 77.942)">
                <g id="Group_229" data-name="Group 229" transform="translate(0)">
                  <path id="Path_149" data-name="Path 149" d="M395.694-309.987c-.627-3.439-1.34-6.524-1.892-8.749a30.553,30.553,0,0,1-.838-3.623,3.484,3.484,0,0,1,.391.924c.219.605.5,1.492.829,2.6a86.868,86.868,0,0,1,2.06,8.752,86.861,86.861,0,0,1,1.153,8.916c.084,1.148.13,2.077.138,2.722a3.481,3.481,0,0,1-.04,1,30.631,30.631,0,0,1-.492-3.686C396.737-303.41,396.318-306.548,395.694-309.987Z" transform="translate(-392.953 322.36)" fill="#c92526"/>
                </g>
              </g>
              <g id="Group_232" data-name="Group 232" transform="translate(173.732 31.675)">
                <g id="Group_231" data-name="Group 231">
                  <path id="Path_150" data-name="Path 150" d="M286.227-423.815a51.222,51.222,0,0,0,7.389.862,26.226,26.226,0,0,1,3.1.15,12.715,12.715,0,0,1-3.1.245,38.579,38.579,0,0,1-7.487-.708,38.613,38.613,0,0,1-7.208-2.145,12.721,12.721,0,0,1-2.787-1.389,26.15,26.15,0,0,1,2.928,1.019A51.263,51.263,0,0,0,286.227-423.815Z" transform="translate(-276.125 426.808)" fill="#c92526"/>
                </g>
              </g>
              <g id="Group_234" data-name="Group 234" transform="translate(128.847 6.362)">
                <g id="Group_233" data-name="Group 233">
                  <path id="Path_151" data-name="Path 151" d="M188.723-483.138a46.875,46.875,0,0,0-9.851-.065c-2.516.254-4.057.573-4.078.478a4.226,4.226,0,0,1,1.062-.321,28.367,28.367,0,0,1,2.97-.55,40.247,40.247,0,0,1,9.96-.1,40.244,40.244,0,0,1,9.677,2.36,28.292,28.292,0,0,1,2.767,1.211,4.23,4.23,0,0,1,.961.554c-.041.087-1.469-.573-3.862-1.393A46.878,46.878,0,0,0,188.723-483.138Z" transform="translate(-174.795 483.955)" fill="#c92526"/>
                </g>
              </g>
              <g id="Group_236" data-name="Group 236" transform="translate(169.157 16.219)">
                <g id="Group_235" data-name="Group 235" transform="translate(0)">
                  <path id="Path_152" data-name="Path 152" d="M272.075-455.131a27.469,27.469,0,0,1-4.731-4.387A9.261,9.261,0,0,1,265.8-461.7c.14-.12,2.56,3.2,6.6,6.116,4.015,2.958,7.912,4.25,7.84,4.42a9.294,9.294,0,0,1-2.548-.8A27.5,27.5,0,0,1,272.075-455.131Z" transform="translate(-265.798 461.702)" fill="#c92526"/>
                </g>
              </g>
              <g id="Group_238" data-name="Group 238" transform="translate(137.629 57.343)">
                <g id="Group_237" data-name="Group 237" transform="translate(0)">
                  <path id="Path_153" data-name="Path 153" d="M200.021-363.161a13.3,13.3,0,0,1-4.268-3.662,5.855,5.855,0,0,1-1.126-2.036c.084-.047.524.721,1.436,1.789a15.227,15.227,0,0,0,4.226,3.417,15.217,15.217,0,0,0,5.168,1.683c1.392.183,2.275.134,2.282.23a5.866,5.866,0,0,1-2.322.164A13.3,13.3,0,0,1,200.021-363.161Z" transform="translate(-194.622 368.862)" fill="#c92526"/>
                </g>
              </g>
              <g id="Group_240" data-name="Group 240" transform="translate(167.727 55.527)">
                <g id="Group_239" data-name="Group 239">
                  <path id="Path_154" data-name="Path 154" d="M266.173-367.256c-2.709,3.684-3.409,7.433-3.587,7.371a7.216,7.216,0,0,1,.468-2.407,18.476,18.476,0,0,1,2.666-5.292,18.476,18.476,0,0,1,4.2-4.18,7.184,7.184,0,0,1,2.143-1.193C272.177-372.807,268.832-370.976,266.173-367.256Z" transform="translate(-262.568 372.962)" fill="#c92526"/>
                </g>
              </g>
              <g id="Group_242" data-name="Group 242" transform="translate(127.372 25.639)">
                <g id="Group_241" data-name="Group 241" transform="translate(0)">
                  <path id="Path_155" data-name="Path 155" d="M174.634-434.725a48.272,48.272,0,0,0-3.162-5.707,14.1,14.1,0,0,1,3.679,5.492,14.105,14.105,0,0,1,1.3,6.481A48.311,48.311,0,0,0,174.634-434.725Z" transform="translate(-171.465 440.436)" fill="#c92526"/>
                </g>
              </g>
              <g id="Group_244" data-name="Group 244" transform="translate(104.973 56.159)">
                <g id="Group_243" data-name="Group 243">
                  <path id="Path_156" data-name="Path 156" d="M132.024-367.788a38.157,38.157,0,0,1-7.871.649c-1.011-.027-1.828-.085-2.388-.158a2.668,2.668,0,0,1-.866-.163,31.136,31.136,0,0,1,3.254-.075,48.872,48.872,0,0,0,7.768-.8,48.872,48.872,0,0,0,7.529-2.075,31.187,31.187,0,0,1,3.059-1.113c.017.035-.25.2-.748.466s-1.236.622-2.168,1.015A38.141,38.141,0,0,1,132.024-367.788Z" transform="translate(-120.898 371.534)" fill="#c92526"/>
                </g>
              </g>
              <g id="Group_246" data-name="Group 246" transform="translate(189.14 51.33)">
                <g id="Group_245" data-name="Group 245">
                  <path id="Path_157" data-name="Path 157" d="M320.12-377.5a15.5,15.5,0,0,0-6.195-4.062c-1.817-.64-3.029-.746-3.015-.845a2.3,2.3,0,0,1,.855,0,12.2,12.2,0,0,1,2.283.464,14.566,14.566,0,0,1,6.484,4.059,14.565,14.565,0,0,1,3.487,6.809,12.173,12.173,0,0,1,.266,2.314,2.3,2.3,0,0,1-.069.853c-.1,0-.1-1.212-.583-3.077A15.5,15.5,0,0,0,320.12-377.5Z" transform="translate(-310.91 382.436)" fill="#c92526"/>
                </g>
              </g>
              <g id="Group_248" data-name="Group 248" transform="translate(206.36 76.554)">
                <g id="Group_247" data-name="Group 247" transform="translate(0)">
                  <path id="Path_158" data-name="Path 158" d="M352.167-315.9a51.6,51.6,0,0,0-1.559-6.8,21.71,21.71,0,0,1-.814-2.793,11.554,11.554,0,0,1,1.189,2.669,37.456,37.456,0,0,1,1.736,6.838,37.449,37.449,0,0,1,.428,7.043,11.527,11.527,0,0,1-.321,2.9,21.831,21.831,0,0,1-.075-2.908A51.6,51.6,0,0,0,352.167-315.9Z" transform="translate(-349.784 325.493)" fill="#c92526"/>
                </g>
              </g>
              <g id="Group_250" data-name="Group 250" transform="translate(212.753 51.227)">
                <g id="Group_249" data-name="Group 249" transform="translate(0)">
                  <path id="Path_159" data-name="Path 159" d="M370.484-371.209a43.814,43.814,0,0,0-4.134-8.252c-1.282-1.993-2.2-3.146-2.129-3.206.03-.025.287.241.727.745a26,26,0,0,1,1.732,2.241,37.3,37.3,0,0,1,4.329,8.277,37.312,37.312,0,0,1,2.129,9.1,25.871,25.871,0,0,1,.153,2.828,3.726,3.726,0,0,1-.063,1.039c-.1,0-.151-1.472-.482-3.818A43.825,43.825,0,0,0,370.484-371.209Z" transform="translate(-364.217 382.669)" fill="#c92526"/>
                </g>
              </g>
              <g id="Group_252" data-name="Group 252" transform="translate(2.875 103.909)">
                <g id="Group_251" data-name="Group 251">
                  <path id="Path_160" data-name="Path 160" d="M-109.531-251.772a28.568,28.568,0,0,1,.729-8.59,20.034,20.034,0,0,1,.764-2.5,3.174,3.174,0,0,1,.4-.874c.093.032-.347,1.32-.777,3.46a32.819,32.819,0,0,0-.557,8.467,32.811,32.811,0,0,0,1.685,8.317c.712,2.063,1.32,3.281,1.232,3.325a3.194,3.194,0,0,1-.512-.813,20.082,20.082,0,0,1-1.091-2.376A28.559,28.559,0,0,1-109.531-251.772Z" transform="translate(109.592 263.737)" fill="#c92526"/>
                </g>
              </g>
              <g id="Group_254" data-name="Group 254" transform="translate(34.964 113.721)">
                <g id="Group_253" data-name="Group 253" transform="translate(0)">
                  <path id="Path_161" data-name="Path 161" d="M-24.137-235.2a36.968,36.968,0,0,1-5.415-1.766,32.594,32.594,0,0,1-4.143-2.106c-.577-.324-1.063-.675-1.5-.966a13.251,13.251,0,0,1-1.087-.793,4.485,4.485,0,0,1-.866-.754c.061-.082,1.363.9,3.651,2.171a38.045,38.045,0,0,0,4.142,1.972,40.668,40.668,0,0,0,5.347,1.7,40.678,40.678,0,0,0,5.543.87,38,38,0,0,0,4.586.087c2.614-.115,4.219-.412,4.236-.311a4.522,4.522,0,0,1-1.112.288,13.2,13.2,0,0,1-1.327.224c-.521.065-1.113.162-1.774.194a32.6,32.6,0,0,1-4.648.033A36.937,36.937,0,0,1-24.137-235.2Z" transform="translate(37.15 241.587)" fill="#c92526"/>
                </g>
              </g>
              <g id="Group_256" data-name="Group 256" transform="translate(96.21 108.648)">
                <g id="Group_255" data-name="Group 255" transform="translate(0)">
                  <path id="Path_162" data-name="Path 162" d="M107.809-250.157a13.252,13.252,0,0,0-4.58-2.319c-1.281-.351-2.119-.4-2.114-.5a5.183,5.183,0,0,1,2.206.115,11.69,11.69,0,0,1,4.834,2.264,11.689,11.689,0,0,1,3.339,4.164,5.2,5.2,0,0,1,.632,2.116c-.093.028-.341-.774-.984-1.936A13.247,13.247,0,0,0,107.809-250.157Z" transform="translate(-101.115 253.038)" fill="#c92526"/>
                </g>
              </g>
              <g id="Group_258" data-name="Group 258" transform="translate(83.901 142.812)">
                <g id="Group_257" data-name="Group 257" transform="translate(0 0)">
                  <path id="Path_163" data-name="Path 163" d="M80.3-173.966a50.118,50.118,0,0,0-6.971-1.89,6.334,6.334,0,0,1,2.15.062,21.138,21.138,0,0,1,5.027,1.308A21.143,21.143,0,0,1,85.066-172a6.328,6.328,0,0,1,1.611,1.426A50.115,50.115,0,0,0,80.3-173.966Z" transform="translate(-73.329 175.912)" fill="#c92526"/>
                </g>
              </g>
              <g id="Group_260" data-name="Group 260" transform="translate(107.993 177.102)">
                <g id="Group_259" data-name="Group 259">
                  <path id="Path_164" data-name="Path 164" d="M140.3-94.895a37.69,37.69,0,0,1-8.951-.066,25.933,25.933,0,0,1-2.672-.471,3.412,3.412,0,0,1-.956-.286c.018-.092,1.408.164,3.67.364a45.174,45.174,0,0,0,8.846-.1,45.15,45.15,0,0,0,8.647-1.871c2.161-.7,3.46-1.255,3.5-1.17a3.409,3.409,0,0,1-.869.491,25.853,25.853,0,0,1-2.5,1.053A37.7,37.7,0,0,1,140.3-94.895Z" transform="translate(-127.717 98.5)" fill="#c92526"/>
                </g>
              </g>
              <g id="Group_262" data-name="Group 262" transform="translate(52.652 159.931)">
                <g id="Group_261" data-name="Group 261" transform="translate(0)">
                  <path id="Path_165" data-name="Path 165" d="M15.6-136.028a31.548,31.548,0,0,0-4.958-.708,29.13,29.13,0,0,0-4.1.067c-2.329.21-3.743.577-3.768.476a3.621,3.621,0,0,1,.974-.333,10.206,10.206,0,0,1,1.174-.276c.463-.085.987-.205,1.578-.26a25.283,25.283,0,0,1,4.162-.189,28.829,28.829,0,0,1,5.06.679,28.838,28.838,0,0,1,4.838,1.634,25.241,25.241,0,0,1,3.647,2.014c.505.311.922.652,1.3.932a10.061,10.061,0,0,1,.93.768c.493.443.751.7.726.73-.066.079-1.172-.877-3.167-2.1a29.1,29.1,0,0,0-3.641-1.875A31.516,31.516,0,0,0,15.6-136.028Z" transform="translate(-2.782 137.265)" fill="#c92526"/>
                </g>
              </g>
              <g id="Group_264" data-name="Group 264" transform="translate(134.646 14.714)">
                <g id="Group_263" data-name="Group 263" transform="translate(0)">
                  <path id="Path_166" data-name="Path 166" d="M196.362-465.092a11.076,11.076,0,0,1,6.7,2.012,9.9,9.9,0,0,1,1.614,1.409c.176.182.291.343.376.445s.121.163.113.169a17.054,17.054,0,0,0-2.215-1.861,11.288,11.288,0,0,0-6.573-1.9,11.287,11.287,0,0,0-6.415,2.379,16.963,16.963,0,0,0-2.07,2.02c-.008-.006.027-.066.1-.177a5.769,5.769,0,0,1,.341-.472,9.9,9.9,0,0,1,1.505-1.526A11.075,11.075,0,0,1,196.362-465.092Z" transform="translate(-187.886 465.099)" fill="#b3191a"/>
                </g>
              </g>
              <g id="Group_266" data-name="Group 266" transform="translate(158.304 22.693)">
                <g id="Group_265" data-name="Group 265">
                  <path id="Path_167" data-name="Path 167" d="M244.884-439.029A13.012,13.012,0,0,0,250.2-435.7a25.426,25.426,0,0,0,2.566.614,2.991,2.991,0,0,1-.714-.032,11.057,11.057,0,0,1-1.911-.392,12.527,12.527,0,0,1-5.462-3.323,12.526,12.526,0,0,1-3.067-5.61,11.074,11.074,0,0,1-.3-1.926,3.017,3.017,0,0,1,0-.715,25.519,25.519,0,0,0,.494,2.591A13.009,13.009,0,0,0,244.884-439.029Z" transform="translate(-241.296 447.086)" fill="#b3191a"/>
                </g>
              </g>
              <g id="Group_268" data-name="Group 268" transform="translate(141.24 30.338)">
                <g id="Group_267" data-name="Group 267" transform="translate(0)">
                  <path id="Path_168" data-name="Path 168" d="M203.64-418.822a9.634,9.634,0,0,0,2.14,3.7,8.153,8.153,0,0,0,2.9,1.952,7.859,7.859,0,0,0,3.2.487.7.7,0,0,1-.225.05,4.6,4.6,0,0,1-.657.059,6.706,6.706,0,0,1-2.389-.41,8.139,8.139,0,0,1-3.015-1.959,9.686,9.686,0,0,1-2.221-3.8,15.4,15.4,0,0,1-.15-7.924c.22-1,.451-1.791.625-2.334a4.849,4.849,0,0,1,.3-.832,5.882,5.882,0,0,1-.2.862c-.14.551-.342,1.348-.535,2.343A15.863,15.863,0,0,0,203.64-418.822Z" transform="translate(-202.774 429.826)" fill="#b3191a"/>
                </g>
              </g>
              <g id="Group_270" data-name="Group 270" transform="translate(154.422 51.248)">
                <g id="Group_269" data-name="Group 269">
                  <path id="Path_169" data-name="Path 169" d="M240.574-378.749a21.215,21.215,0,0,0,5.168-2.483c1.227-.817,1.913-1.429,1.948-1.389a2.824,2.824,0,0,1-.458.456,14.01,14.01,0,0,1-1.378,1.1,19.2,19.2,0,0,1-5.194,2.586,19.211,19.211,0,0,1-5.731.909,14.11,14.11,0,0,1-1.759-.093,2.862,2.862,0,0,1-.637-.106c0-.053.918.048,2.392,0A21.208,21.208,0,0,0,240.574-378.749Z" transform="translate(-232.533 382.622)" fill="#b3191a"/>
                </g>
              </g>
              <g id="Group_272" data-name="Group 272" transform="translate(182.349 41.753)">
                <g id="Group_271" data-name="Group 271" transform="translate(0)">
                  <path id="Path_170" data-name="Path 170" d="M312.531-397.339a39.936,39.936,0,0,1,5.332,4.8c.724.834,1.43,1.611,2,2.41a26.956,26.956,0,0,1,1.573,2.23,28.311,28.311,0,0,1,2.53,4.76,1.912,1.912,0,0,1-.191-.323l-.5-.949a16.823,16.823,0,0,0-.82-1.48c-.344-.563-.7-1.226-1.186-1.9-.462-.69-.974-1.44-1.592-2.2-.578-.788-1.285-1.554-2.009-2.377a41.12,41.12,0,0,0-5.308-4.751,41.123,41.123,0,0,0-6.11-3.663c-1-.447-1.943-.9-2.866-1.215-.905-.366-1.774-.632-2.57-.869-.788-.267-1.526-.409-2.166-.571a16.858,16.858,0,0,0-1.657-.345l-1.053-.194a1.853,1.853,0,0,1-.365-.087,28.32,28.32,0,0,1,5.3,1.007,26.915,26.915,0,0,1,2.6.842c.933.311,1.884.756,2.9,1.2A39.937,39.937,0,0,1,312.531-397.339Z" transform="translate(-295.578 404.058)" fill="#b3191a"/>
                </g>
              </g>
              <g id="Group_274" data-name="Group 274" transform="translate(213.147 69.544)">
                <g id="Group_273" data-name="Group 273">
                  <path id="Path_171" data-name="Path 171" d="M368.355-325.016a66.2,66.2,0,0,1-.275,11.772c-.174,1.5-.354,2.706-.514,3.534l-.183.953a1.551,1.551,0,0,1-.082.329,1.526,1.526,0,0,1,.027-.338c.03-.224.074-.547.131-.961.126-.832.276-2.041.425-3.537A72.424,72.424,0,0,0,368.076-325a72.467,72.467,0,0,0-1.748-11.6c-.346-1.463-.655-2.641-.89-3.449-.111-.4-.2-.717-.257-.935a1.529,1.529,0,0,1-.071-.332,1.6,1.6,0,0,1,.125.315l.307.921c.268.8.607,1.973.978,3.434A66.2,66.2,0,0,1,368.355-325.016Z" transform="translate(-365.107 341.317)" fill="#b3191a"/>
                </g>
              </g>
              <g id="Group_276" data-name="Group 276" transform="translate(222.082 102.231)">
                <g id="Group_275" data-name="Group 275">
                  <path id="Path_172" data-name="Path 172" d="M390.889-253.789a21.233,21.233,0,0,1-2.993,9.879,19.374,19.374,0,0,1-1.829,2.566c-.234.289-.441.492-.572.637a1.183,1.183,0,0,1-.216.207c-.018-.016.249-.329.7-.912a22.429,22.429,0,0,0,1.742-2.6,21.77,21.77,0,0,0,2.885-9.791,21.78,21.78,0,0,0-2-10.01,22.472,22.472,0,0,0-1.5-2.743c-.4-.621-.638-.957-.619-.971a1.179,1.179,0,0,1,.2.225c.118.156.306.376.513.685a19.4,19.4,0,0,1,1.592,2.719A21.234,21.234,0,0,1,390.889-253.789Z" transform="translate(-385.278 267.526)" fill="#b3191a"/>
                </g>
              </g>
              <g id="Group_278" data-name="Group 278" transform="translate(195.161 141.745)">
                <g id="Group_277" data-name="Group 277" transform="translate(0 0)">
                  <path id="Path_173" data-name="Path 173" d="M334.277-177.51a25.276,25.276,0,0,1,7.8-.764,19.1,19.1,0,0,1,2.365.275,5.185,5.185,0,0,1,.853.186,5.248,5.248,0,0,1-.869-.078c-.554-.077-1.362-.145-2.359-.185a27.093,27.093,0,0,0-7.724.838,27.1,27.1,0,0,0-7.155,3.029c-.852.52-1.525.973-1.971,1.31a5.207,5.207,0,0,1-.721.491,5.223,5.223,0,0,1,.655-.578,19.089,19.089,0,0,1,1.932-1.391A25.29,25.29,0,0,1,334.277-177.51Z" transform="translate(-324.501 178.321)" fill="#b3191a"/>
                </g>
              </g>
              <g id="Group_280" data-name="Group 280" transform="translate(216.77 145.675)">
                <g id="Group_279" data-name="Group 279" transform="translate(0 0)">
                  <path id="Path_174" data-name="Path 174" d="M379.858-155.707a35.145,35.145,0,0,1-1.907,5.054,31.3,31.3,0,0,1-2.173,3.837,24.8,24.8,0,0,1-1.768,2.387l-.526.613a1.1,1.1,0,0,1-.2.2,1.093,1.093,0,0,1,.154-.237l.484-.644c.433-.548,1.016-1.376,1.688-2.427a33.8,33.8,0,0,0,2.1-3.84,36.859,36.859,0,0,0,1.871-5.021,36.846,36.846,0,0,0,1.049-5.254,33.733,33.733,0,0,0,.229-4.373c-.019-1.247-.079-2.258-.159-2.952-.031-.345-.055-.614-.073-.8a1.075,1.075,0,0,1-.007-.283,1.1,1.1,0,0,1,.062.275c.029.187.071.455.125.8a24.909,24.909,0,0,1,.249,2.96,31.364,31.364,0,0,1-.171,4.407A35.123,35.123,0,0,1,379.858-155.707Z" transform="translate(-373.285 169.448)" fill="#b3191a"/>
                </g>
              </g>
              <g id="Group_282" data-name="Group 282" transform="translate(180.87 201.494)">
                <g id="Group_281" data-name="Group 281" transform="translate(0 0)">
                  <path id="Path_175" data-name="Path 175" d="M293.988-37.424a5.233,5.233,0,0,0,2.636.881,9.411,9.411,0,0,0,2.317-.169c1.31-.257,2.113-.49,2.125-.443a2.328,2.328,0,0,1-.547.211c-.358.115-.879.276-1.539.426a8.891,8.891,0,0,1-2.372.233,5.353,5.353,0,0,1-2.781-.909,3.66,3.66,0,0,1-1.544-2.472,3.526,3.526,0,0,1,.447-2.347,3.547,3.547,0,0,1,1.111-1.168,1.473,1.473,0,0,1,.534-.251,4.381,4.381,0,0,0-1.473,1.516,3.4,3.4,0,0,0-.364,2.209A3.449,3.449,0,0,0,293.988-37.424Z" transform="translate(-292.24 43.435)" fill="#b3191a"/>
                </g>
              </g>
              <g id="Group_284" data-name="Group 284" transform="translate(188.978 161.367)">
                <g id="Group_283" data-name="Group 283">
                  <path id="Path_176" data-name="Path 176" d="M314.405-124.407a29.44,29.44,0,0,0,4.629,5.689c.683.648,1.256,1.154,1.667,1.485a4.664,4.664,0,0,1,.615.546,4.621,4.621,0,0,1-.682-.46,20.234,20.234,0,0,1-1.734-1.426,26.992,26.992,0,0,1-4.733-5.686,27,27,0,0,1-3-6.763,20.266,20.266,0,0,1-.509-2.186,4.636,4.636,0,0,1-.11-.816,4.667,4.667,0,0,1,.217.793c.114.515.313,1.253.592,2.152A29.461,29.461,0,0,0,314.405-124.407Z" transform="translate(-310.545 134.024)" fill="#b3191a"/>
                </g>
              </g>
              <g id="Group_286" data-name="Group 286" transform="translate(200.911 180.562)">
                <g id="Group_285" data-name="Group 285" transform="translate(0 0)">
                  <path id="Path_177" data-name="Path 177" d="M343.61-83.54a37.932,37.932,0,0,1-4.173,4.327c-.579.508-1.06.9-1.4,1.162a3.043,3.043,0,0,1-.549.383,3.082,3.082,0,0,1,.479-.466c.322-.284.781-.7,1.34-1.225a46.921,46.921,0,0,0,4.09-4.359,46.867,46.867,0,0,0,3.481-4.859c.405-.65.725-1.182.941-1.553a3.088,3.088,0,0,1,.364-.561,3.05,3.05,0,0,1-.269.613c-.186.388-.481.936-.867,1.6A37.942,37.942,0,0,1,343.61-83.54Z" transform="translate(-337.484 90.691)" fill="#b3191a"/>
                </g>
              </g>
              <g id="Group_288" data-name="Group 288" transform="translate(152.655 222.125)">
                <g id="Group_287" data-name="Group 287" transform="translate(0 0)">
                  <path id="Path_178" data-name="Path 178" d="M239.742,7.878C242.786,6.7,245.491,5.5,247.43,4.6l2.293-1.081a5.876,5.876,0,0,1,.853-.374,5.94,5.94,0,0,1-.8.471c-.525.289-1.3.687-2.257,1.163-1.921.951-4.62,2.18-7.673,3.363s-5.876,2.09-7.937,2.681c-1.031.3-1.869.52-2.452.66a5.926,5.926,0,0,1-.912.193,5.922,5.922,0,0,1,.883-.3l2.423-.745C233.892,9.992,236.7,9.055,239.742,7.878Z" transform="translate(-228.543 -3.14)" fill="#b3191a"/>
                </g>
              </g>
              <g id="Group_290" data-name="Group 290" transform="translate(75.965 224.59)">
                <g id="Group_289" data-name="Group 289" transform="translate(0 0)">
                  <path id="Path_179" data-name="Path 179" d="M64.116,12.881a41.241,41.241,0,0,0,6.617,1.678c.863.144,1.565.244,2.052.3a4.012,4.012,0,0,1,.754.124,4.037,4.037,0,0,1-.764-.016c-.491-.024-1.2-.095-2.072-.214a35.666,35.666,0,0,1-6.679-1.609,35.653,35.653,0,0,1-6.243-2.866c-.758-.446-1.359-.829-1.76-1.114a3.918,3.918,0,0,1-.61-.46,4.059,4.059,0,0,1,.669.369c.418.256,1.032.612,1.8,1.033A41.183,41.183,0,0,0,64.116,12.881Z" transform="translate(-55.411 -8.704)" fill="#b3191a"/>
                </g>
              </g>
              <g id="Group_292" data-name="Group 292" transform="translate(45.167 211.385)">
                <g id="Group_291" data-name="Group 291" transform="translate(0 0)">
                  <path id="Path_180" data-name="Path 180" d="M-7.458-16.777A41.993,41.993,0,0,0-2.328-14.5c.676.246,1.226.437,1.609.563a2.731,2.731,0,0,1,.586.227,2.718,2.718,0,0,1-.617-.123c-.393-.094-.955-.256-1.642-.48a33.807,33.807,0,0,1-5.2-2.211,33.762,33.762,0,0,1-4.754-3.048c-.572-.442-1.023-.815-1.323-1.087a2.735,2.735,0,0,1-.449-.44,2.7,2.7,0,0,1,.518.356c.319.245.787.593,1.371,1.013A41.883,41.883,0,0,0-7.458-16.777Z" transform="translate(14.116 21.106)" fill="#b3191a"/>
                </g>
              </g>
              <g id="Group_294" data-name="Group 294" transform="translate(47.843 206.857)">
                <g id="Group_293" data-name="Group 293" transform="translate(0 0)">
                  <path id="Path_181" data-name="Path 181" d="M-2.858-27.744a40.249,40.249,0,0,0,3.982,2.029,17.916,17.916,0,0,1,1.7.762,1.74,1.74,0,0,1-.487-.121c-.309-.093-.748-.249-1.285-.458A29.491,29.491,0,0,1-3-27.5a29.5,29.5,0,0,1-3.7-2.562c-.446-.365-.8-.672-1.029-.9s-.357-.351-.344-.365a18.075,18.075,0,0,1,1.5,1.1A40.227,40.227,0,0,0-2.858-27.744Z" transform="translate(8.075 31.327)" fill="#b3191a"/>
                </g>
              </g>
              <g id="Group_296" data-name="Group 296" transform="translate(34.324 198.197)">
                <g id="Group_295" data-name="Group 295" transform="translate(0 0)">
                  <path id="Path_182" data-name="Path 182" d="M-35.083-47.925a37.568,37.568,0,0,1,3.323,3.16,37.674,37.674,0,0,1-3.509-2.951,37.643,37.643,0,0,1-3.323-3.16A37.674,37.674,0,0,1-35.083-47.925Z" transform="translate(38.594 50.878)" fill="#b3191a"/>
                </g>
              </g>
              <g id="Group_298" data-name="Group 298" transform="translate(24.252 156.416)">
                <g id="Group_297" data-name="Group 297" transform="translate(0 0)">
                  <path id="Path_183" data-name="Path 183" d="M-60.2-139.77a3.688,3.688,0,0,0-.843,2.563,2.309,2.309,0,0,0,1.366,1.649,2.443,2.443,0,0,0,1.491.2c.356-.078.533-.193.548-.166a1.358,1.358,0,0,1-.522.272,2.424,2.424,0,0,1-1.6-.124,2.486,2.486,0,0,1-1.541-1.785,3.866,3.866,0,0,1,.865-2.765,22.4,22.4,0,0,1,3.438-3.941c.5-.448.92-.789,1.22-1.011a2.213,2.213,0,0,1,.486-.321c.028.036-.617.551-1.571,1.477A26.15,26.15,0,0,0-60.2-139.77Z" transform="translate(61.333 145.201)" fill="#b3191a"/>
                </g>
              </g>
              <g id="Group_300" data-name="Group 300" transform="translate(34.743 150.799)">
                <g id="Group_299" data-name="Group 299">
                  <path id="Path_184" data-name="Path 184" d="M-22.587-156.371a38.2,38.2,0,0,1,6.853-1.355c1.072-.075,2.09-.171,3.047-.148a25.837,25.837,0,0,1,2.656.085,27.016,27.016,0,0,1,5.18.837,1.754,1.754,0,0,1-.363-.041l-1.028-.171a15.954,15.954,0,0,0-1.63-.233c-.639-.064-1.362-.178-2.171-.194-.807-.046-1.69-.089-2.64-.05-.95-.012-1.961.091-3.025.173a39.346,39.346,0,0,0-6.8,1.367,39.336,39.336,0,0,0-6.408,2.645c-.93.524-1.827,1-2.609,1.539-.811.5-1.521,1.024-2.166,1.51-.664.463-1.2.96-1.7,1.369a16.013,16.013,0,0,0-1.225,1.1l-.759.714a1.836,1.836,0,0,1-.279.237,27.021,27.021,0,0,1,3.839-3.577,25.829,25.829,0,0,1,2.159-1.548c.783-.551,1.681-1.038,2.615-1.572A38.21,38.21,0,0,1-22.587-156.371Z" transform="translate(37.648 157.882)" fill="#b3191a"/>
                </g>
              </g>
              <g id="Group_302" data-name="Group 302" transform="translate(80.119 159.99)">
                <g id="Group_301" data-name="Group 301" transform="translate(0 0)">
                  <path id="Path_185" data-name="Path 185" d="M80.082-128.151a48.064,48.064,0,0,0,6.718,1.724,43.966,43.966,0,0,0,5.635.607c.806.06,1.537.034,2.179.041s1.195-.011,1.646-.038l1.041-.041a1.779,1.779,0,0,1,.365,0,1.8,1.8,0,0,1-.361.051l-1.04.093c-.451.044-1.005.083-1.65.085s-1.378.048-2.189,0a41.315,41.315,0,0,1-5.672-.551,46.139,46.139,0,0,1-6.765-1.714,46.2,46.2,0,0,1-6.392-2.8,41.288,41.288,0,0,1-4.815-3.047c-.669-.46-1.224-.943-1.728-1.344s-.92-.769-1.25-1.08l-.763-.712a1.773,1.773,0,0,1-.253-.262,1.783,1.783,0,0,1,.291.221l.8.672c.34.3.761.656,1.277,1.04s1.072.858,1.745,1.306a43.952,43.952,0,0,0,4.82,2.98A48.033,48.033,0,0,0,80.082-128.151Z" transform="translate(-64.79 137.133)" fill="#b3191a"/>
                </g>
              </g>
              <g id="Group_304" data-name="Group 304" transform="translate(122.506 153.956)">
                <g id="Group_303" data-name="Group 303" transform="translate(0 0)">
                  <path id="Path_186" data-name="Path 186" d="M172.276-139.9a7.867,7.867,0,0,1-3.711,3.691,13.047,13.047,0,0,1-4.138,1.173c-1.215.156-2.2.189-2.886.211l-.786.012a1.023,1.023,0,0,1-.275-.016,1.011,1.011,0,0,1,.272-.041l.783-.064c.679-.056,1.664-.119,2.864-.3a13.291,13.291,0,0,0,4.049-1.208,7.7,7.7,0,0,0,3.572-3.574,5.914,5.914,0,0,0-.187-4.963,10.512,10.512,0,0,0-2.571-3.328c-.9-.812-1.7-1.389-2.246-1.8l-.628-.471a1.017,1.017,0,0,1-.209-.179,1.032,1.032,0,0,1,.241.133l.659.428a23.571,23.571,0,0,1,2.314,1.739,10.447,10.447,0,0,1,2.674,3.367,7.074,7.074,0,0,1,.679,2.472A5.624,5.624,0,0,1,172.276-139.9Z" transform="translate(-160.48 150.755)" fill="#b3191a"/>
                </g>
              </g>
              <g id="Group_306" data-name="Group 306" transform="translate(87.678 150.56)">
                <g id="Group_305" data-name="Group 305" transform="translate(0 0)">
                  <path id="Path_187" data-name="Path 187" d="M92.354-152.475c-1.646-.457-3.229-.871-4.624-1.4a14.337,14.337,0,0,1-3.52-1.8,7.664,7.664,0,0,1-1.878-1.892,4.243,4.243,0,0,1-.476-.854,9.142,9.142,0,0,0,2.469,2.585,14.819,14.819,0,0,0,3.494,1.722c1.385.506,2.962.91,4.61,1.368l8.432,2.367,2.547.749.689.217a.891.891,0,0,1,.235.094.865.865,0,0,1-.25-.039l-.7-.167-2.571-.663Z" transform="translate(-81.855 158.421)" fill="#b3191a"/>
                </g>
              </g>
              <g id="Group_308" data-name="Group 308" transform="translate(52.129 131.841)">
                <g id="Group_307" data-name="Group 307" transform="translate(0 0)">
                  <path id="Path_188" data-name="Path 188" d="M4.461-191.248a14.448,14.448,0,0,1-2.712-6.5A12.828,12.828,0,0,1,1.6-199.9a3.652,3.652,0,0,1,.063-.784,28.213,28.213,0,0,0,.276,2.9,15,15,0,0,0,2.74,6.367,15,15,0,0,0,5.357,4.4,28.161,28.161,0,0,0,2.706,1.068,3.578,3.578,0,0,1-.771-.157,12.842,12.842,0,0,1-2.019-.733A14.442,14.442,0,0,1,4.461-191.248Z" transform="translate(-1.602 200.68)" fill="#b3191a"/>
                </g>
              </g>
              <g id="Group_310" data-name="Group 310" transform="translate(32.842 121.74)">
                <g id="Group_309" data-name="Group 309">
                  <path id="Path_189" data-name="Path 189" d="M-32.668-220.612a20.172,20.172,0,0,0-3.414-1.677,18.155,18.155,0,0,0-3-.82c-1.748-.313-2.86-.277-2.858-.34a4.086,4.086,0,0,1,.777-.031,13.073,13.073,0,0,1,2.115.176,16.78,16.78,0,0,1,3.055.773,19.227,19.227,0,0,1,3.475,1.682,19.244,19.244,0,0,1,3.028,2.4,16.781,16.781,0,0,1,2.026,2.414,12.991,12.991,0,0,1,1.079,1.827,4.028,4.028,0,0,1,.31.713c-.055.029-.507-.988-1.55-2.426a18.128,18.128,0,0,0-2.045-2.343A20.16,20.16,0,0,0-32.668-220.612Z" transform="translate(41.941 223.483)" fill="#b3191a"/>
                </g>
              </g>
              <g id="Group_312" data-name="Group 312" transform="translate(12.781 122.044)">
                <g id="Group_311" data-name="Group 311">
                  <path id="Path_190" data-name="Path 190" d="M-76.312-213a28.969,28.969,0,0,0,5.435,1.931c.87.179,1.693.374,2.48.454a19.526,19.526,0,0,0,2.188.205c.671.063,1.28.023,1.814.023a11.567,11.567,0,0,0,1.37-.067l.866-.065a1.248,1.248,0,0,1,.305,0,19.325,19.325,0,0,1-4.363.31,18.677,18.677,0,0,1-2.21-.173,24.561,24.561,0,0,1-2.509-.432,28.154,28.154,0,0,1-5.5-1.93,28.148,28.148,0,0,1-4.926-3.112,24.654,24.654,0,0,1-1.9-1.7,18.7,18.7,0,0,1-1.507-1.625,19.3,19.3,0,0,1-2.465-3.613,1.266,1.266,0,0,1,.186.242l.487.72a11.549,11.549,0,0,0,.8,1.115,18.023,18.023,0,0,0,1.145,1.408,19.571,19.571,0,0,0,1.519,1.588c.551.568,1.215,1.092,1.895,1.663A28.972,28.972,0,0,0-76.312-213Z" transform="translate(87.229 222.797)" fill="#b3191a"/>
                </g>
              </g>
              <g id="Group_314" data-name="Group 314" transform="translate(8.858 104.092)">
                <g id="Group_313" data-name="Group 313">
                  <path id="Path_191" data-name="Path 191" d="M-95.832-257.365a28.812,28.812,0,0,1-.25-4.216c.01-.54.032-.977.062-1.278a1.518,1.518,0,0,1,.071-.466,15.062,15.062,0,0,1,.066,1.743,41.045,41.045,0,0,0,.329,4.18,41.079,41.079,0,0,0,.774,4.121,15.091,15.091,0,0,1,.392,1.7,1.526,1.526,0,0,1-.19-.431c-.107-.283-.242-.7-.393-1.218A28.852,28.852,0,0,1-95.832-257.365Z" transform="translate(96.086 263.325)" fill="#b3191a"/>
                </g>
              </g>
              <g id="Group_316" data-name="Group 316" transform="translate(20.924 84.53)">
                <g id="Group_315" data-name="Group 315">
                  <path id="Path_192" data-name="Path 192" d="M-63.714-301.984a10.1,10.1,0,0,1-.514,5.621,9.069,9.069,0,0,1-.787,1.535,2.668,2.668,0,0,1-.386.5,19.2,19.2,0,0,0,.988-2.1,10.454,10.454,0,0,0,.425-5.5,7.55,7.55,0,0,0-2.736-4.69,5.108,5.108,0,0,0-2.12-.854c0-.01.057-.014.164-.013a2.36,2.36,0,0,1,.469.043,4.12,4.12,0,0,1,1.6.662A7.477,7.477,0,0,1-63.714-301.984Z" transform="translate(68.845 307.487)" fill="#b3191a"/>
                </g>
              </g>
              <g id="Group_318" data-name="Group 318" transform="translate(178.139 70.173)">
                <g id="Group_317" data-name="Group 317">
                  <path id="Path_193" data-name="Path 193" d="M295.9-339.165a9.308,9.308,0,0,0-4.994.36,7.876,7.876,0,0,0-3.3,2.416,6.841,6.841,0,0,0-1.261,2.485,8.388,8.388,0,0,1-.234,1.023,2.548,2.548,0,0,1,.021-1.068,6.365,6.365,0,0,1,1.159-2.679,7.991,7.991,0,0,1,3.426-2.656,9.558,9.558,0,0,1,5.285-.43A13.507,13.507,0,0,1,300.9-337.7a20.727,20.727,0,0,1,3.317,2.742c.858.87,1.5,1.62,1.928,2.149a3.681,3.681,0,0,1,.615.865c-.069.062-1.06-1.075-2.818-2.729A16.626,16.626,0,0,0,295.9-339.165Z" transform="translate(-286.075 339.898)" fill="#c92526"/>
                </g>
              </g>
              <g id="Group_320" data-name="Group 320" transform="translate(188.049 108.416)">
                <g id="Group_319" data-name="Group 319">
                  <path id="Path_194" data-name="Path 194" d="M312.48-242.64a43.08,43.08,0,0,0-.021-7.705,20.536,20.536,0,0,1-.157-3.218,16.689,16.689,0,0,1,.551,3.18,34.4,34.4,0,0,1,.184,7.8,17.435,17.435,0,0,1-2.448,7.418,11.2,11.2,0,0,1-1.468,1.874c-.4.4-.646.585-.67.56-.075-.07.827-.928,1.8-2.638A18.961,18.961,0,0,0,312.48-242.64Z" transform="translate(-308.446 253.563)" fill="#c92526"/>
                </g>
              </g>
              <g id="Group_322" data-name="Group 322" transform="translate(158.497 149.102)">
                <g id="Group_321" data-name="Group 321" transform="translate(0 0)">
                  <path id="Path_195" data-name="Path 195" d="M241.733-146.956a23.668,23.668,0,0,1,2.779-10.925,20.568,20.568,0,0,1,1.856-2.889,4.8,4.8,0,0,1,.837-.94c.088.063-1.069,1.443-2.341,4.01a24.886,24.886,0,0,0-2.572,10.748,24.891,24.891,0,0,0,2.449,10.776c1.243,2.581,2.384,3.973,2.3,4.036a4.8,4.8,0,0,1-.827-.95,20.544,20.544,0,0,1-1.823-2.91A23.668,23.668,0,0,1,241.733-146.956Z" transform="translate(-241.732 161.711)" fill="#c92526"/>
                </g>
              </g>
              <g id="Group_324" data-name="Group 324" transform="translate(103.328 195.31)">
                <g id="Group_323" data-name="Group 323" transform="translate(0)">
                  <path id="Path_196" data-name="Path 196" d="M130.8-55.037a49.724,49.724,0,0,1-9.7-.708c-1.227-.218-2.212-.433-2.883-.618a4.089,4.089,0,0,1-1.031-.334c.021-.089,1.524.227,3.975.561a61.374,61.374,0,0,0,9.628.54,61.4,61.4,0,0,0,9.589-1.025c2.431-.457,3.916-.849,3.941-.761a4.045,4.045,0,0,1-1.013.386c-.661.219-1.634.483-2.848.763A49.748,49.748,0,0,1,130.8-55.037Z" transform="translate(-117.186 57.395)" fill="#c92526"/>
                </g>
              </g>
              <g id="Group_326" data-name="Group 326" transform="translate(57.546 173.945)">
                <g id="Group_325" data-name="Group 325">
                  <path id="Path_197" data-name="Path 197" d="M18.506-104.727a10.6,10.6,0,0,1,4.706-.9,17.673,17.673,0,0,1,3.847.564c1.069.27,1.914.547,2.494.746a3.144,3.144,0,0,1,.883.37,34.584,34.584,0,0,1-3.465-.73,19.587,19.587,0,0,0-3.766-.435,10.536,10.536,0,0,0-4.462.89,7.693,7.693,0,0,0-3.3,3.023,8.841,8.841,0,0,0-1.2,3.517,11.81,11.81,0,0,0,.271,3.464,2.49,2.49,0,0,1-.385-.882,7.215,7.215,0,0,1-.28-2.617,8.782,8.782,0,0,1,1.147-3.743A7.988,7.988,0,0,1,18.506-104.727Z" transform="translate(-13.831 105.628)" fill="#c92526"/>
                </g>
              </g>
              <g id="Group_328" data-name="Group 328" transform="translate(64.176 194.415)">
                <g id="Group_327" data-name="Group 327">
                  <path id="Path_198" data-name="Path 198" d="M34.8-54.143a23.805,23.805,0,0,1-4.492-3.468,7.422,7.422,0,0,1-1.508-1.8c.128-.128,2.52,2.563,6.287,4.789a52.224,52.224,0,0,0,7.2,3.265,7.418,7.418,0,0,1-2.3-.474A23.8,23.8,0,0,1,34.8-54.143Z" transform="translate(-28.797 59.417)" fill="#c92526"/>
                </g>
              </g>
              <g id="Group_330" data-name="Group 330" transform="translate(97.754 208.266)">
                <g id="Group_329" data-name="Group 329" transform="translate(0 0)">
                  <path id="Path_199" data-name="Path 199" d="M111.411-26.594a17.643,17.643,0,0,1-4.91-.652,5.615,5.615,0,0,1-1.9-.773,37.044,37.044,0,0,0,6.8.866,37.017,37.017,0,0,0,6.789-.976,5.611,5.611,0,0,1-1.887.8A17.631,17.631,0,0,1,111.411-26.594Z" transform="translate(-104.602 28.147)" fill="#c92526"/>
                </g>
              </g>
              <g id="Group_332" data-name="Group 332" transform="translate(118.783 117.828)">
                <g id="Group_331" data-name="Group 331">
                  <path id="Path_200" data-name="Path 200" d="M157.906-220.227a13.317,13.317,0,0,1-5.631-8,8.628,8.628,0,0,1-.117-3.014,3.257,3.257,0,0,1,.272-1.069,13.285,13.285,0,0,0,.23,4,13.5,13.5,0,0,0,5.56,7.629,27.877,27.877,0,0,0,8.985,3.614c2.44.586,3.97.893,3.953.979a4.133,4.133,0,0,1-1.095-.089c-.7-.1-1.707-.254-2.945-.5A25.606,25.606,0,0,1,157.906-220.227Z" transform="translate(-152.075 232.315)" fill="#c92526"/>
                </g>
              </g>
              <g id="Group_334" data-name="Group 334" transform="translate(47.045 103.185)">
                <g id="Group_333" data-name="Group 333" transform="translate(0)">
                  <path id="Path_201" data-name="Path 201" d="M-1.719-257.316a20.829,20.829,0,0,1-4.566-1.766,7.368,7.368,0,0,1-2.991-2.694,4.271,4.271,0,0,1-.566-2.658,1.688,1.688,0,0,1,.335-.937c.047.017-.094.344-.118.957a4.345,4.345,0,0,0,.689,2.437c1.141,1.894,4.118,3.241,7.354,4.12a22.883,22.883,0,0,0,8.626.479c2.215-.292,3.533-.773,3.564-.673a3.351,3.351,0,0,1-.9.4,17.486,17.486,0,0,1-2.6.665A21.062,21.062,0,0,1-1.719-257.316Z" transform="translate(9.876 265.372)" fill="#c92526"/>
                </g>
              </g>
              <g id="Group_336" data-name="Group 336" transform="translate(62.67 70.486)">
                <g id="Group_335" data-name="Group 335" transform="translate(0)">
                  <path id="Path_202" data-name="Path 202" d="M34.974-337.53a10.139,10.139,0,0,0-6.713-1c-1.772.3-2.83.712-2.861.622-.013-.033.234-.174.709-.37a12.926,12.926,0,0,1,2.079-.641,11.512,11.512,0,0,1,3.238-.248,8.935,8.935,0,0,1,3.829,1.15,7.021,7.021,0,0,1,2.793,2.878,6.141,6.141,0,0,1,.623,3.218,5.006,5.006,0,0,1-.647,2.106c-.27.447-.491.639-.512.621a7.176,7.176,0,0,0,.764-2.75,6.04,6.04,0,0,0-.687-2.959A6.758,6.758,0,0,0,34.974-337.53Z" transform="translate(-25.399 339.192)" fill="#c92526"/>
                </g>
              </g>
              <g id="Group_338" data-name="Group 338" transform="translate(29.785 57.204)">
                <g id="Group_337" data-name="Group 337">
                  <path id="Path_203" data-name="Path 203" d="M-45.318-359.94a22.984,22.984,0,0,0,5.984,4,19.617,19.617,0,0,1,2.688,1.4,13.987,13.987,0,0,1-2.856-1.046,20.222,20.222,0,0,1-6.211-3.96,10.331,10.331,0,0,1-3.122-6.635,6.565,6.565,0,0,1,.265-2.241,1.967,1.967,0,0,1,.337-.754,12.591,12.591,0,0,0-.207,2.967A10.581,10.581,0,0,0-45.318-359.94Z" transform="translate(48.841 369.175)" fill="#c92526"/>
                </g>
              </g>
              <g id="Group_340" data-name="Group 340" transform="translate(28.408 32.909)">
                <g id="Group_339" data-name="Group 339">
                  <path id="Path_204" data-name="Path 204" d="M-47.388-416.009a30.643,30.643,0,0,0-2.24,3.888,28.643,28.643,0,0,0-1.352,3.412c-.641,1.994-.855,3.285-.953,3.269a2.939,2.939,0,0,1,.06-.921,17.678,17.678,0,0,1,.513-2.461,24.024,24.024,0,0,1,1.264-3.515,27.461,27.461,0,0,1,2.247-3.989,27.528,27.528,0,0,1,2.928-3.519,24.029,24.029,0,0,1,2.836-2.432,17.662,17.662,0,0,1,2.117-1.355,2.928,2.928,0,0,1,.84-.384c.05.085-1.08.745-2.716,2.053a28.66,28.66,0,0,0-2.707,2.478A30.644,30.644,0,0,0-47.388-416.009Z" transform="translate(51.951 424.022)" fill="#c92526"/>
                </g>
              </g>
              <g id="Group_342" data-name="Group 342" transform="translate(66.759 11.229)">
                <g id="Group_341" data-name="Group 341" transform="translate(0)">
                  <path id="Path_205" data-name="Path 205" d="M47.187-471.85a62.712,62.712,0,0,0-8.919,2.05c-2.243.692-3.6,1.212-3.638,1.128a3.657,3.657,0,0,1,.912-.476c.6-.277,1.488-.632,2.6-1.028A49.515,49.515,0,0,1,47.1-472.4a49.52,49.52,0,0,1,9.217-.525c1.181.049,2.135.124,2.79.212a3.655,3.655,0,0,1,1.012.184c-.008.089-1.462,0-3.809,0A62.731,62.731,0,0,0,47.187-471.85Z" transform="translate(-34.63 472.965)" fill="#c92526"/>
                </g>
              </g>
              <g id="Group_344" data-name="Group 344" transform="translate(99.404 7.307)">
                <g id="Group_343" data-name="Group 343" transform="translate(0)">
                  <path id="Path_206" data-name="Path 206" d="M116.673-478.983a18.8,18.8,0,0,0-5.8-2.167,14.5,14.5,0,0,1-2.541-.645,10.588,10.588,0,0,1,2.617.256,16.4,16.4,0,0,1,6.026,2.082,8.462,8.462,0,0,1,3.78,5.1,5.311,5.311,0,0,1,.085,1.956c-.074.457-.171.695-.2.687a10.928,10.928,0,0,0-.267-2.546A8.63,8.63,0,0,0,116.673-478.983Z" transform="translate(-108.328 481.82)" fill="#c92526"/>
                </g>
              </g>
              <g id="Group_346" data-name="Group 346" transform="translate(87.983 41.641)">
                <g id="Group_345" data-name="Group 345" transform="translate(0)">
                  <path id="Path_207" data-name="Path 207" d="M82.647-397.207a9.5,9.5,0,0,1,.719-5.269,4.615,4.615,0,0,1,1.22-1.832c.078.052-.4.742-.854,1.982a10.316,10.316,0,0,0-.532,5.035,10.315,10.315,0,0,0,2.007,4.649c.8,1.048,1.463,1.565,1.4,1.638a4.62,4.62,0,0,1-1.71-1.387A9.506,9.506,0,0,1,82.647-397.207Z" transform="translate(-82.543 404.31)" fill="#c92526"/>
                </g>
              </g>
              <g id="Group_348" data-name="Group 348" transform="translate(157.195 91.148)">
                <g id="Group_347" data-name="Group 347">
                  <path id="Path_208" data-name="Path 208" d="M248.255-284.128a13.177,13.177,0,0,1-6.552,2.546,10.913,10.913,0,0,1-2.14.011,1.966,1.966,0,0,1-.771-.156c.006-.1,1.117.016,2.862-.248a14.077,14.077,0,0,0,6.266-2.6,14.079,14.079,0,0,0,4.246-5.29c.741-1.6.941-2.7,1.037-2.679a1.969,1.969,0,0,1-.066.784,10.922,10.922,0,0,1-.608,2.052A13.178,13.178,0,0,1,248.255-284.128Z" transform="translate(-238.792 292.545)" fill="#c92526"/>
                </g>
              </g>
              <g id="Group_350" data-name="Group 350" transform="translate(147.077 112.095)">
                <g id="Group_349" data-name="Group 349" transform="translate(0)">
                  <path id="Path_209" data-name="Path 209" d="M225.137-232.159a19.963,19.963,0,0,0,1.82-9.179c-.1-2.428-.542-3.895-.439-3.918a3.528,3.528,0,0,1,.355,1.011,16.2,16.2,0,0,1,.479,2.883,18.939,18.939,0,0,1-1.709,9.44,18.936,18.936,0,0,1-6.165,7.35,16.234,16.234,0,0,1-2.523,1.475,3.524,3.524,0,0,1-1,.373c-.047-.093,1.362-.692,3.293-2.167A19.962,19.962,0,0,0,225.137-232.159Z" transform="translate(-215.949 245.256)" fill="#c92526"/>
                </g>
              </g>
              <g id="Group_352" data-name="Group 352" transform="translate(192.723 88.09)">
                <g id="Group_351" data-name="Group 351" transform="translate(0)">
                  <path id="Path_210" data-name="Path 210" d="M326.02-293.174a34.443,34.443,0,0,0-4.825-4.568,23.36,23.36,0,0,1-2.194-1.7,9.818,9.818,0,0,1,2.428,1.384,27.2,27.2,0,0,1,5.014,4.521,27.216,27.216,0,0,1,3.748,5.615,9.8,9.8,0,0,1,1.018,2.6,23.165,23.165,0,0,1-1.367-2.417A34.473,34.473,0,0,0,326.02-293.174Z" transform="translate(-318.999 299.449)" fill="#c92526"/>
                </g>
              </g>
            </g>
            <g id="Group_357" data-name="Group 357" transform="translate(0 0)">
              <g id="Group_354" data-name="Group 354" transform="translate(20.345 30.176)" opacity="0.1">
                <g id="Group_353" data-name="Group 353">
                  <path id="Path_211" data-name="Path 211" d="M107.926-430.192a118.624,118.624,0,0,1,20.345,66.619A119.176,119.176,0,0,1,9.1-244.4a118.72,118.72,0,0,1-79.248-30.176,119.056,119.056,0,0,0,98.831,52.557A119.176,119.176,0,0,0,147.854-341.193,118.873,118.873,0,0,0,107.926-430.192Z" transform="translate(70.153 430.192)"/>
                </g>
              </g>
              <g id="Group_356" data-name="Group 356" opacity="0.05">
                <g id="Group_355" data-name="Group 355">
                  <path id="Path_212" data-name="Path 212" d="M44.5-472.579A119.993,119.993,0,0,0,43-491.46a118.948,118.948,0,0,0-39.909-6.856A119.176,119.176,0,0,0-116.082-379.14a120,120,0,0,0,1.495,18.882A118.96,118.96,0,0,0-74.678-353.4,119.176,119.176,0,0,0,44.5-472.579Z" transform="translate(116.082 498.316)" fill="#fff"/>
                </g>
              </g>
            </g>
          </g>
        </g>
      </g>
    </g>
    <g id="Group_360" data-name="Group 360" transform="translate(-48.118 -860.792)">
      <path id="Path_213" data-name="Path 213" d="M140.254-860.792c.509,1.625,1.068,3.236,1.514,4.877a7.126,7.126,0,0,0,5.446,5.373,23.02,23.02,0,0,1,4.815,1.821c-1.54.487-3.059,1.058-4.624,1.443a7.235,7.235,0,0,0-5.716,5.7,20.986,20.986,0,0,1-1.762,4.644c-.492-1.54-1.07-3.058-1.458-4.623a7.276,7.276,0,0,0-5.706-5.713,21.993,21.993,0,0,1-4.636-1.75c1.487-.48,2.951-1.057,4.466-1.421a7.37,7.37,0,0,0,5.913-5.9c.355-1.5.922-2.958,1.394-4.435Z" transform="translate(-90.813 860.792)"/>
      <path id="Path_214" data-name="Path 214" d="M51.551-850.874c.321,1.026.674,2.044.956,3.081a4.5,4.5,0,0,0,3.44,3.394,14.493,14.493,0,0,1,3.041,1.15c-.973.307-1.932.668-2.921.912a4.569,4.569,0,0,0-3.61,3.6,13.3,13.3,0,0,1-1.113,2.933c-.311-.972-.676-1.931-.921-2.92a4.6,4.6,0,0,0-3.6-3.608,13.893,13.893,0,0,1-2.928-1.105c.94-.3,1.864-.668,2.821-.9a4.655,4.655,0,0,0,3.734-3.728c.225-.95.583-1.868.881-2.8Z" transform="translate(-43.89 855.267)"/>
      <path id="Path_215" data-name="Path 215" d="M239.9-850.874c.321,1.026.674,2.044.956,3.081a4.5,4.5,0,0,0,3.44,3.394,14.511,14.511,0,0,1,3.041,1.15c-.973.307-1.933.668-2.921.912a4.569,4.569,0,0,0-3.61,3.6,13.254,13.254,0,0,1-1.113,2.933c-.311-.972-.676-1.931-.92-2.92a4.6,4.6,0,0,0-3.6-3.608,13.881,13.881,0,0,1-2.928-1.105c.939-.3,1.864-.668,2.821-.9a4.655,4.655,0,0,0,3.735-3.728c.224-.95.582-1.868.88-2.8Z" transform="translate(-148.808 855.267)"/>
    </g>
    <g id="Group_361" data-name="Group 361" transform="translate(-73.389 -743.714)">
      <path id="Path_216" data-name="Path 216" d="M-9.413-583.52H.4v3.747H-13.16v-16.71h3.747Z" transform="translate(13.16 596.483)" fill="#fff"/>
      <path id="Path_217" data-name="Path 217" d="M37.386-592.735v2.721H48.128v3.772H37.386v2.721H48.128v3.747H33.614v-16.71H48.128v3.748Z" transform="translate(-12.895 596.483)" fill="#fff"/>
      <path id="Path_218" data-name="Path 218" d="M88.09-596.483H92l.1.215,7.09,16.5H95.108l-1.289-2.984H86.275l-1.266,2.984H80.928l7.09-16.5Zm1.957,4.965L87.9-586.5h4.32Z" transform="translate(-39.251 596.483)" fill="#fff"/>
      <path id="Path_219" data-name="Path 219" d="M152.6-588.128a8.364,8.364,0,0,1-8.355,8.355H136.7v-16.71h7.544A8.365,8.365,0,0,1,152.6-588.128Zm-3.772,0a4.6,4.6,0,0,0-4.583-4.607h-3.772v9.214h3.772A4.605,4.605,0,0,0,148.829-588.128Z" transform="translate(-70.319 596.483)" fill="#fff"/>
      <path id="Path_220" data-name="Path 220" d="M191.451-592.735v2.721h10.742v3.772H191.451v2.721h10.742v3.747H187.679v-16.71h14.514v3.748Z" transform="translate(-98.715 596.483)" fill="#fff"/>
      <path id="Path_221" data-name="Path 221" d="M248.569-585l3.318,5.228h-4.44l-3.056-4.775h-4.034v4.775H236.61v-16.71h9.715a5.97,5.97,0,0,1,5.968,5.968A5.919,5.919,0,0,1,248.569-585Zm-.024-5.514a2.231,2.231,0,0,0-2.22-2.22h-5.968v4.416h5.968A2.211,2.211,0,0,0,248.546-590.515Z" transform="translate(-125.972 596.483)" fill="#fff"/>
      <path id="Path_222" data-name="Path 222" d="M303.169-584.881a5.114,5.114,0,0,1-5.109,5.108H287.843v-3.747H298.06a1.376,1.376,0,0,0,1.361-1.361,1.36,1.36,0,0,0-1.361-1.361h-5.848a5.119,5.119,0,0,1-5.108-5.132,5.114,5.114,0,0,1,5.108-5.109h10.217v3.748H292.211a1.376,1.376,0,0,0-1.361,1.361,1.36,1.36,0,0,0,1.361,1.36h5.848A5.12,5.12,0,0,1,303.169-584.881Z" transform="translate(-154.099 596.483)" fill="#fff"/>
    </g>
  </g>
</svg>
